<?xml version="1.0" encoding="UTF-8" standalone="no"?>
<!-- Created with Inkscape (http://www.inkscape.org/) -->

<svg
   xmlns:dc="http://purl.org/dc/elements/1.1/"
   xmlns:cc="http://creativecommons.org/ns#"
   xmlns:rdf="http://www.w3.org/1999/02/22-rdf-syntax-ns#"
   xmlns:svg="http://www.w3.org/2000/svg"
   xmlns="http://www.w3.org/2000/svg"
   xmlns:sodipodi="http://sodipodi.sourceforge.net/DTD/sodipodi-0.dtd"
   xmlns:inkscape="http://www.inkscape.org/namespaces/inkscape"
   width="150mm"
   height="150mm"
   viewBox="0 0 150 150"
   version="1.1"
   id="svg8299"
   inkscape:version="0.92.2 (5c3e80d, 2017-08-06)"
   sodipodi:docname="parallelRLosc.svg">
  <defs
     id="defs8293">
    <marker
       inkscape:stockid="Arrow1Mend"
       orient="auto"
       refY="0.0"
       refX="0.0"
       id="marker12565"
       style="overflow:visible;"
       inkscape:isstock="true">
      <path
         id="path12563"
         d="M 0.0,0.0 L 5.0,-5.0 L -12.5,0.0 L 5.0,5.0 L 0.0,0.0 z "
         style="fill-rule:evenodd;stroke:#686868;stroke-width:1pt;stroke-opacity:1;fill:#999999;fill-opacity:1"
         transform="scale(0.4) rotate(180) translate(10,0)" />
    </marker>
    <marker
       inkscape:isstock="true"
       style="overflow:visible;"
       id="marker11648"
       refX="0.0"
       refY="0.0"
       orient="auto"
       inkscape:stockid="Arrow1Mend">
      <path
         transform="scale(0.4) rotate(180) translate(10,0)"
         style="fill-rule:evenodd;stroke:#686868;stroke-width:1pt;stroke-opacity:1;fill:#999999;fill-opacity:1"
         d="M 0.0,0.0 L 5.0,-5.0 L -12.5,0.0 L 5.0,5.0 L 0.0,0.0 z "
         id="path11646" />
    </marker>
    <marker
       inkscape:isstock="true"
       style="overflow:visible;"
       id="marker11128"
       refX="0.0"
       refY="0.0"
       orient="auto"
       inkscape:stockid="Arrow1Mend"
       inkscape:collect="always">
      <path
         transform="scale(0.4) rotate(180) translate(10,0)"
         style="fill-rule:evenodd;stroke:#686868;stroke-width:1pt;stroke-opacity:1;fill:#999999;fill-opacity:1"
         d="M 0.0,0.0 L 5.0,-5.0 L -12.5,0.0 L 5.0,5.0 L 0.0,0.0 z "
         id="path11126" />
    </marker>
    <marker
       inkscape:stockid="Arrow1Mend"
       orient="auto"
       refY="0.0"
       refX="0.0"
       id="marker11050"
       style="overflow:visible;"
       inkscape:isstock="true">
      <path
         id="path11048"
         d="M 0.0,0.0 L 5.0,-5.0 L -12.5,0.0 L 5.0,5.0 L 0.0,0.0 z "
         style="fill-rule:evenodd;stroke:#000000;stroke-width:1pt;stroke-opacity:1;fill:#000000;fill-opacity:1"
         transform="scale(0.4) rotate(180) translate(10,0)" />
    </marker>
    <marker
       inkscape:stockid="Arrow1Mend"
       orient="auto"
       refY="0.0"
       refX="0.0"
       id="marker10907"
       style="overflow:visible;"
       inkscape:isstock="true"
       inkscape:collect="always">
      <path
         id="path10905"
         d="M 0.0,0.0 L 5.0,-5.0 L -12.5,0.0 L 5.0,5.0 L 0.0,0.0 z "
         style="fill-rule:evenodd;stroke:#686868;stroke-width:1pt;stroke-opacity:1;fill:#999999;fill-opacity:1"
         transform="scale(0.4) rotate(180) translate(10,0)" />
    </marker>
    <marker
       inkscape:isstock="true"
       style="overflow:visible;"
       id="marker10757"
       refX="0.0"
       refY="0.0"
       orient="auto"
       inkscape:stockid="Arrow1Mend"
       inkscape:collect="always">
      <path
         transform="scale(0.4) rotate(180) translate(10,0)"
         style="fill-rule:evenodd;stroke:#000000;stroke-width:1pt;stroke-opacity:1;fill:#000000;fill-opacity:1"
         d="M 0.0,0.0 L 5.0,-5.0 L -12.5,0.0 L 5.0,5.0 L 0.0,0.0 z "
         id="path10755" />
    </marker>
    <marker
       inkscape:stockid="Arrow1Mend"
       orient="auto"
       refY="0.0"
       refX="0.0"
       id="marker10329"
       style="overflow:visible;"
       inkscape:isstock="true"
       inkscape:collect="always">
      <path
         id="path10327"
         d="M 0.0,0.0 L 5.0,-5.0 L -12.5,0.0 L 5.0,5.0 L 0.0,0.0 z "
         style="fill-rule:evenodd;stroke:#000000;stroke-width:1pt;stroke-opacity:1;fill:#000000;fill-opacity:1"
         transform="scale(0.4) rotate(180) translate(10,0)" />
    </marker>
    <marker
       inkscape:stockid="Arrow1Mend"
       orient="auto"
       refY="0.0"
       refX="0.0"
       id="marker9369"
       style="overflow:visible;"
       inkscape:isstock="true">
      <path
         id="path9367"
         d="M 0.0,0.0 L 5.0,-5.0 L -12.5,0.0 L 5.0,5.0 L 0.0,0.0 z "
         style="fill-rule:evenodd;stroke:#000000;stroke-width:1pt;stroke-opacity:1;fill:#000000;fill-opacity:1"
         transform="scale(0.4) rotate(180) translate(10,0)" />
    </marker>
    <marker
       inkscape:stockid="Arrow2Mstart"
       orient="auto"
       refY="0.0"
       refX="0.0"
       id="Arrow2Mstart"
       style="overflow:visible"
       inkscape:isstock="true">
      <path
         id="path1856"
         style="fill-rule:evenodd;stroke-width:0.625;stroke-linejoin:round;stroke:#000000;stroke-opacity:1;fill:#000000;fill-opacity:1"
         d="M 8.7185878,4.0337352 L -2.2072895,0.016013256 L 8.7185884,-4.0017078 C 6.9730900,-1.6296469 6.9831476,1.6157441 8.7185878,4.0337352 z "
         transform="scale(0.6) translate(0,0)" />
    </marker>
    <marker
       inkscape:isstock="true"
       style="overflow:visible;"
       id="marker9032"
       refX="0.0"
       refY="0.0"
       orient="auto"
       inkscape:stockid="Arrow1Mend">
      <path
         transform="scale(0.4) rotate(180) translate(10,0)"
         style="fill-rule:evenodd;stroke:#000000;stroke-width:1pt;stroke-opacity:1;fill:#000000;fill-opacity:1"
         d="M 0.0,0.0 L 5.0,-5.0 L -12.5,0.0 L 5.0,5.0 L 0.0,0.0 z "
         id="path9030" />
    </marker>
    <marker
       inkscape:isstock="true"
       style="overflow:visible;"
       id="marker8988"
       refX="0.0"
       refY="0.0"
       orient="auto"
       inkscape:stockid="Arrow1Mend"
       inkscape:collect="always">
      <path
         transform="scale(0.4) rotate(180) translate(10,0)"
         style="fill-rule:evenodd;stroke:#000000;stroke-width:1pt;stroke-opacity:1;fill:#000000;fill-opacity:1"
         d="M 0.0,0.0 L 5.0,-5.0 L -12.5,0.0 L 5.0,5.0 L 0.0,0.0 z "
         id="path8986" />
    </marker>
    <marker
       inkscape:stockid="Arrow1Mend"
       orient="auto"
       refY="0.0"
       refX="0.0"
       id="Arrow1Mend"
       style="overflow:visible;"
       inkscape:isstock="true"
       inkscape:collect="always">
      <path
         id="path1841"
         d="M 0.0,0.0 L 5.0,-5.0 L -12.5,0.0 L 5.0,5.0 L 0.0,0.0 z "
         style="fill-rule:evenodd;stroke:#000000;stroke-width:1pt;stroke-opacity:1;fill:#000000;fill-opacity:1"
         transform="scale(0.4) rotate(180) translate(10,0)" />
    </marker>
  </defs>
  <sodipodi:namedview
     id="base"
     pagecolor="#ffffff"
     bordercolor="#666666"
     borderopacity="1.0"
     inkscape:pageopacity="0.0"
     inkscape:pageshadow="2"
     inkscape:zoom="1.979899"
     inkscape:cx="32.810425"
     inkscape:cy="327.4674"
     inkscape:document-units="mm"
     inkscape:current-layer="layer1"
     showgrid="false"
     showguides="false"
     inkscape:window-width="1920"
     inkscape:window-height="1101"
     inkscape:window-x="0"
     inkscape:window-y="28"
     inkscape:window-maximized="1"
     inkscape:snap-global="false" />
  <metadata
     id="metadata8296">
    <rdf:RDF>
      <cc:Work
         rdf:about="">
        <dc:format>image/svg+xml</dc:format>
        <dc:type
           rdf:resource="http://purl.org/dc/dcmitype/StillImage" />
        <dc:title></dc:title>
      </cc:Work>
    </rdf:RDF>
  </metadata>
  <g
     inkscape:label="Layer 1"
     inkscape:groupmode="layer"
     id="layer1"
     transform="translate(0,-147)">
    <path
       style="fill:none;stroke:#000000;stroke-width:0.26458332px;stroke-linecap:butt;stroke-linejoin:miter;stroke-opacity:1;marker-end:url(#Arrow1Mend)"
       d="M 23.471939,281.93053 V 155.30041"
       id="path8856"
       inkscape:connector-curvature="0" />
    <path
       style="fill:none;stroke:#000000;stroke-width:0.26458332px;stroke-linecap:butt;stroke-linejoin:miter;stroke-opacity:1;marker-end:url(#marker8988)"
       d="M 15.524561,171.7838 H 129.58545"
       id="path8858"
       inkscape:connector-curvature="0" />
    <g
       id="g8940"
       transform="matrix(1,0,0,0.5749863,0,68.30064)"
       style="stroke-width:1.31877661">
      <g
         style="stroke-width:1.65337026"
         transform="matrix(0.79762937,0,0,0.79762937,5.5646494,138.95284)"
         id="g8870">
        <path
           sodipodi:nodetypes="cc"
           inkscape:connector-curvature="0"
           id="path1218"
           d="m 22.720573,51.436162 c 20.495756,-54.3794602 31.231636,0 31.231636,0"
           style="fill:none;stroke:#000000;stroke-width:0.43745428px;stroke-linecap:butt;stroke-linejoin:miter;stroke-opacity:1" />
        <path
           style="fill:none;stroke:#000000;stroke-width:0.43745428px;stroke-linecap:butt;stroke-linejoin:miter;stroke-opacity:1"
           d="m 85.183897,51.436162 c -20.49574,54.379458 -31.231688,0 -31.231688,0"
           id="path1220"
           inkscape:connector-curvature="0"
           sodipodi:nodetypes="cc" />
      </g>
      <g
         style="stroke-width:1.65337026"
         transform="matrix(0.79762937,0,0,0.79762937,55.387232,138.95284)"
         id="g8876">
        <path
           style="fill:none;stroke:#000000;stroke-width:0.43745428px;stroke-linecap:butt;stroke-linejoin:miter;stroke-opacity:1"
           d="m 22.720573,51.436162 c 20.495756,-54.3794602 31.231636,0 31.231636,0"
           id="path8872"
           inkscape:connector-curvature="0"
           sodipodi:nodetypes="cc" />
        <path
           sodipodi:nodetypes="cc"
           inkscape:connector-curvature="0"
           id="path8874"
           d="m 85.183897,51.436162 c -20.49574,54.379458 -31.231688,0 -31.231688,0"
           style="fill:none;stroke:#000000;stroke-width:0.43745428px;stroke-linecap:butt;stroke-linejoin:miter;stroke-opacity:1" />
      </g>
    </g>
    <g
       aria-label="Vac, VR, VL"
       style="font-style:normal;font-variant:normal;font-weight:normal;font-stretch:normal;font-size:4.23333311px;line-height:1.25;font-family:'Latin Modern Math';-inkscape-font-specification:'Latin Modern Math';letter-spacing:0px;word-spacing:0px;fill:#000000;fill-opacity:1;stroke:none;stroke-width:0.26458332"
       id="text8880">
      <path
         d="m 29.47022,154.97783 v -0.13124 c -0.131234,0.008 -0.300567,0.0127 -0.410634,0.0127 l -0.482599,-0.0127 v 0.13124 c 0.220133,0.004 0.309033,0.1143 0.309033,0.21166 0,0.0339 -0.0127,0.0593 -0.02117,0.0847 l -0.7747,2.04047 -0.808566,-2.13784 c -0.0254,-0.0593 -0.0254,-0.0762 -0.0254,-0.0762 0,-0.12276 0.2413,-0.12276 0.347133,-0.12276 v -0.13124 c -0.1524,0.0127 -0.4445,0.0127 -0.605367,0.0127 l -0.537633,-0.0127 v 0.13124 c 0.275167,0 0.3556,0 0.414867,0.16086 l 0.982133,2.59927 c 0.02963,0.0804 0.0508,0.0931 0.105833,0.0931 0.07197,0 0.08043,-0.0212 0.1016,-0.0804 l 0.944033,-2.4892 c 0.05927,-0.15663 0.173567,-0.2794 0.461434,-0.28363 z"
         style="stroke-width:0.26458332"
         id="path12389" />
      <path
         d="m 30.883941,158.33973 v -0.15409 h -0.06879 v 0.15409 c 0,0.1596 -0.06879,0.17611 -0.09906,0.17611 -0.0908,0 -0.101812,-0.12383 -0.101812,-0.13759 v -0.55033 c 0,-0.11557 0,-0.22289 -0.09906,-0.3247 -0.107315,-0.10731 -0.244898,-0.15134 -0.376978,-0.15134 -0.225637,0 -0.415502,0.12933 -0.415502,0.31094 0,0.0825 0.05503,0.12933 0.126577,0.12933 0.07705,0 0.126576,-0.055 0.126576,-0.12658 0,-0.033 -0.01376,-0.12382 -0.140335,-0.12658 0.07429,-0.0963 0.209127,-0.12657 0.29718,-0.12657 0.134832,0 0.291677,0.10731 0.291677,0.35221 v 0.10181 c -0.140335,0.008 -0.332952,0.0165 -0.506307,0.0991 -0.206375,0.0936 -0.275166,0.23665 -0.275166,0.35772 0,0.22288 0.266911,0.29168 0.440266,0.29168 0.18161,0 0.308187,-0.11007 0.360469,-0.2394 0.01101,0.11007 0.0853,0.22564 0.21463,0.22564 0.05779,0 0.225636,-0.0385 0.225636,-0.26141 z m -0.459528,-0.14034 c 0,0.26141 -0.19812,0.35497 -0.321945,0.35497 -0.134832,0 -0.24765,-0.0963 -0.24765,-0.23389 0,-0.15134 0.11557,-0.37973 0.569595,-0.39624 z"
         style="font-size:64.99999762%;baseline-shift:sub"
         id="path12391" />
      <path
         d="m 32.072661,158.25718 c 0,-0.0275 -0.02752,-0.0275 -0.03577,-0.0275 -0.02477,0 -0.03027,0.011 -0.03577,0.0275 -0.0798,0.2559 -0.258657,0.28892 -0.360469,0.28892 -0.145838,0 -0.387985,-0.11832 -0.387985,-0.56134 0,-0.44852 0.225637,-0.56409 0.371475,-0.56409 0.02477,0 0.19812,0.003 0.294429,0.10181 -0.112819,0.008 -0.129329,0.0908 -0.129329,0.12658 0,0.0715 0.04953,0.12658 0.126577,0.12658 0.07154,0 0.126577,-0.0468 0.126577,-0.12933 0,-0.18711 -0.209127,-0.29443 -0.421005,-0.29443 -0.343959,0 -0.597112,0.29718 -0.597112,0.63839 0,0.35221 0.272415,0.62463 0.591608,0.62463 0.368724,0 0.456777,-0.3302 0.456777,-0.35772 z"
         style="font-size:64.99999762%;baseline-shift:sub"
         id="path12393" />
      <path
         d="m 33.010063,157.73373 c 0,-0.2794 -0.105833,-0.4445 -0.270933,-0.4445 -0.1397,0 -0.224367,0.10583 -0.224367,0.22436 0,0.1143 0.08467,0.22437 0.224367,0.22437 0.0508,0 0.105833,-0.0169 0.148167,-0.055 0.0127,-0.008 0.02117,-0.0127 0.02117,-0.0127 0,0 0.0085,0.004 0.0085,0.0635 0,0.31326 -0.148167,0.56726 -0.287867,0.70696 -0.04657,0.0466 -0.04657,0.055 -0.04657,0.0677 0,0.0296 0.02117,0.0466 0.04233,0.0466 0.04657,0 0.385233,-0.32596 0.385233,-0.82126 z"
         style="stroke-width:0.26458332"
         id="path12395" />
      <path
         d="m 37.828985,154.97783 v -0.13124 c -0.131233,0.008 -0.300566,0.0127 -0.410633,0.0127 l -0.4826,-0.0127 v 0.13124 c 0.220133,0.004 0.309033,0.1143 0.309033,0.21166 0,0.0339 -0.0127,0.0593 -0.02117,0.0847 l -0.7747,2.04047 -0.808567,-2.13784 c -0.0254,-0.0593 -0.0254,-0.0762 -0.0254,-0.0762 0,-0.12276 0.2413,-0.12276 0.347133,-0.12276 v -0.13124 c -0.152399,0.0127 -0.444499,0.0127 -0.605366,0.0127 l -0.537633,-0.0127 v 0.13124 c 0.275166,0 0.3556,0 0.414866,0.16086 l 0.982133,2.59927 c 0.02963,0.0804 0.0508,0.0931 0.105834,0.0931 0.07197,0 0.08043,-0.0212 0.1016,-0.0804 l 0.944033,-2.4892 c 0.05927,-0.15663 0.173567,-0.2794 0.461433,-0.28363 z"
         style="stroke-width:0.26458332"
         id="path12397" />
      <path
         d="m 39.927871,158.34248 c 0,-0.0165 0,-0.0468 -0.03577,-0.0468 -0.03027,0 -0.03027,0.0248 -0.03302,0.044 -0.01651,0.19537 -0.112819,0.2449 -0.18161,0.2449 -0.134832,0 -0.156845,-0.14034 -0.195369,-0.39624 l -0.03577,-0.22014 c -0.04953,-0.1761 -0.184362,-0.26691 -0.335704,-0.31919 0.266912,-0.066 0.481542,-0.23389 0.481542,-0.44852 0,-0.26416 -0.31369,-0.4953 -0.718185,-0.4953 H 38.00996 v 0.0853 H 38.076 c 0.211878,0 0.217381,0.0303 0.217381,0.12933 V 158.37 c 0,0.0991 -0.0055,0.12933 -0.217381,0.12933 h -0.06604 v 0.0853 c 0.09906,-0.008 0.294428,-0.008 0.401743,-0.008 0.107315,0 0.302683,0 0.401743,0.008 v -0.0853 h -0.06604 c -0.211878,0 -0.217381,-0.0303 -0.217381,-0.12933 v -0.69617 h 0.316441 c 0.04403,0 0.159597,0 0.255905,0.0935 0.104564,0.0991 0.104564,0.18436 0.104564,0.36873 0,0.17885 0,0.28892 0.112818,0.39348 0.112818,0.0991 0.26416,0.11557 0.34671,0.11557 0.21463,0 0.261408,-0.22563 0.261408,-0.30268 z m -0.619125,-1.14194 c 0,0.18986 -0.06604,0.41275 -0.473286,0.41275 h -0.305435 v -0.71268 c 0,-0.0633 0,-0.0963 0.06054,-0.10457 0.02752,-0.006 0.107315,-0.006 0.162349,-0.006 0.24765,0 0.555836,0.011 0.555836,0.41 z"
         style="font-size:64.99999762%;baseline-shift:sub"
         id="path12399" />
      <path
         d="m 40.799148,157.73373 c 0,-0.2794 -0.105834,-0.4445 -0.270934,-0.4445 -0.1397,0 -0.224366,0.10583 -0.224366,0.22436 0,0.1143 0.08467,0.22437 0.224366,0.22437 0.0508,0 0.105834,-0.0169 0.148167,-0.055 0.0127,-0.008 0.02117,-0.0127 0.02117,-0.0127 0,0 0.0085,0.004 0.0085,0.0635 0,0.31326 -0.148166,0.56726 -0.287866,0.70696 -0.04657,0.0466 -0.04657,0.055 -0.04657,0.0677 0,0.0296 0.02117,0.0466 0.04233,0.0466 0.04657,0 0.385234,-0.32596 0.385234,-0.82126 z"
         style="stroke-width:0.26458332"
         id="path12401" />
      <path
         d="m 45.61807,154.97783 v -0.13124 c -0.131233,0.008 -0.300567,0.0127 -0.410633,0.0127 l -0.4826,-0.0127 v 0.13124 c 0.220133,0.004 0.309033,0.1143 0.309033,0.21166 0,0.0339 -0.0127,0.0593 -0.02117,0.0847 l -0.7747,2.04047 -0.808566,-2.13784 c -0.0254,-0.0593 -0.0254,-0.0762 -0.0254,-0.0762 0,-0.12276 0.2413,-0.12276 0.347133,-0.12276 v -0.13124 c -0.1524,0.0127 -0.4445,0.0127 -0.605367,0.0127 l -0.537633,-0.0127 v 0.13124 c 0.275167,0 0.3556,0 0.414867,0.16086 l 0.982133,2.59927 c 0.02963,0.0804 0.0508,0.0931 0.105833,0.0931 0.07197,0 0.08043,-0.0212 0.1016,-0.0804 l 0.944034,-2.4892 c 0.05927,-0.15663 0.173566,-0.2794 0.461433,-0.28363 z"
         style="stroke-width:0.26458332"
         id="path12403" />
      <path
         d="m 47.304206,157.8747 h -0.06879 c -0.03027,0.28067 -0.06879,0.62463 -0.553085,0.62463 h -0.225637 c -0.129328,0 -0.134831,-0.0193 -0.134831,-0.11007 v -1.46664 c 0,-0.0936 0,-0.13208 0.261408,-0.13208 h 0.0908 v -0.0853 c -0.09906,0.008 -0.349462,0.008 -0.46228,0.008 -0.107315,0 -0.321945,0 -0.418253,-0.008 v 0.0853 h 0.06604 c 0.211878,0 0.217382,0.0303 0.217382,0.12933 V 158.37 c 0,0.0991 -0.0055,0.12933 -0.217382,0.12933 h -0.06604 v 0.0853 h 1.433618 z"
         style="font-size:64.99999762%;baseline-shift:sub"
         id="path12405" />
    </g>
    <path
       style="fill:none;stroke:#000000;stroke-width:0.265;stroke-linecap:butt;stroke-linejoin:miter;stroke-opacity:1;stroke-miterlimit:4;stroke-dasharray:0.265,0.265;stroke-dashoffset:0"
       d="M 37.818639,160.55891 H 20.713388"
       id="path8884"
       inkscape:connector-curvature="0" />
    <g
       aria-label="250V"
       style="font-style:normal;font-variant:normal;font-weight:normal;font-stretch:normal;font-size:4.23333311px;line-height:1.25;font-family:'Latin Modern Math';-inkscape-font-specification:'Latin Modern Math';letter-spacing:0px;word-spacing:0px;fill:#000000;fill-opacity:1;stroke:none;stroke-width:0.26458332"
       id="text8888">
      <path
         d="m 12.591548,160.89139 h -0.105833 c -0.02117,0.127 -0.0508,0.31327 -0.09313,0.37677 -0.02963,0.0339 -0.309034,0.0339 -0.402167,0.0339 h -0.762 l 0.448733,-0.43603 c 0.6604,-0.5842 0.9144,-0.8128 0.9144,-1.23613 0,-0.4826 -0.381,-0.82127 -0.897466,-0.82127 -0.478367,0 -0.791634,0.38947 -0.791634,0.76623 0,0.23707 0.211667,0.23707 0.224367,0.23707 0.07197,0 0.220133,-0.0508 0.220133,-0.22437 0,-0.11006 -0.0762,-0.22013 -0.224366,-0.22013 -0.03387,0 -0.04233,0 -0.05503,0.004 0.09737,-0.27516 0.325967,-0.4318 0.5715,-0.4318 0.385234,0 0.567267,0.3429 0.567267,0.69004 0,0.33866 -0.211667,0.6731 -0.4445,0.93556 l -0.8128,0.90594 c -0.04657,0.0466 -0.04657,0.055 -0.04657,0.15663 h 1.570567 z"
         style="stroke-width:0.26458332"
         id="path12408" />
      <path
         d="m 14.708215,160.77709 c 0,-0.50377 -0.347134,-0.9271 -0.804334,-0.9271 -0.2032,0 -0.385233,0.0677 -0.537633,0.2159 v -0.8255 c 0.08467,0.0254 0.224367,0.055 0.359833,0.055 0.5207,0 0.817034,-0.38523 0.817034,-0.44026 0,-0.0254 -0.0127,-0.0466 -0.04233,-0.0466 0,0 -0.0127,0 -0.03387,0.0127 -0.08467,0.0381 -0.2921,0.12277 -0.575734,0.12277 -0.169333,0 -0.364066,-0.0296 -0.563033,-0.11854 -0.03387,-0.0127 -0.0508,-0.0127 -0.0508,-0.0127 -0.04233,0 -0.04233,0.0339 -0.04233,0.1016 v 1.25307 c 0,0.0762 0,0.11007 0.05927,0.11007 0.02963,0 0.0381,-0.0127 0.05503,-0.0381 0.04657,-0.0677 0.2032,-0.29634 0.5461,-0.29634 0.220133,0 0.325966,0.19474 0.359833,0.27094 0.06773,0.15663 0.0762,0.32173 0.0762,0.5334 0,0.14816 0,0.40216 -0.1016,0.57996 -0.1016,0.1651 -0.258233,0.27517 -0.452967,0.27517 -0.309033,0 -0.550333,-0.22437 -0.6223,-0.47413 0.0127,0.004 0.0254,0.008 0.07197,0.008 0.1397,0 0.211667,-0.10583 0.211667,-0.20743 0,-0.1016 -0.07197,-0.20743 -0.211667,-0.20743 -0.05927,0 -0.207433,0.0296 -0.207433,0.22436 0,0.36407 0.2921,0.7747 0.766233,0.7747 0.491067,0 0.922867,-0.4064 0.922867,-0.94403 z"
         style="stroke-width:0.26458332"
         id="path12410" />
      <path
         d="m 16.871448,160.27332 c 0,-0.33866 -0.02117,-0.67733 -0.169333,-0.9906 -0.194734,-0.4064 -0.541867,-0.47413 -0.719667,-0.47413 -0.254,0 -0.563033,0.11007 -0.7366,0.50377 -0.135467,0.2921 -0.156633,0.6223 -0.156633,0.96096 0,0.3175 0.01693,0.6985 0.1905,1.02024 0.182033,0.3429 0.491066,0.42756 0.6985,0.42756 0.2286,0 0.550333,-0.0889 0.7366,-0.49106 0.135466,-0.2921 0.156633,-0.6223 0.156633,-0.95674 z m -0.351367,-0.0508 c 0,0.3175 0,0.60537 -0.04657,0.8763 -0.0635,0.40217 -0.3048,0.52917 -0.4953,0.52917 -0.1651,0 -0.414867,-0.10583 -0.491067,-0.51223 -0.04657,-0.254 -0.04657,-0.64347 -0.04657,-0.89324 0,-0.27093 0,-0.55033 0.03387,-0.77893 0.08043,-0.50377 0.397933,-0.54187 0.503767,-0.54187 0.1397,0 0.4191,0.0762 0.499533,0.4953 0.04233,0.23707 0.04233,0.5588 0.04233,0.8255 z"
         style="stroke-width:0.26458332"
         id="path12412" />
      <path
         d="m 20.131114,158.86786 v -0.13124 c -0.131233,0.008 -0.300566,0.0127 -0.410633,0.0127 l -0.4826,-0.0127 v 0.13124 c 0.220133,0.004 0.309033,0.1143 0.309033,0.21166 0,0.0339 -0.0127,0.0593 -0.02117,0.0847 l -0.7747,2.04047 -0.808567,-2.13784 c -0.0254,-0.0593 -0.0254,-0.0762 -0.0254,-0.0762 0,-0.12276 0.2413,-0.12276 0.347133,-0.12276 v -0.13124 c -0.1524,0.0127 -0.4445,0.0127 -0.605366,0.0127 l -0.537634,-0.0127 v 0.13124 c 0.275167,0 0.3556,0 0.414867,0.16086 l 0.982133,2.59927 c 0.02963,0.0804 0.0508,0.0931 0.105834,0.0931 0.07197,0 0.08043,-0.0212 0.1016,-0.0804 l 0.944033,-2.4892 c 0.05927,-0.15663 0.173567,-0.2794 0.461433,-0.28363 z"
         style="stroke-width:0.26458332"
         id="path12414" />
    </g>
    <g
       aria-label="-250V"
       style="font-style:normal;font-variant:normal;font-weight:normal;font-stretch:normal;font-size:4.23333311px;line-height:1.25;font-family:'Latin Modern Math';-inkscape-font-specification:'Latin Modern Math';letter-spacing:0px;word-spacing:0px;fill:#000000;fill-opacity:1;stroke:none;stroke-width:0.26458332"
       id="text8892">
      <path
         d="m 11.334139,183.90443 v -0.24554 h -1.121833 v 0.24554 z"
         style="stroke-width:0.26458332"
         id="path12417" />
      <path
         d="m 13.480373,183.95946 h -0.105834 c -0.02117,0.127 -0.0508,0.31327 -0.09313,0.37677 -0.02963,0.0339 -0.309033,0.0339 -0.402167,0.0339 h -0.762 l 0.448734,-0.43603 c 0.6604,-0.5842 0.9144,-0.8128 0.9144,-1.23613 0,-0.4826 -0.381,-0.82127 -0.897467,-0.82127 -0.478367,0 -0.791633,0.38947 -0.791633,0.76623 0,0.23707 0.211666,0.23707 0.224366,0.23707 0.07197,0 0.220134,-0.0508 0.220134,-0.22437 0,-0.11006 -0.0762,-0.22013 -0.224367,-0.22013 -0.03387,0 -0.04233,0 -0.05503,0.004 0.09737,-0.27516 0.325966,-0.4318 0.5715,-0.4318 0.385233,0 0.567266,0.3429 0.567266,0.69004 0,0.33866 -0.211666,0.6731 -0.4445,0.93556 l -0.8128,0.90594 c -0.04657,0.0466 -0.04657,0.055 -0.04657,0.15663 h 1.570566 z"
         style="stroke-width:0.26458332"
         id="path12419" />
      <path
         d="m 15.597039,183.84516 c 0,-0.50377 -0.347133,-0.9271 -0.804333,-0.9271 -0.2032,0 -0.385233,0.0677 -0.537633,0.2159 v -0.8255 c 0.08467,0.0254 0.224366,0.055 0.359833,0.055 0.5207,0 0.817033,-0.38523 0.817033,-0.44026 0,-0.0254 -0.0127,-0.0466 -0.04233,-0.0466 0,0 -0.0127,0 -0.03387,0.0127 -0.08467,0.0381 -0.2921,0.12277 -0.575733,0.12277 -0.169333,0 -0.364067,-0.0296 -0.563033,-0.11854 -0.03387,-0.0127 -0.0508,-0.0127 -0.0508,-0.0127 -0.04233,0 -0.04233,0.0339 -0.04233,0.1016 v 1.25307 c 0,0.0762 0,0.11007 0.05927,0.11007 0.02963,0 0.0381,-0.0127 0.05503,-0.0381 0.04657,-0.0677 0.2032,-0.29634 0.5461,-0.29634 0.220134,0 0.325967,0.19474 0.359834,0.27094 0.06773,0.15663 0.0762,0.32173 0.0762,0.5334 0,0.14816 0,0.40216 -0.1016,0.57996 -0.1016,0.1651 -0.258234,0.27517 -0.452967,0.27517 -0.309033,0 -0.550333,-0.22437 -0.6223,-0.47413 0.0127,0.004 0.0254,0.008 0.07197,0.008 0.1397,0 0.211666,-0.10583 0.211666,-0.20743 0,-0.1016 -0.07197,-0.20743 -0.211666,-0.20743 -0.05927,0 -0.207433,0.0296 -0.207433,0.22436 0,0.36407 0.292099,0.7747 0.766233,0.7747 0.491066,0 0.922866,-0.4064 0.922866,-0.94403 z"
         style="stroke-width:0.26458332"
         id="path12421" />
      <path
         d="m 17.760272,183.34139 c 0,-0.33866 -0.02117,-0.67733 -0.169333,-0.9906 -0.194733,-0.4064 -0.541867,-0.47413 -0.719667,-0.47413 -0.254,0 -0.563033,0.11007 -0.7366,0.50377 -0.135466,0.2921 -0.156633,0.6223 -0.156633,0.96096 0,0.3175 0.01693,0.6985 0.1905,1.02024 0.182033,0.3429 0.491067,0.42756 0.6985,0.42756 0.2286,0 0.550333,-0.0889 0.7366,-0.49106 0.135467,-0.2921 0.156633,-0.6223 0.156633,-0.95674 z m -0.351366,-0.0508 c 0,0.3175 0,0.60537 -0.04657,0.8763 -0.0635,0.40217 -0.3048,0.52917 -0.4953,0.52917 -0.1651,0 -0.414867,-0.10583 -0.491067,-0.51223 -0.04657,-0.254 -0.04657,-0.64347 -0.04657,-0.89324 0,-0.27093 0,-0.55033 0.03387,-0.77893 0.08043,-0.50377 0.397934,-0.54187 0.503767,-0.54187 0.1397,0 0.4191,0.0762 0.499533,0.4953 0.04233,0.23707 0.04233,0.5588 0.04233,0.8255 z"
         style="stroke-width:0.26458332"
         id="path12423" />
      <path
         d="m 21.019939,181.93593 v -0.13124 c -0.131233,0.008 -0.300567,0.0127 -0.410633,0.0127 l -0.4826,-0.0127 v 0.13124 c 0.220133,0.004 0.309033,0.1143 0.309033,0.21166 0,0.0339 -0.0127,0.0593 -0.02117,0.0847 l -0.774699,2.04047 -0.808567,-2.13784 c -0.0254,-0.0593 -0.0254,-0.0762 -0.0254,-0.0762 0,-0.12276 0.2413,-0.12276 0.347133,-0.12276 v -0.13124 c -0.1524,0.0127 -0.4445,0.0127 -0.605366,0.0127 l -0.537634,-0.0127 v 0.13124 c 0.275167,0 0.3556,0 0.414867,0.16086 l 0.982133,2.59927 c 0.02963,0.0804 0.0508,0.0931 0.105834,0.0931 0.07197,0 0.08043,-0.0212 0.1016,-0.0804 l 0.944033,-2.4892 c 0.05927,-0.15663 0.173566,-0.2794 0.461433,-0.28363 z"
         style="stroke-width:0.26458332"
         id="path12425" />
    </g>
    <path
       inkscape:connector-curvature="0"
       id="path8894"
       d="M 60.011505,183.22607 H 21.391057"
       style="fill:none;stroke:#000000;stroke-width:0.26499999;stroke-linecap:butt;stroke-linejoin:miter;stroke-miterlimit:4;stroke-dasharray:0.26500001, 0.26500001;stroke-dashoffset:0;stroke-opacity:1" />
    <g
       style="stroke-width:1.67744935"
       transform="matrix(1,0,0,0.35538669,0,136.39915)"
       id="g8956">
      <g
         id="g8948"
         transform="matrix(0.79762937,0,0,0.79762937,5.5646494,138.95284)"
         style="stroke-width:2.10304356">
        <path
           style="fill:none;stroke:#000000;stroke-width:0.5564304px;stroke-linecap:butt;stroke-linejoin:miter;stroke-opacity:1"
           d="m 22.720573,51.436162 c 20.495756,-54.3794602 31.231636,0 31.231636,0"
           id="path8944"
           inkscape:connector-curvature="0"
           sodipodi:nodetypes="cc" />
        <path
           sodipodi:nodetypes="cc"
           inkscape:connector-curvature="0"
           id="path8946"
           d="m 85.183897,51.436162 c -20.49574,54.379458 -31.231688,0 -31.231688,0"
           style="fill:none;stroke:#000000;stroke-width:0.5564304px;stroke-linecap:butt;stroke-linejoin:miter;stroke-opacity:1" />
      </g>
      <g
         id="g8954"
         transform="matrix(0.79762937,0,0,0.79762937,55.387232,138.95284)"
         style="stroke-width:2.10304356">
        <path
           sodipodi:nodetypes="cc"
           inkscape:connector-curvature="0"
           id="path8950"
           d="m 22.720573,51.436162 c 20.495756,-54.3794602 31.231636,0 31.231636,0"
           style="fill:none;stroke:#000000;stroke-width:0.5564304px;stroke-linecap:butt;stroke-linejoin:miter;stroke-opacity:1" />
        <path
           style="fill:none;stroke:#000000;stroke-width:0.5564304px;stroke-linecap:butt;stroke-linejoin:miter;stroke-opacity:1"
           d="m 85.183897,51.436162 c -20.49574,54.379458 -31.231688,0 -31.231688,0"
           id="path8952"
           inkscape:connector-curvature="0"
           sodipodi:nodetypes="cc" />
      </g>
    </g>
    <g
       aria-label="IR"
       style="font-style:normal;font-variant:normal;font-weight:normal;font-stretch:normal;font-size:4.23333311px;line-height:1.25;font-family:'Latin Modern Math';-inkscape-font-specification:'Latin Modern Math';letter-spacing:0px;word-spacing:0px;fill:#000000;fill-opacity:1;stroke:none;stroke-width:0.26458332"
       id="text8966">
      <path
         d="m 47.633337,195.1194 v -0.13123 H 47.52327 c -0.334433,0 -0.347133,-0.0466 -0.347133,-0.19897 v -2.23097 c 0,-0.1524 0.0127,-0.19896 0.347133,-0.19896 h 0.110067 v -0.13124 c -0.148167,0.0127 -0.4826,0.0127 -0.643467,0.0127 -0.1651,0 -0.499533,0 -0.6477,-0.0127 v 0.13124 h 0.110067 c 0.334433,0 0.347133,0.0466 0.347133,0.19896 v 2.23097 c 0,0.1524 -0.0127,0.19897 -0.347133,0.19897 H 46.34217 v 0.13123 c 0.148167,-0.0127 0.4826,-0.0127 0.643467,-0.0127 0.1651,0 0.499533,0 0.6477,0.0127 z"
         style="stroke-width:0.26458332"
         id="path12428" />
      <path
         d="m 49.767479,195.72392 c 0,-0.0165 0,-0.0468 -0.03577,-0.0468 -0.03027,0 -0.03027,0.0248 -0.03302,0.044 -0.01651,0.19537 -0.112818,0.2449 -0.18161,0.2449 -0.134832,0 -0.156845,-0.14034 -0.195368,-0.39624 l -0.03577,-0.22014 c -0.04953,-0.1761 -0.184362,-0.26691 -0.335703,-0.31919 0.266911,-0.066 0.481541,-0.23389 0.481541,-0.44852 0,-0.26416 -0.31369,-0.4953 -0.718185,-0.4953 h -0.864023 v 0.0853 h 0.06604 c 0.211879,0 0.217382,0.0303 0.217382,0.12933 v 1.45013 c 0,0.0991 -0.0055,0.12933 -0.217382,0.12933 h -0.06604 v 0.0853 c 0.09906,-0.008 0.294429,-0.008 0.401744,-0.008 0.107315,0 0.302683,0 0.401743,0.008 v -0.0853 h -0.06604 c -0.211878,0 -0.217382,-0.0303 -0.217382,-0.12933 v -0.69617 h 0.316442 c 0.04403,0 0.159596,0 0.255905,0.0935 0.104563,0.0991 0.104563,0.18436 0.104563,0.36873 0,0.17885 0,0.28892 0.112818,0.39348 0.112819,0.0991 0.26416,0.11557 0.34671,0.11557 0.21463,0 0.261409,-0.22563 0.261409,-0.30268 z m -0.619125,-1.14194 c 0,0.18986 -0.06604,0.41275 -0.473287,0.41275 h -0.305435 v -0.71268 c 0,-0.0633 0,-0.0963 0.06054,-0.10457 0.02752,-0.006 0.107315,-0.006 0.162348,-0.006 0.24765,0 0.555837,0.011 0.555837,0.41 z"
         style="font-size:64.99999762%;baseline-shift:sub"
         id="path12430" />
    </g>
    <path
       inkscape:connector-curvature="0"
       id="path8968"
       d="M 37.818639,193.36745 H 20.713388"
       style="fill:none;stroke:#000000;stroke-width:0.26499999;stroke-linecap:butt;stroke-linejoin:miter;stroke-miterlimit:4;stroke-dasharray:0.265, 0.265;stroke-dashoffset:0;stroke-opacity:1" />
    <g
       aria-label="0.25A"
       style="font-style:normal;font-variant:normal;font-weight:normal;font-stretch:normal;font-size:4.23333311px;line-height:1.25;font-family:'Latin Modern Math';-inkscape-font-specification:'Latin Modern Math';letter-spacing:0px;word-spacing:0px;fill:#000000;fill-opacity:1;stroke:none;stroke-width:0.26458332"
       id="text8972">
      <path
         d="m 10.370257,193.27021 c 0,-0.33867 -0.02117,-0.67733 -0.169333,-0.9906 -0.194733,-0.4064 -0.5418667,-0.47413 -0.7196667,-0.47413 -0.254,0 -0.5630333,0.11006 -0.7365999,0.50376 -0.1354667,0.2921 -0.1566334,0.6223 -0.1566334,0.96097 0,0.3175 0.016933,0.6985 0.1905,1.02023 0.1820333,0.3429 0.4910667,0.42757 0.6985,0.42757 0.2286,0 0.550333,-0.0889 0.7366,-0.49107 0.135467,-0.2921 0.156633,-0.6223 0.156633,-0.95673 z m -0.351366,-0.0508 c 0,0.3175 0,0.60537 -0.046567,0.8763 -0.0635,0.40217 -0.3048,0.52917 -0.4953,0.52917 -0.1651,0 -0.4148667,-0.10584 -0.4910667,-0.51224 -0.046567,-0.254 -0.046567,-0.64346 -0.046567,-0.89323 0,-0.27093 0,-0.55033 0.033867,-0.77893 0.080433,-0.50377 0.3979334,-0.54187 0.5037667,-0.54187 0.1397,0 0.4191,0.0762 0.4995333,0.4953 0.042334,0.23707 0.042334,0.5588 0.042334,0.8255 z"
         style="stroke-width:0.26458332"
         id="path12433" />
      <path
         d="m 11.352391,194.40051 c 0,-0.12277 -0.1016,-0.22437 -0.224367,-0.22437 -0.122767,0 -0.224367,0.1016 -0.224367,0.22437 0,0.12277 0.1016,0.22437 0.224367,0.22437 0.122767,0 0.224367,-0.1016 0.224367,-0.22437 z"
         style="stroke-width:0.26458332"
         id="path12435" />
      <path
         d="m 13.614446,193.88828 h -0.105834 c -0.02117,0.127 -0.0508,0.31326 -0.09313,0.37676 -0.02963,0.0339 -0.309033,0.0339 -0.402167,0.0339 h -0.762 l 0.448734,-0.43603 c 0.6604,-0.5842 0.9144,-0.8128 0.9144,-1.23614 0,-0.4826 -0.381,-0.82126 -0.897467,-0.82126 -0.478367,0 -0.791633,0.38946 -0.791633,0.76623 0,0.23707 0.211666,0.23707 0.224366,0.23707 0.07197,0 0.220134,-0.0508 0.220134,-0.22437 0,-0.11007 -0.0762,-0.22013 -0.224367,-0.22013 -0.03387,0 -0.04233,0 -0.05503,0.004 0.09737,-0.27517 0.325966,-0.4318 0.5715,-0.4318 0.385233,0 0.567266,0.3429 0.567266,0.69003 0,0.33867 -0.211666,0.6731 -0.4445,0.93557 l -0.8128,0.90593 c -0.04657,0.0466 -0.04657,0.055 -0.04657,0.15664 h 1.570566 z"
         style="stroke-width:0.26458332"
         id="path12437" />
      <path
         d="m 15.731112,193.77398 c 0,-0.50377 -0.347133,-0.9271 -0.804333,-0.9271 -0.2032,0 -0.385233,0.0677 -0.537633,0.2159 v -0.8255 c 0.08467,0.0254 0.224366,0.055 0.359833,0.055 0.5207,0 0.817033,-0.38523 0.817033,-0.44027 0,-0.0254 -0.0127,-0.0466 -0.04233,-0.0466 0,0 -0.0127,0 -0.03387,0.0127 -0.08467,0.0381 -0.2921,0.12276 -0.575733,0.12276 -0.169333,0 -0.364067,-0.0296 -0.563033,-0.11853 -0.03387,-0.0127 -0.0508,-0.0127 -0.0508,-0.0127 -0.04233,0 -0.04233,0.0339 -0.04233,0.1016 v 1.25307 c 0,0.0762 0,0.11006 0.05927,0.11006 0.02963,0 0.0381,-0.0127 0.05503,-0.0381 0.04657,-0.0677 0.2032,-0.29633 0.5461,-0.29633 0.220134,0 0.325967,0.19473 0.359834,0.27093 0.06773,0.15664 0.0762,0.32174 0.0762,0.5334 0,0.14817 0,0.40217 -0.1016,0.57997 -0.1016,0.1651 -0.258234,0.27517 -0.452967,0.27517 -0.309033,0 -0.550333,-0.22437 -0.6223,-0.47414 0.0127,0.004 0.0254,0.008 0.07197,0.008 0.1397,0 0.211666,-0.10583 0.211666,-0.20743 0,-0.1016 -0.07197,-0.20744 -0.211666,-0.20744 -0.05927,0 -0.207434,0.0296 -0.207434,0.22437 0,0.36407 0.2921,0.7747 0.766234,0.7747 0.491066,0 0.922866,-0.4064 0.922866,-0.94403 z"
         style="stroke-width:0.26458332"
         id="path12439" />
      <path
         d="m 18.982312,194.62488 v -0.13124 h -0.0762 c -0.254,0 -0.313267,-0.0296 -0.359834,-0.16933 l -0.914399,-2.64583 c -0.02117,-0.055 -0.02963,-0.0847 -0.09737,-0.0847 -0.06773,0 -0.08043,0.0254 -0.1016,0.0847 l -0.8763,2.53153 c -0.0762,0.2159 -0.245533,0.2794 -0.474133,0.28363 v 0.13124 l 0.4318,-0.0127 0.486833,0.0127 v -0.13124 c -0.211667,0 -0.3175,-0.10583 -0.3175,-0.2159 0,-0.0127 0.0042,-0.055 0.0085,-0.0635 l 0.194733,-0.55456 h 1.045633 l 0.224367,0.6477 c 0.0042,0.0169 0.0127,0.0423 0.0127,0.0593 0,0.127 -0.237067,0.127 -0.351367,0.127 v 0.13124 c 0.1524,-0.0127 0.448733,-0.0127 0.6096,-0.0127 z m -1.096433,-1.09644 h -0.9525 l 0.474133,-1.37583 z"
         style="stroke-width:0.26458332"
         id="path12441" />
    </g>
    <g
       aria-label="-0.25A"
       style="font-style:normal;font-variant:normal;font-weight:normal;font-stretch:normal;font-size:4.23333311px;line-height:1.25;font-family:'Latin Modern Math';-inkscape-font-specification:'Latin Modern Math';letter-spacing:0px;word-spacing:0px;fill:#000000;fill-opacity:1;stroke:none;stroke-width:0.26458332"
       id="text8976">
      <path
         d="m 8.1213414,207.2629 v -0.24553 H 6.9995081 v 0.24553 z"
         style="stroke-width:0.26458332"
         id="path12444" />
      <path
         d="m 10.314142,206.69987 c 0,-0.33867 -0.02117,-0.67733 -0.169334,-0.9906 -0.1947329,-0.4064 -0.5418662,-0.47413 -0.7196662,-0.47413 -0.254,0 -0.5630333,0.11006 -0.7365999,0.50376 -0.1354667,0.2921 -0.1566334,0.6223 -0.1566334,0.96097 0,0.3175 0.016933,0.6985 0.1905,1.02023 0.1820333,0.3429 0.4910667,0.42757 0.6985,0.42757 0.2286,0 0.5503333,-0.0889 0.7365995,-0.49107 0.135467,-0.2921 0.156634,-0.6223 0.156634,-0.95673 z m -0.3513669,-0.0508 c 0,0.3175 0,0.60536 -0.046567,0.8763 -0.0635,0.40216 -0.3048,0.52916 -0.4953,0.52916 -0.1651,0 -0.4148667,-0.10583 -0.4910667,-0.51223 -0.046567,-0.254 -0.046567,-0.64347 -0.046567,-0.89323 0,-0.27093 0,-0.55033 0.033867,-0.77893 0.080433,-0.50377 0.3979334,-0.54187 0.5037667,-0.54187 0.1397,0 0.4191,0.0762 0.4995333,0.4953 0.042333,0.23707 0.042333,0.5588 0.042333,0.8255 z"
         style="stroke-width:0.26458332"
         id="path12446" />
      <path
         d="m 11.296275,207.83017 c 0,-0.12277 -0.1016,-0.22437 -0.224366,-0.22437 -0.122767,0 -0.224367,0.1016 -0.224367,0.22437 0,0.12276 0.1016,0.22436 0.224367,0.22436 0.122766,0 0.224366,-0.1016 0.224366,-0.22436 z"
         style="stroke-width:0.26458332"
         id="path12448" />
      <path
         d="m 13.55833,207.31793 h -0.105833 c -0.02117,0.127 -0.0508,0.31327 -0.09313,0.37677 -0.02963,0.0339 -0.309034,0.0339 -0.402167,0.0339 h -0.762 l 0.448733,-0.43604 c 0.6604,-0.5842 0.9144,-0.8128 0.9144,-1.23613 0,-0.4826 -0.381,-0.82126 -0.897466,-0.82126 -0.478367,0 -0.791634,0.38946 -0.791634,0.76623 0,0.23707 0.211667,0.23707 0.224367,0.23707 0.07197,0 0.220133,-0.0508 0.220133,-0.22437 0,-0.11007 -0.0762,-0.22013 -0.224366,-0.22013 -0.03387,0 -0.04233,0 -0.05503,0.004 0.09737,-0.27517 0.325967,-0.4318 0.5715,-0.4318 0.385234,0 0.567267,0.3429 0.567267,0.69003 0,0.33867 -0.211667,0.6731 -0.4445,0.93557 l -0.8128,0.90593 c -0.04657,0.0466 -0.04657,0.055 -0.04657,0.15663 h 1.570567 z"
         style="stroke-width:0.26458332"
         id="path12450" />
      <path
         d="m 15.674997,207.20363 c 0,-0.50376 -0.347134,-0.92709 -0.804334,-0.92709 -0.2032,0 -0.385233,0.0677 -0.537633,0.21589 v -0.82549 c 0.08467,0.0254 0.224367,0.055 0.359833,0.055 0.5207,0 0.817034,-0.38523 0.817034,-0.44027 0,-0.0254 -0.0127,-0.0466 -0.04233,-0.0466 0,0 -0.0127,0 -0.03387,0.0127 -0.08467,0.0381 -0.2921,0.12276 -0.575734,0.12276 -0.169333,0 -0.364066,-0.0296 -0.563033,-0.11853 -0.03387,-0.0127 -0.0508,-0.0127 -0.0508,-0.0127 -0.04233,0 -0.04233,0.0339 -0.04233,0.1016 v 1.25306 c 0,0.0762 0,0.11007 0.05927,0.11007 0.02963,0 0.0381,-0.0127 0.05503,-0.0381 0.04657,-0.0677 0.2032,-0.29633 0.5461,-0.29633 0.220133,0 0.325966,0.19473 0.359833,0.27093 0.06773,0.15663 0.0762,0.32173 0.0762,0.5334 0,0.14817 0,0.40217 -0.1016,0.57997 -0.1016,0.1651 -0.258233,0.27516 -0.452967,0.27516 -0.309033,0 -0.550333,-0.22436 -0.6223,-0.47413 0.0127,0.004 0.0254,0.008 0.07197,0.008 0.1397,0 0.211667,-0.10584 0.211667,-0.20744 0,-0.1016 -0.07197,-0.20743 -0.211667,-0.20743 -0.05927,0 -0.207433,0.0296 -0.207433,0.22437 0,0.36406 0.2921,0.7747 0.766233,0.7747 0.491067,0 0.922867,-0.4064 0.922867,-0.94404 z"
         style="stroke-width:0.26458332"
         id="path12452" />
      <path
         d="m 18.926196,208.05453 v -0.13123 h -0.0762 c -0.254,0 -0.313266,-0.0296 -0.359833,-0.16933 l -0.9144,-2.64583 c -0.02117,-0.055 -0.02963,-0.0847 -0.09737,-0.0847 -0.06773,0 -0.08043,0.0254 -0.1016,0.0847 l -0.8763,2.53153 c -0.0762,0.2159 -0.245533,0.2794 -0.474133,0.28363 v 0.13123 l 0.4318,-0.0127 0.486833,0.0127 v -0.13123 c -0.211666,0 -0.3175,-0.10583 -0.3175,-0.2159 0,-0.0127 0.0042,-0.055 0.0085,-0.0635 l 0.194733,-0.55457 h 1.045634 l 0.224366,0.6477 c 0.0042,0.0169 0.0127,0.0423 0.0127,0.0593 0,0.127 -0.237066,0.127 -0.351366,0.127 v 0.13123 c 0.1524,-0.0127 0.448733,-0.0127 0.6096,-0.0127 z m -1.096433,-1.09643 h -0.9525 l 0.474133,-1.37583 z"
         style="stroke-width:0.26458332"
         id="path12454" />
    </g>
    <path
       style="fill:none;stroke:#000000;stroke-width:0.26499999;stroke-linecap:butt;stroke-linejoin:miter;stroke-miterlimit:4;stroke-dasharray:0.26500001, 0.26500001;stroke-dashoffset:0;stroke-opacity:1"
       d="M 60.767457,207.53015 H 22.147009"
       id="path8978"
       inkscape:connector-curvature="0" />
    <g
       aria-label="t"
       style="font-style:normal;font-variant:normal;font-weight:normal;font-stretch:normal;font-size:4.23333311px;line-height:1.25;font-family:'Latin Modern Math';-inkscape-font-specification:'Latin Modern Math';letter-spacing:0px;word-spacing:0px;fill:#000000;fill-opacity:1;stroke:none;stroke-width:0.26458332"
       id="text9016">
      <path
         d="m 130.29534,169.09709 v -0.2413 h -0.10583 v 0.23283 c 0,0.31327 -0.127,0.47414 -0.28363,0.47414 -0.28364,0 -0.28364,-0.38524 -0.28364,-0.4572 v -1.17687 h 0.60537 v -0.13123 h -0.60537 v -0.77894 h -0.10583 c -0.004,0.34714 -0.13123,0.8001 -0.5461,0.81704 v 0.0931 h 0.35983 v 1.1684 c 0,0.5207 0.3937,0.5715 0.5461,0.5715 0.30057,0 0.4191,-0.30057 0.4191,-0.5715 z"
         style="stroke-width:0.26458332"
         id="path12457" />
    </g>
    <path
       style="fill:none;stroke:#000000;stroke-width:0.26499999;stroke-linecap:butt;stroke-linejoin:miter;stroke-miterlimit:4;stroke-dasharray:0.26500001, 0.26500001;stroke-dashoffset:0;stroke-opacity:1"
       d="m 73.774198,147.85186 v 28.41508"
       id="path9018"
       inkscape:connector-curvature="0" />
    <path
       inkscape:connector-curvature="0"
       id="path9020"
       d="m 123.51603,147.85186 v 28.41508"
       style="fill:none;stroke:#000000;stroke-width:0.26499999;stroke-linecap:butt;stroke-linejoin:miter;stroke-miterlimit:4;stroke-dasharray:0.26500001, 0.26500001;stroke-dashoffset:0;stroke-opacity:1" />
    <path
       style="fill:none;stroke:#000000;stroke-width:0.26458332px;stroke-linecap:butt;stroke-linejoin:miter;stroke-opacity:1;marker-start:url(#Arrow2Mstart);marker-end:url(#marker9032)"
       d="M 73.774196,157.37692 H 123.51603"
       id="path9022"
       inkscape:connector-curvature="0" />
    <g
       aria-label="T = 10μs"
       style="font-style:normal;font-variant:normal;font-weight:normal;font-stretch:normal;font-size:4.23333311px;line-height:1.25;font-family:'Latin Modern Math';-inkscape-font-specification:'Latin Modern Math';letter-spacing:0px;word-spacing:0px;fill:#000000;fill-opacity:1;stroke:none;stroke-width:0.26458332"
       id="text9338">
      <path
         d="m 90.401321,153.72344 -0.08043,-0.9525 h -2.586567 l -0.08043,0.9525 h 0.105833 c 0.05927,-0.68157 0.122767,-0.82127 0.762,-0.82127 0.0762,0 0.186267,0 0.2286,0.008 0.0889,0.0169 0.0889,0.0635 0.0889,0.16086 v 2.23097 c 0,0.14393 0,0.2032 -0.4445,0.2032 h -0.169333 v 0.13123 c 0.173566,-0.0127 0.605366,-0.0127 0.8001,-0.0127 0.194733,0 0.630766,0 0.804333,0.0127 v -0.13123 h -0.169333 c -0.4445,0 -0.4445,-0.0593 -0.4445,-0.2032 v -2.23097 c 0,-0.0847 0,-0.14393 0.0762,-0.16086 0.04657,-0.008 0.160866,-0.008 0.2413,-0.008 0.639233,0 0.702733,0.1397 0.762,0.82127 z"
         style="stroke-width:0.26458332"
         id="path12460" />
      <path
         d="m 95.026833,154.16794 c 0,-0.0847 -0.08043,-0.0847 -0.1397,-0.0847 h -2.535767 c -0.05927,0 -0.1397,0 -0.1397,0.0847 0,0.0847 0.08043,0.0847 0.143933,0.0847 h 2.5273 c 0.0635,0 0.143934,0 0.143934,-0.0847 z m 0,0.82126 c 0,-0.0847 -0.08043,-0.0847 -0.143934,-0.0847 h -2.5273 c -0.0635,0 -0.143933,0 -0.143933,0.0847 0,0.0847 0.08043,0.0847 0.1397,0.0847 h 2.535767 c 0.05927,0 0.1397,0 0.1397,-0.0847 z"
         style="stroke-width:0.26458332"
         id="path12462" />
      <path
         d="m 98.452989,155.6369 v -0.13123 h -0.135467 c -0.381,0 -0.3937,-0.0466 -0.3937,-0.2032 v -2.3749 c 0,-0.1016 0,-0.11007 -0.09737,-0.11007 -0.262466,0.27094 -0.635,0.27094 -0.770466,0.27094 v 0.13123 c 0.08467,0 0.334433,0 0.554566,-0.11007 v 2.19287 c 0,0.1524 -0.0127,0.2032 -0.3937,0.2032 h -0.135466 v 0.13123 c 0.148166,-0.0127 0.516466,-0.0127 0.6858,-0.0127 0.169333,0 0.537633,0 0.6858,0.0127 z"
         style="stroke-width:0.26458332"
         id="path12464" />
      <path
         d="m 100.74322,154.28224 c 0,-0.33867 -0.0212,-0.67734 -0.16933,-0.9906 -0.19474,-0.4064 -0.54187,-0.47414 -0.719669,-0.47414 -0.254,0 -0.563033,0.11007 -0.7366,0.50377 -0.135466,0.2921 -0.156633,0.6223 -0.156633,0.96097 0,0.3175 0.01693,0.6985 0.1905,1.02023 0.182033,0.3429 0.491067,0.42757 0.6985,0.42757 0.228602,0 0.550332,-0.0889 0.736602,-0.49107 0.13546,-0.2921 0.15663,-0.6223 0.15663,-0.95673 z m -0.35137,-0.0508 c 0,0.3175 0,0.60536 -0.0466,0.8763 -0.0635,0.40216 -0.3048,0.52916 -0.495302,0.52916 -0.1651,0 -0.414867,-0.10583 -0.491067,-0.51223 -0.04657,-0.254 -0.04657,-0.64347 -0.04657,-0.89323 0,-0.27094 0,-0.55034 0.03387,-0.77894 0.08043,-0.50376 0.397934,-0.54186 0.503767,-0.54186 0.1397,0 0.419102,0.0762 0.499532,0.4953 0.0423,0.23706 0.0423,0.5588 0.0423,0.8255 z"
         style="stroke-width:0.26458332"
         id="path12466" />
      <path
         d="m 103.13505,155.03154 c -0.008,-0.0423 -0.0466,-0.0423 -0.0593,-0.0423 -0.0423,0 -0.0423,0.0169 -0.0423,0.0762 0,0.27517 -0.0169,0.52494 -0.1905,0.52494 -0.1143,0 -0.1524,-0.11007 -0.17356,-0.19474 -0.0254,-0.0931 -0.0212,-0.2921 -0.0254,-0.44026 l 0.004,-0.4572 c -0.004,-0.0635 0,-0.22437 0,-0.28787 -0.004,-0.0974 0,-0.25823 -0.008,-0.28363 -0.0169,-0.0762 -0.0889,-0.1143 -0.1524,-0.1143 -0.0212,0 -0.127,0.004 -0.127,0.14816 v 0.79164 l -0.004,0.4318 c 0.004,0.0212 -0.10583,0.4064 -0.44873,0.4064 -0.21167,0 -0.34714,-0.1397 -0.40217,-0.3683 -0.0339,-0.12277 -0.0339,-0.2413 -0.0339,-0.35984 v -0.7112 c 0,-0.0889 0.004,-0.24976 -0.004,-0.27093 -0.0169,-0.072 -0.0762,-0.1143 -0.14817,-0.1143 -0.0127,0 -0.13123,0.004 -0.13123,0.1524 v 2.4511 c 0,0.0508 0.004,0.0677 0.004,0.0677 0.0169,0.0635 0.0762,0.1143 0.14817,0.1143 0.0889,0 0.11853,-0.0762 0.127,-0.0889 0.004,-0.0381 0.004,-0.25823 0.004,-0.91016 0.1651,0.1143 0.35984,0.13123 0.4445,0.13123 0.29634,0 0.41487,-0.1905 0.48684,-0.30903 0.0847,0.1905 0.27093,0.30903 0.4572,0.30903 0.14816,0 0.22013,-0.0974 0.254,-0.23283 0.0339,-0.1524 0.0212,-0.4191 0.0212,-0.4191 z"
         style="stroke-width:0.26458332"
         id="path12468" />
      <path
         d="m 104.67724,155.09504 c 0,-0.22437 -0.127,-0.35137 -0.1778,-0.40217 -0.1397,-0.13547 -0.3048,-0.16933 -0.4826,-0.2032 -0.23706,-0.0466 -0.5207,-0.1016 -0.5207,-0.34713 0,-0.14817 0.11007,-0.32174 0.47414,-0.32174 0.46566,0 0.48683,0.381 0.4953,0.51224 0.004,0.0381 0.0508,0.0381 0.0508,0.0381 0.055,0 0.055,-0.0212 0.055,-0.1016 v -0.42757 c 0,-0.072 0,-0.1016 -0.0466,-0.1016 -0.0212,0 -0.0296,0 -0.0847,0.0508 -0.0127,0.0169 -0.055,0.055 -0.072,0.0677 -0.16087,-0.11853 -0.33443,-0.11853 -0.39793,-0.11853 -0.51647,0 -0.67734,0.28363 -0.67734,0.5207 0,0.14817 0.0677,0.2667 0.18204,0.35983 0.13546,0.11007 0.254,0.13547 0.5588,0.19474 0.0931,0.0169 0.44026,0.0847 0.44026,0.38946 0,0.2159 -0.14816,0.38524 -0.47836,0.38524 -0.3556,0 -0.508,-0.2413 -0.58844,-0.60114 -0.0127,-0.055 -0.0169,-0.072 -0.0593,-0.072 -0.055,0 -0.055,0.0296 -0.055,0.10583 v 0.5588 c 0,0.072 0,0.1016 0.0466,0.1016 0.0212,0 0.0254,-0.004 0.10583,-0.0847 0.008,-0.008 0.008,-0.0169 0.0847,-0.0974 0.18627,0.1778 0.37677,0.18203 0.46567,0.18203 0.48683,0 0.68156,-0.28363 0.68156,-0.58843 z"
         style="stroke-width:0.26458332"
         id="path12470" />
    </g>
    <path
       inkscape:connector-curvature="0"
       id="path10325"
       d="M 15.524561,200.35898 H 129.58545"
       style="fill:none;stroke:#000000;stroke-width:0.26458332px;stroke-linecap:butt;stroke-linejoin:miter;stroke-opacity:1;marker-end:url(#marker10329)" />
    <g
       id="g10733"
       transform="matrix(1,0,0,0.54547817,-13.758336,132.8387)"
       style="stroke-width:1.35397708">
      <g
         style="stroke-width:1.69750142"
         transform="matrix(0.79762937,0,0,0.79762937,5.5646494,138.95284)"
         id="g10725">
        <path
           sodipodi:nodetypes="cc"
           inkscape:connector-curvature="0"
           id="path10721"
           d="m 40.187759,28.40767 c 7.755077,1.653899 10.819521,9.562671 13.76445,23.028492"
           style="fill:none;stroke:#000000;stroke-width:0.44913068px;stroke-linecap:butt;stroke-linejoin:miter;stroke-opacity:1" />
        <path
           style="fill:none;stroke:#000000;stroke-width:0.44913068px;stroke-linecap:butt;stroke-linejoin:miter;stroke-opacity:1"
           d="m 85.183897,51.436162 c -20.49574,54.379458 -31.231688,0 -31.231688,0"
           id="path10723"
           inkscape:connector-curvature="0"
           sodipodi:nodetypes="cc" />
      </g>
      <g
         style="stroke-width:1.69750142"
         transform="matrix(0.79762937,0,0,0.79762937,55.387232,138.95284)"
         id="g10731">
        <path
           style="fill:none;stroke:#000000;stroke-width:0.44913068px;stroke-linecap:butt;stroke-linejoin:miter;stroke-opacity:1"
           d="m 22.720573,51.436162 c 20.495756,-54.3794602 31.231636,0 31.231636,0"
           id="path10727"
           inkscape:connector-curvature="0"
           sodipodi:nodetypes="cc" />
        <path
           sodipodi:nodetypes="cc"
           inkscape:connector-curvature="0"
           id="path10729"
           d="m 85.183897,51.436162 c -20.49574,54.379458 -31.231688,0 -31.231688,0"
           style="fill:none;stroke:#000000;stroke-width:0.44913068px;stroke-linecap:butt;stroke-linejoin:miter;stroke-opacity:1" />
      </g>
    </g>
    <g
       aria-label="IL"
       style="font-style:normal;font-variant:normal;font-weight:normal;font-stretch:normal;font-size:4.23333311px;line-height:1.25;font-family:'Latin Modern Math';-inkscape-font-specification:'Latin Modern Math';letter-spacing:0px;word-spacing:0px;fill:#000000;fill-opacity:1;stroke:none;stroke-width:0.26458332"
       id="text10739">
      <path
         d="m 31.569349,220.59464 v -0.13124 h -0.110067 c -0.334433,0 -0.347133,-0.0466 -0.347133,-0.19896 v -2.23097 c 0,-0.1524 0.0127,-0.19897 0.347133,-0.19897 h 0.110067 v -0.13123 c -0.148167,0.0127 -0.4826,0.0127 -0.643467,0.0127 -0.1651,0 -0.499533,0 -0.6477,-0.0127 v 0.13123 h 0.110067 c 0.334433,0 0.347133,0.0466 0.347133,0.19897 v 2.23097 c 0,0.1524 -0.0127,0.19896 -0.347133,0.19896 h -0.110067 v 0.13124 c 0.148167,-0.0127 0.4826,-0.0127 0.643467,-0.0127 0.1651,0 0.499533,0 0.6477,0.0127 z"
         style="stroke-width:0.26458332"
         id="path12473" />
      <path
         d="m 33.290741,220.73137 h -0.06879 c -0.03027,0.28067 -0.06879,0.62463 -0.553085,0.62463 h -0.225636 c -0.129329,0 -0.134832,-0.0193 -0.134832,-0.11007 v -1.46663 c 0,-0.0936 0,-0.13208 0.261408,-0.13208 h 0.09081 v -0.0853 c -0.09906,0.008 -0.349461,0.008 -0.46228,0.008 -0.107315,0 -0.321944,0 -0.418253,-0.008 v 0.0853 h 0.06604 c 0.211878,0 0.217382,0.0303 0.217382,0.12932 v 1.45013 c 0,0.0991 -0.0055,0.12933 -0.217382,0.12933 h -0.06604 v 0.0853 h 1.433618 z"
         style="font-size:64.99999762%;baseline-shift:sub"
         id="path12475" />
    </g>
    <g
       aria-label="0.4A"
       style="font-style:normal;font-variant:normal;font-weight:normal;font-stretch:normal;font-size:4.23333311px;line-height:1.25;font-family:'Latin Modern Math';-inkscape-font-specification:'Latin Modern Math';letter-spacing:0px;word-spacing:0px;fill:#000000;fill-opacity:1;stroke:none;stroke-width:0.26458332"
       id="text10745">
      <path
         d="m 15.09496,220.82432 c 0,-0.33867 -0.02117,-0.67733 -0.169333,-0.9906 -0.194734,-0.4064 -0.541867,-0.47413 -0.719667,-0.47413 -0.254,0 -0.563033,0.11006 -0.7366,0.50376 -0.135466,0.2921 -0.156633,0.6223 -0.156633,0.96097 0,0.3175 0.01693,0.6985 0.1905,1.02023 0.182033,0.3429 0.491066,0.42757 0.6985,0.42757 0.2286,0 0.550333,-0.0889 0.7366,-0.49107 0.135466,-0.2921 0.156633,-0.6223 0.156633,-0.95673 z m -0.351367,-0.0508 c 0,0.3175 0,0.60537 -0.04657,0.8763 -0.0635,0.40217 -0.3048,0.52917 -0.4953,0.52917 -0.1651,0 -0.414867,-0.10584 -0.491067,-0.51224 -0.04657,-0.254 -0.04657,-0.64346 -0.04657,-0.89323 0,-0.27093 0,-0.55033 0.03387,-0.77893 0.08043,-0.50377 0.397933,-0.54187 0.503767,-0.54187 0.1397,0 0.4191,0.0762 0.499533,0.4953 0.04233,0.23707 0.04233,0.5588 0.04233,0.8255 z"
         style="stroke-width:0.26458332"
         id="path12478" />
      <path
         d="m 16.077093,221.95462 c 0,-0.12277 -0.1016,-0.22437 -0.224366,-0.22437 -0.122767,0 -0.224367,0.1016 -0.224367,0.22437 0,0.12277 0.1016,0.22437 0.224367,0.22437 0.122766,0 0.224366,-0.1016 0.224366,-0.22437 z"
         style="stroke-width:0.26458332"
         id="path12480" />
      <path
         d="m 18.432282,221.48049 v -0.13124 h -0.423334 v -1.92616 c 0,-0.0847 0,-0.11007 -0.06773,-0.11007 -0.0381,0 -0.0508,0 -0.08467,0.0508 l -1.299634,1.98543 v 0.13124 h 1.126067 v 0.3683 c 0,0.1524 -0.0085,0.19896 -0.321733,0.19896 h -0.0889 v 0.13124 c 0.173566,-0.0127 0.3937,-0.0127 0.5715,-0.0127 0.177799,0 0.402166,0 0.575733,0.0127 v -0.13124 h -0.0889 c -0.313267,0 -0.321734,-0.0466 -0.321734,-0.19896 v -0.3683 z m -0.7239,-0.13124 h -1.032933 l 1.032933,-1.57903 z"
         style="stroke-width:0.26458332"
         id="path12482" />
      <path
         d="m 21.590348,222.17899 v -0.13124 h -0.0762 c -0.254,0 -0.313266,-0.0296 -0.359833,-0.16933 l -0.9144,-2.64583 c -0.02117,-0.055 -0.02963,-0.0847 -0.09737,-0.0847 -0.06773,0 -0.08043,0.0254 -0.1016,0.0847 l -0.8763,2.53153 c -0.0762,0.2159 -0.245533,0.2794 -0.474133,0.28363 v 0.13124 l 0.4318,-0.0127 0.486833,0.0127 v -0.13124 c -0.211666,0 -0.3175,-0.10583 -0.3175,-0.2159 0,-0.0127 0.0042,-0.055 0.0085,-0.0635 l 0.194733,-0.55456 h 1.045634 l 0.224366,0.6477 c 0.0042,0.0169 0.0127,0.0423 0.0127,0.0593 0,0.127 -0.237066,0.127 -0.351366,0.127 v 0.13124 c 0.1524,-0.0127 0.448733,-0.0127 0.6096,-0.0127 z m -1.096433,-1.09644 h -0.9525 l 0.474133,-1.37583 z"
         style="stroke-width:0.26458332"
         id="path12484" />
    </g>
    <g
       aria-label="-0.4A"
       style="font-style:normal;font-variant:normal;font-weight:normal;font-stretch:normal;font-size:4.23333311px;line-height:1.25;font-family:'Latin Modern Math';-inkscape-font-specification:'Latin Modern Math';letter-spacing:0px;word-spacing:0px;fill:#000000;fill-opacity:1;stroke:none;stroke-width:0.26458332"
       id="text10749">
      <path
         d="m 9.6332456,241.62058 v -0.24553 H 8.5114123 v 0.24553 z"
         style="stroke-width:0.26458332"
         id="path12487" />
      <path
         d="m 11.826046,241.05755 c 0,-0.33867 -0.02117,-0.67733 -0.169333,-0.9906 -0.194734,-0.4064 -0.541867,-0.47413 -0.719667,-0.47413 -0.254,0 -0.563033,0.11006 -0.7366,0.50376 -0.135467,0.2921 -0.156633,0.6223 -0.156633,0.96097 0,0.3175 0.01693,0.6985 0.1905,1.02023 0.182033,0.3429 0.491066,0.42757 0.6985,0.42757 0.2286,0 0.550333,-0.0889 0.7366,-0.49107 0.135466,-0.2921 0.156633,-0.6223 0.156633,-0.95673 z m -0.351367,-0.0508 c 0,0.3175 0,0.60537 -0.04657,0.8763 -0.0635,0.40217 -0.3048,0.52917 -0.4953,0.52917 -0.1651,0 -0.414867,-0.10584 -0.491067,-0.51224 -0.04657,-0.254 -0.04657,-0.64346 -0.04657,-0.89323 0,-0.27093 0,-0.55033 0.03387,-0.77893 0.08043,-0.50377 0.397933,-0.54187 0.503767,-0.54187 0.1397,0 0.4191,0.0762 0.499533,0.4953 0.04233,0.23707 0.04233,0.5588 0.04233,0.8255 z"
         style="stroke-width:0.26458332"
         id="path12489" />
      <path
         d="m 12.808179,242.18785 c 0,-0.12277 -0.1016,-0.22437 -0.224366,-0.22437 -0.122767,0 -0.224367,0.1016 -0.224367,0.22437 0,0.12277 0.1016,0.22437 0.224367,0.22437 0.122766,0 0.224366,-0.1016 0.224366,-0.22437 z"
         style="stroke-width:0.26458332"
         id="path12491" />
      <path
         d="m 15.163368,241.71372 v -0.13124 h -0.423333 v -1.92616 c 0,-0.0847 0,-0.11007 -0.06773,-0.11007 -0.0381,0 -0.0508,0 -0.08467,0.0508 l -1.299634,1.98543 v 0.13124 h 1.126067 v 0.3683 c 0,0.1524 -0.0085,0.19896 -0.321733,0.19896 h -0.0889 v 0.13124 c 0.173566,-0.0127 0.3937,-0.0127 0.5715,-0.0127 0.1778,0 0.402166,0 0.575733,0.0127 v -0.13124 h -0.0889 c -0.313267,0 -0.321733,-0.0466 -0.321733,-0.19896 v -0.3683 z m -0.7239,-0.13124 h -1.032933 l 1.032933,-1.57903 z"
         style="stroke-width:0.26458332"
         id="path12493" />
      <path
         d="m 18.321434,242.41222 v -0.13124 h -0.0762 c -0.254,0 -0.313267,-0.0296 -0.359833,-0.16933 l -0.9144,-2.64583 c -0.02117,-0.055 -0.02963,-0.0847 -0.09737,-0.0847 -0.06773,0 -0.08043,0.0254 -0.1016,0.0847 l -0.8763,2.53153 c -0.0762,0.2159 -0.245533,0.2794 -0.474133,0.28363 v 0.13124 l 0.4318,-0.0127 0.486833,0.0127 v -0.13124 c -0.211666,0 -0.3175,-0.10583 -0.3175,-0.2159 0,-0.0127 0.0042,-0.055 0.0085,-0.0635 l 0.194733,-0.55456 h 1.045633 l 0.224367,0.6477 c 0.0042,0.0169 0.0127,0.0423 0.0127,0.0593 0,0.127 -0.237067,0.127 -0.351367,0.127 v 0.13124 c 0.1524,-0.0127 0.448734,-0.0127 0.6096,-0.0127 z m -1.096433,-1.09644 h -0.9525 l 0.474133,-1.37583 z"
         style="stroke-width:0.26458332"
         id="path12495" />
    </g>
    <path
       inkscape:connector-curvature="0"
       id="path10751"
       d="M 45.270434,241.32139 H 19.501176"
       style="fill:none;stroke:#000000;stroke-width:0.26499999;stroke-linecap:butt;stroke-linejoin:miter;stroke-miterlimit:4;stroke-dasharray:0.26500001, 0.26500001;stroke-dashoffset:0;stroke-opacity:1" />
    <path
       style="fill:none;stroke:#000000;stroke-width:0.26458332px;stroke-linecap:butt;stroke-linejoin:miter;stroke-opacity:1;marker-end:url(#marker10757)"
       d="M 15.146585,230.93742 H 129.20747"
       id="path10753"
       inkscape:connector-curvature="0" />
    <path
       style="fill:#999999;stroke:#686868;stroke-width:0.26458332px;stroke-linecap:butt;stroke-linejoin:miter;stroke-opacity:1;marker-end:url(#marker10907)"
       d="m 87.501488,193.43453 -13.04018,26.26934"
       id="path10897"
       inkscape:connector-curvature="0" />
    <g
       aria-label="90°"
       style="font-style:normal;font-variant:normal;font-weight:normal;font-stretch:normal;font-size:4.23333311px;line-height:1.25;font-family:'Latin Modern Math';-inkscape-font-specification:'Latin Modern Math';letter-spacing:0px;word-spacing:0px;fill:#000000;fill-opacity:1;stroke:none;stroke-width:0.26458332"
       id="text10994">
      <path
         d="m 73.939096,208.86169 c 0,-1.13877 -0.486833,-1.42663 -0.8636,-1.42663 -0.232833,0 -0.440266,0.0762 -0.622299,0.2667 -0.173567,0.1905 -0.270934,0.3683 -0.270934,0.6858 0,0.52916 0.372534,0.94403 0.846667,0.94403 0.258233,0 0.4318,-0.1778 0.529166,-0.42333 v 0.13546 c 0,0.9906 -0.440266,1.18534 -0.6858,1.18534 -0.07197,0 -0.300566,-0.008 -0.414866,-0.1524 0.186266,0 0.220133,-0.12277 0.220133,-0.19474 0,-0.13123 -0.1016,-0.19473 -0.194733,-0.19473 -0.06773,0 -0.194733,0.0381 -0.194733,0.2032 0,0.28363 0.2286,0.4572 0.588433,0.4572 0.5461,0 1.062566,-0.57573 1.062566,-1.4859 z m -0.389466,-0.38947 c 0,0.35137 -0.143934,0.762 -0.516467,0.762 -0.06773,0 -0.262467,0 -0.3937,-0.2667 -0.0762,-0.15663 -0.0762,-0.3683 -0.0762,-0.57573 0,-0.2286 0,-0.42757 0.0889,-0.5842 0.1143,-0.21167 0.275167,-0.2667 0.423333,-0.2667 0.194734,0 0.334434,0.14393 0.4064,0.33443 0.0508,0.13547 0.06773,0.40217 0.06773,0.5969 z"
         style="stroke-width:0.26458332"
         id="path12503" />
      <path
         d="m 76.068463,208.89979 c 0,-0.33867 -0.02117,-0.67733 -0.169333,-0.9906 -0.194734,-0.4064 -0.541867,-0.47413 -0.719667,-0.47413 -0.254,0 -0.563033,0.11006 -0.7366,0.50376 -0.135467,0.2921 -0.156633,0.6223 -0.156633,0.96097 0,0.3175 0.01693,0.6985 0.1905,1.02023 0.182033,0.3429 0.491066,0.42757 0.6985,0.42757 0.2286,0 0.550333,-0.0889 0.7366,-0.49107 0.135466,-0.2921 0.156633,-0.6223 0.156633,-0.95673 z m -0.351367,-0.0508 c 0,0.3175 0,0.60537 -0.04657,0.8763 -0.0635,0.40217 -0.3048,0.52917 -0.4953,0.52917 -0.1651,0 -0.414867,-0.10584 -0.491067,-0.51224 -0.04657,-0.254 -0.04657,-0.64346 -0.04657,-0.89323 0,-0.27093 0,-0.55033 0.03387,-0.77893 0.08043,-0.50377 0.397933,-0.54187 0.503767,-0.54187 0.1397,0 0.4191,0.0762 0.499533,0.4953 0.04233,0.23707 0.04233,0.5588 0.04233,0.8255 z"
         style="stroke-width:0.26458332"
         id="path12505" />
      <path
         d="m 77.617863,207.95152 c 0,-0.32596 -0.262467,-0.58843 -0.5842,-0.58843 -0.325967,0 -0.588433,0.26247 -0.588433,0.58843 0,0.32174 0.262466,0.5842 0.588433,0.5842 0.321733,0 0.5842,-0.26246 0.5842,-0.5842 z m -0.169333,0 c 0,0.2286 -0.186267,0.41487 -0.414867,0.41487 -0.232833,0 -0.4191,-0.18627 -0.4191,-0.41487 0,-0.23283 0.186267,-0.4191 0.4191,-0.4191 0.2286,0 0.414867,0.18627 0.414867,0.4191 z"
         style="stroke-width:0.26458332"
         id="path12507" />
    </g>
    <g
       aria-label="Iac"
       style="font-style:normal;font-variant:normal;font-weight:normal;font-stretch:normal;font-size:4.23333311px;line-height:1.25;font-family:'Latin Modern Math';-inkscape-font-specification:'Latin Modern Math';letter-spacing:0px;word-spacing:0px;fill:#000000;fill-opacity:1;stroke:none;stroke-width:0.26458332"
       id="text11020">
      <path
         d="m 37.805955,251.81502 v -0.13124 h -0.110066 c -0.334434,0 -0.347134,-0.0466 -0.347134,-0.19896 v -2.23097 c 0,-0.1524 0.0127,-0.19897 0.347134,-0.19897 h 0.110066 v -0.13123 c -0.148166,0.0127 -0.4826,0.0127 -0.643466,0.0127 -0.1651,0 -0.499534,0 -0.6477,-0.0127 v 0.13123 h 0.110066 c 0.334434,0 0.347134,0.0466 0.347134,0.19897 v 2.23097 c 0,0.1524 -0.0127,0.19896 -0.347134,0.19896 h -0.110066 v 0.13124 c 0.148166,-0.0127 0.4826,-0.0127 0.643466,-0.0127 0.1651,0 0.499534,0 0.6477,0.0127 z"
         style="stroke-width:0.26458332"
         id="path12510" />
      <path
         d="m 39.254933,252.41679 v -0.1541 h -0.06879 v 0.1541 c 0,0.15959 -0.06879,0.1761 -0.09906,0.1761 -0.0908,0 -0.101812,-0.12382 -0.101812,-0.13758 v -0.55033 c 0,-0.11557 0,-0.22289 -0.09906,-0.3247 -0.107315,-0.10732 -0.244898,-0.15134 -0.376978,-0.15134 -0.225637,0 -0.415502,0.12933 -0.415502,0.31094 0,0.0825 0.05503,0.12932 0.126577,0.12932 0.07705,0 0.126577,-0.055 0.126577,-0.12657 0,-0.033 -0.01376,-0.12383 -0.140335,-0.12658 0.07429,-0.0963 0.209126,-0.12658 0.29718,-0.12658 0.134831,0 0.291676,0.10732 0.291676,0.35222 v 0.10181 c -0.140335,0.008 -0.332951,0.0165 -0.506306,0.0991 -0.206375,0.0936 -0.275167,0.23664 -0.275167,0.35772 0,0.22288 0.266912,0.29167 0.440267,0.29167 0.18161,0 0.308186,-0.11006 0.360468,-0.23939 0.01101,0.11006 0.0853,0.22563 0.21463,0.22563 0.05778,0 0.225637,-0.0385 0.225637,-0.2614 z m -0.459529,-0.14034 c 0,0.26141 -0.19812,0.35497 -0.321945,0.35497 -0.134831,0 -0.24765,-0.0963 -0.24765,-0.2339 0,-0.15134 0.11557,-0.37973 0.569595,-0.39624 z"
         style="font-size:64.99999762%;baseline-shift:sub"
         id="path12512" />
      <path
         d="m 40.443653,252.33424 c 0,-0.0275 -0.02752,-0.0275 -0.03577,-0.0275 -0.02477,0 -0.03027,0.011 -0.03577,0.0275 -0.0798,0.2559 -0.258656,0.28892 -0.360468,0.28892 -0.145838,0 -0.387985,-0.11832 -0.387985,-0.56134 0,-0.44852 0.225637,-0.56409 0.371475,-0.56409 0.02477,0 0.19812,0.003 0.294428,0.10181 -0.112818,0.008 -0.129328,0.0908 -0.129328,0.12658 0,0.0715 0.04953,0.12657 0.126577,0.12657 0.07154,0 0.126576,-0.0468 0.126576,-0.12932 0,-0.18712 -0.209126,-0.29443 -0.421005,-0.29443 -0.343958,0 -0.597111,0.29718 -0.597111,0.63838 0,0.35222 0.272415,0.62463 0.591608,0.62463 0.368723,0 0.456777,-0.3302 0.456777,-0.35771 z"
         style="font-size:64.99999762%;baseline-shift:sub"
         id="path12514" />
    </g>
    <g
       aria-label="0.47A"
       style="font-style:normal;font-variant:normal;font-weight:normal;font-stretch:normal;font-size:4.23333311px;line-height:1.25;font-family:'Latin Modern Math';-inkscape-font-specification:'Latin Modern Math';letter-spacing:0px;word-spacing:0px;fill:#000000;fill-opacity:1;stroke:none;stroke-width:0.26458332"
       id="text11024">
      <path
         d="m 6.0235309,251.66671 c 0,-0.33867 -0.021167,-0.67733 -0.1693334,-0.9906 -0.1947333,-0.4064 -0.5418666,-0.47413 -0.7196666,-0.47413 -0.254,0 -0.5630333,0.11006 -0.7366,0.50376 -0.1354666,0.2921 -0.1566333,0.6223 -0.1566333,0.96097 0,0.3175 0.016933,0.6985 0.1905,1.02023 0.1820333,0.3429 0.4910666,0.42757 0.6985,0.42757 0.2286,0 0.5503333,-0.0889 0.7365999,-0.49107 0.1354667,-0.2921 0.1566334,-0.6223 0.1566334,-0.95673 z m -0.3513667,-0.0508 c 0,0.3175 0,0.60537 -0.046567,0.8763 -0.0635,0.40217 -0.3047999,0.52917 -0.4952999,0.52917 -0.1651,0 -0.4148667,-0.10584 -0.4910667,-0.51224 -0.046567,-0.254 -0.046567,-0.64346 -0.046567,-0.89323 0,-0.27093 0,-0.55033 0.033867,-0.77893 0.080433,-0.50377 0.3979333,-0.54187 0.5037667,-0.54187 0.1397,0 0.4190999,0.0762 0.4995333,0.4953 0.042333,0.23707 0.042333,0.5588 0.042333,0.8255 z"
         style="stroke-width:0.26458332"
         id="path12517" />
      <path
         d="m 7.0056641,252.79701 c 0,-0.12277 -0.1016,-0.22437 -0.2243666,-0.22437 -0.1227667,0 -0.2243667,0.1016 -0.2243667,0.22437 0,0.12277 0.1016,0.22437 0.2243667,0.22437 0.1227666,0 0.2243666,-0.1016 0.2243666,-0.22437 z"
         style="stroke-width:0.26458332"
         id="path12519" />
      <path
         d="m 9.3608526,252.32288 v -0.13124 H 8.9375192 v -1.92616 c 0,-0.0847 0,-0.11007 -0.067733,-0.11007 -0.0381,0 -0.0508,0 -0.084667,0.0508 l -1.2996332,1.98543 v 0.13124 h 1.1260666 v 0.3683 c 0,0.1524 -0.00847,0.19896 -0.3217333,0.19896 h -0.0889 v 0.13124 c 0.1735666,-0.0127 0.3937,-0.0127 0.5715,-0.0127 0.1777999,0 0.4021666,0 0.5757333,0.0127 v -0.13124 h -0.0889 c -0.3132667,0 -0.3217334,-0.0466 -0.3217334,-0.19896 v -0.3683 z m -0.7239,-0.13124 H 7.6040193 l 1.0329333,-1.57903 z"
         style="stroke-width:0.26458332"
         id="path12521" />
      <path
         d="m 11.536786,250.29511 h -1.0287 c -0.5164668,0 -0.5249335,-0.055 -0.5418668,-0.13547 H 9.8603859 l -0.1397,0.87207 h 0.1058333 c 0.0127,-0.0677 0.0508,-0.33443 0.1058333,-0.38523 0.029633,-0.0254 0.3598335,-0.0254 0.4148665,-0.0254 h 0.8763 l -0.474133,0.66886 c -0.381,0.5715 -0.5207,1.15994 -0.5207,1.59174 0,0.0423 0,0.23283 0.194733,0.23283 0.194733,0 0.194733,-0.1905 0.194733,-0.23283 v -0.2159 c 0,-0.23284 0.0127,-0.46567 0.04657,-0.69427 0.01693,-0.0974 0.0762,-0.46143 0.262467,-0.7239 l 0.5715,-0.80433 c 0.0381,-0.0508 0.0381,-0.0593 0.0381,-0.14817 z"
         style="stroke-width:0.26458332"
         id="path12523" />
      <path
         d="m 14.635585,253.02138 v -0.13124 h -0.0762 c -0.254,0 -0.313266,-0.0296 -0.359833,-0.16933 l -0.9144,-2.64583 c -0.02117,-0.055 -0.02963,-0.0847 -0.09737,-0.0847 -0.06773,0 -0.08043,0.0254 -0.1016,0.0847 l -0.8763,2.53153 c -0.0762,0.2159 -0.245533,0.2794 -0.474133,0.28363 v 0.13124 l 0.4318,-0.0127 0.486833,0.0127 v -0.13124 c -0.211666,0 -0.3175,-0.10583 -0.3175,-0.2159 0,-0.0127 0.0042,-0.055 0.0085,-0.0635 l 0.194733,-0.55456 h 1.045634 l 0.224366,0.6477 c 0.0042,0.0169 0.0127,0.0423 0.0127,0.0593 0,0.127 -0.237066,0.127 -0.351366,0.127 v 0.13124 c 0.1524,-0.0127 0.448733,-0.0127 0.6096,-0.0127 z m -1.096433,-1.09644 h -0.9525 l 0.474133,-1.37583 z"
         style="stroke-width:0.26458332"
         id="path12525" />
    </g>
    <g
       aria-label="-0.47A"
       style="font-style:normal;font-variant:normal;font-weight:normal;font-stretch:normal;font-size:4.23333311px;line-height:1.25;font-family:'Latin Modern Math';-inkscape-font-specification:'Latin Modern Math';letter-spacing:0px;word-spacing:0px;fill:#000000;fill-opacity:1;stroke:none;stroke-width:0.26458332"
       id="text11028">
      <path
         d="m 8.4993168,278.51119 v -0.24553 H 7.3774835 v 0.24553 z"
         style="stroke-width:0.26458332"
         id="path12528" />
      <path
         d="m 10.692117,277.94816 c 0,-0.33867 -0.02117,-0.67733 -0.169333,-0.9906 -0.194733,-0.4064 -0.5418667,-0.47413 -0.7196667,-0.47413 -0.254,0 -0.5630333,0.11006 -0.7366,0.50376 -0.1354666,0.2921 -0.1566333,0.6223 -0.1566333,0.96097 0,0.3175 0.016933,0.6985 0.1905,1.02023 0.1820333,0.3429 0.4910666,0.42757 0.6984999,0.42757 0.2286001,0 0.5503331,-0.0889 0.7366001,-0.49107 0.135467,-0.2921 0.156633,-0.6223 0.156633,-0.95673 z m -0.351366,-0.0508 c 0,0.3175 0,0.60537 -0.04657,0.8763 -0.0635,0.40217 -0.3048001,0.52917 -0.4953001,0.52917 -0.1650999,0 -0.4148666,-0.10584 -0.4910666,-0.51224 -0.046567,-0.254 -0.046567,-0.64346 -0.046567,-0.89323 0,-0.27093 0,-0.55033 0.033867,-0.77893 0.080433,-0.50377 0.3979333,-0.54187 0.5037666,-0.54187 0.1397,0 0.4191001,0.0762 0.4995331,0.4953 0.04233,0.23707 0.04233,0.5588 0.04233,0.8255 z"
         style="stroke-width:0.26458332"
         id="path12530" />
      <path
         d="m 11.674251,279.07846 c 0,-0.12277 -0.1016,-0.22437 -0.224367,-0.22437 -0.122767,0 -0.224367,0.1016 -0.224367,0.22437 0,0.12277 0.1016,0.22437 0.224367,0.22437 0.122767,0 0.224367,-0.1016 0.224367,-0.22437 z"
         style="stroke-width:0.26458332"
         id="path12532" />
      <path
         d="m 14.029439,278.60433 v -0.13124 h -0.423333 v -1.92616 c 0,-0.0847 0,-0.11007 -0.06773,-0.11007 -0.0381,0 -0.0508,0 -0.08467,0.0508 l -1.299634,1.98543 v 0.13124 h 1.126067 v 0.3683 c 0,0.1524 -0.0085,0.19896 -0.321733,0.19896 h -0.0889 v 0.13124 c 0.173566,-0.0127 0.3937,-0.0127 0.5715,-0.0127 0.1778,0 0.402166,0 0.575733,0.0127 v -0.13124 h -0.0889 c -0.313267,0 -0.321733,-0.0466 -0.321733,-0.19896 v -0.3683 z m -0.7239,-0.13124 h -1.032933 l 1.032933,-1.57903 z"
         style="stroke-width:0.26458332"
         id="path12534" />
      <path
         d="m 16.205372,276.57656 h -1.0287 c -0.516467,0 -0.524933,-0.055 -0.541867,-0.13547 h -0.105833 l -0.1397,0.87207 h 0.105833 c 0.0127,-0.0677 0.0508,-0.33443 0.105834,-0.38523 0.02963,-0.0254 0.359833,-0.0254 0.414866,-0.0254 h 0.8763 l -0.474133,0.66886 c -0.381,0.5715 -0.5207,1.15994 -0.5207,1.59174 0,0.0423 0,0.23283 0.194733,0.23283 0.194734,0 0.194734,-0.1905 0.194734,-0.23283 v -0.2159 c 0,-0.23284 0.0127,-0.46567 0.04657,-0.69427 0.01693,-0.0974 0.0762,-0.46143 0.262467,-0.7239 l 0.5715,-0.80433 c 0.0381,-0.0508 0.0381,-0.0593 0.0381,-0.14817 z"
         style="stroke-width:0.26458332"
         id="path12536" />
      <path
         d="m 19.304172,279.30283 v -0.13124 h -0.0762 c -0.254,0 -0.313267,-0.0296 -0.359834,-0.16933 l -0.9144,-2.64583 c -0.02117,-0.055 -0.02963,-0.0847 -0.09737,-0.0847 -0.06773,0 -0.08043,0.0254 -0.1016,0.0847 l -0.8763,2.53153 c -0.0762,0.2159 -0.245534,0.2794 -0.474134,0.28363 v 0.13124 l 0.4318,-0.0127 0.486834,0.0127 v -0.13124 c -0.211667,0 -0.3175,-0.10583 -0.3175,-0.2159 0,-0.0127 0.0042,-0.055 0.0085,-0.0635 l 0.194734,-0.55456 h 1.045633 l 0.224367,0.6477 c 0.0042,0.0169 0.0127,0.0423 0.0127,0.0593 0,0.127 -0.237067,0.127 -0.351367,0.127 v 0.13124 c 0.1524,-0.0127 0.448733,-0.0127 0.6096,-0.0127 z m -1.096434,-1.09644 h -0.9525 l 0.474134,-1.37583 z"
         style="stroke-width:0.26458332"
         id="path12538" />
    </g>
    <path
       style="fill:none;stroke:#000000;stroke-width:0.26499999;stroke-linecap:butt;stroke-linejoin:miter;stroke-miterlimit:4;stroke-dasharray:0.265, 0.265;stroke-dashoffset:0;stroke-opacity:1"
       d="M 50.940075,278.02308 H 21.202068"
       id="path11030"
       inkscape:connector-curvature="0" />
    <path
       inkscape:connector-curvature="0"
       id="path11032"
       d="M 15.146585,264.8043 H 129.20747"
       style="fill:none;stroke:#000000;stroke-width:0.26458332px;stroke-linecap:butt;stroke-linejoin:miter;stroke-opacity:1;marker-end:url(#marker11050)" />
    <g
       id="g11046"
       transform="matrix(1,0,0,0.66245754,-8.5406607,145.5753)"
       style="stroke-width:1.22862959">
      <g
         style="stroke-width:1.54035151"
         transform="matrix(0.79762937,0,0,0.79762937,5.5646494,138.95284)"
         id="g11038">
        <path
           sodipodi:nodetypes="cssc"
           inkscape:connector-curvature="0"
           id="path11034"
           d="m 33.21364,31.243008 c 1.050093,-1.208138 2.061347,-2.110922 3.033523,-2.748181 3.888705,-2.549038 7.152167,-0.849679 9.775137,2.549037 5.245939,6.797433 7.929909,20.392298 7.929909,20.392298"
           style="fill:none;stroke:#000000;stroke-width:0.40755141px;stroke-linecap:butt;stroke-linejoin:miter;stroke-opacity:1" />
        <path
           style="fill:none;stroke:#000000;stroke-width:0.40755141px;stroke-linecap:butt;stroke-linejoin:miter;stroke-opacity:1"
           d="m 85.183897,51.436162 c -20.49574,54.379458 -31.231688,0 -31.231688,0"
           id="path11036"
           inkscape:connector-curvature="0"
           sodipodi:nodetypes="cc" />
      </g>
      <g
         style="stroke-width:1.54035151"
         transform="matrix(0.79762937,0,0,0.79762937,55.387232,138.95284)"
         id="g11044">
        <path
           style="fill:none;stroke:#000000;stroke-width:0.40755141px;stroke-linecap:butt;stroke-linejoin:miter;stroke-opacity:1"
           d="m 22.720573,51.436162 c 20.495756,-54.3794602 31.231636,0 31.231636,0"
           id="path11040"
           inkscape:connector-curvature="0"
           sodipodi:nodetypes="cc" />
        <path
           sodipodi:nodetypes="cc"
           inkscape:connector-curvature="0"
           id="path11042"
           d="m 85.183897,51.436162 c -20.49574,54.379458 -31.231688,0 -31.231688,0"
           style="fill:none;stroke:#000000;stroke-width:0.40755141px;stroke-linecap:butt;stroke-linejoin:miter;stroke-opacity:1" />
      </g>
    </g>
    <path
       inkscape:connector-curvature="0"
       id="path11124"
       d="m 87.461327,193.2447 -7.719978,58.27955"
       style="fill:#999999;stroke:#686868;stroke-width:0.26458332px;stroke-linecap:butt;stroke-linejoin:miter;stroke-opacity:1;marker-end:url(#marker11128)" />
    <g
       aria-label="58°"
       style="font-style:normal;font-variant:normal;font-weight:normal;font-stretch:normal;font-size:4.23333311px;line-height:1.25;font-family:'Latin Modern Math';-inkscape-font-specification:'Latin Modern Math';letter-spacing:0px;word-spacing:0px;fill:#000000;fill-opacity:1;stroke:none;stroke-width:0.26458332"
       id="text11636"
       transform="translate(1.4699824,0.40090429)">
      <path
         d="m 84.11059,243.98838 c 0,-0.50377 -0.347133,-0.9271 -0.804333,-0.9271 -0.2032,0 -0.385233,0.0677 -0.537633,0.2159 v -0.8255 c 0.08467,0.0254 0.224366,0.055 0.359833,0.055 0.5207,0 0.817033,-0.38523 0.817033,-0.44026 0,-0.0254 -0.0127,-0.0466 -0.04233,-0.0466 0,0 -0.0127,0 -0.03387,0.0127 -0.08467,0.0381 -0.2921,0.12277 -0.575733,0.12277 -0.169333,0 -0.364067,-0.0296 -0.563033,-0.11854 -0.03387,-0.0127 -0.0508,-0.0127 -0.0508,-0.0127 -0.04233,0 -0.04233,0.0339 -0.04233,0.1016 v 1.25307 c 0,0.0762 0,0.11007 0.05927,0.11007 0.02963,0 0.0381,-0.0127 0.05503,-0.0381 0.04657,-0.0677 0.2032,-0.29634 0.5461,-0.29634 0.220134,0 0.325967,0.19474 0.359834,0.27094 0.06773,0.15663 0.0762,0.32173 0.0762,0.5334 0,0.14816 0,0.40216 -0.1016,0.57996 -0.1016,0.1651 -0.258234,0.27517 -0.452967,0.27517 -0.309033,0 -0.550333,-0.22437 -0.6223,-0.47413 0.0127,0.004 0.0254,0.008 0.07197,0.008 0.1397,0 0.211666,-0.10583 0.211666,-0.20743 0,-0.1016 -0.07197,-0.20743 -0.211666,-0.20743 -0.05927,0 -0.207434,0.0296 -0.207434,0.22436 0,0.36407 0.2921,0.7747 0.766234,0.7747 0.491066,0 0.922866,-0.4064 0.922866,-0.94403 z"
         style="stroke-width:0.26458332"
         id="path12541"
         inkscape:connector-curvature="0" />
      <path
         d="m 86.261123,244.12808 c 0,-0.1524 -0.04657,-0.3429 -0.207433,-0.5207 -0.08043,-0.0889 -0.148167,-0.13123 -0.4191,-0.30057 0.3048,-0.15663 0.512233,-0.37676 0.512233,-0.65616 0,-0.38947 -0.376766,-0.63077 -0.762,-0.63077 -0.423333,0 -0.766233,0.31327 -0.766233,0.70697 0,0.0762 0.0085,0.2667 0.186267,0.46566 0.04657,0.0508 0.2032,0.15664 0.309033,0.2286 -0.245533,0.12277 -0.6096,0.35984 -0.6096,0.77894 0,0.44873 0.4318,0.73236 0.8763,0.73236 0.478367,0 0.880533,-0.35136 0.880533,-0.80433 z m -0.300566,-1.47743 c 0,0.2413 -0.1651,0.4445 -0.4191,0.59266 l -0.524934,-0.33866 c -0.194733,-0.127 -0.211666,-0.27094 -0.211666,-0.3429 0,-0.25824 0.275166,-0.43604 0.575733,-0.43604 0.309033,0 0.579967,0.22014 0.579967,0.52494 z m 0.0889,1.62983 c 0,0.31327 -0.3175,0.5334 -0.664634,0.5334 -0.364066,0 -0.668866,-0.26247 -0.668866,-0.61383 0,-0.24554 0.135466,-0.51647 0.4953,-0.71544 l 0.5207,0.3302 c 0.118533,0.0804 0.3175,0.20744 0.3175,0.46567 z"
         style="stroke-width:0.26458332"
         id="path12543"
         inkscape:connector-curvature="0" />
      <path
         d="m 87.823223,242.53635 c 0,-0.32597 -0.262466,-0.58844 -0.5842,-0.58844 -0.325966,0 -0.588433,0.26247 -0.588433,0.58844 0,0.32173 0.262467,0.5842 0.588433,0.5842 0.321734,0 0.5842,-0.26247 0.5842,-0.5842 z m -0.169333,0 c 0,0.2286 -0.186267,0.41486 -0.414867,0.41486 -0.232833,0 -0.4191,-0.18626 -0.4191,-0.41486 0,-0.23284 0.186267,-0.4191 0.4191,-0.4191 0.2286,0 0.414867,0.18626 0.414867,0.4191 z"
         style="stroke-width:0.26458332"
         id="path12545"
         inkscape:connector-curvature="0" />
    </g>
    <path
       inkscape:connector-curvature="0"
       id="path12362"
       d="M 29.962397,251.94272 H 16.09939"
       style="fill:none;stroke:#000000;stroke-width:0.26499999;stroke-linecap:butt;stroke-linejoin:miter;stroke-miterlimit:4;stroke-dasharray:0.265, 0.265;stroke-dashoffset:0;stroke-opacity:1" />
    <path
       style="fill:#999999;stroke:#686868;stroke-width:0.26458329px;stroke-linecap:butt;stroke-linejoin:miter;stroke-opacity:1;marker-end:url(#marker12565)"
       d="m 87.315981,160.71895 0.205816,32.65681"
       id="path12561"
       inkscape:connector-curvature="0" />
    <g
       id="g13269"
       style="font-style:normal;font-variant:normal;font-weight:normal;font-stretch:normal;font-size:4.23333311px;line-height:1.25;font-family:'Latin Modern Math';-inkscape-font-specification:'Latin Modern Math';letter-spacing:0px;word-spacing:0px;fill:#000000;fill-opacity:1;stroke:none;stroke-width:0.26458332"
       aria-label="58°"
       transform="translate(7.5595238,-62.366071)">
      <g
         aria-label="0°"
         style="font-style:normal;font-variant:normal;font-weight:normal;font-stretch:normal;font-size:4.23333311px;line-height:1.25;font-family:'Latin Modern Math';-inkscape-font-specification:'Latin Modern Math';letter-spacing:0px;word-spacing:0px;fill:#000000;fill-opacity:1;stroke:none;stroke-width:0.07000434"
         id="text13273">
        <path
           d="m 83.590194,243.10665 c 0,-0.33866 -0.02117,-0.67733 -0.169334,-0.9906 -0.194733,-0.4064 -0.541866,-0.47413 -0.719666,-0.47413 -0.254,0 -0.563034,0.11007 -0.7366,0.50377 -0.135467,0.2921 -0.156634,0.6223 -0.156634,0.96096 0,0.3175 0.01693,0.6985 0.1905,1.02024 0.182034,0.3429 0.491067,0.42756 0.6985,0.42756 0.2286,0 0.550334,-0.0889 0.7366,-0.49106 0.135467,-0.2921 0.156634,-0.6223 0.156634,-0.95674 z m -0.351367,-0.0508 c 0,0.3175 0,0.60537 -0.04657,0.8763 -0.0635,0.40217 -0.3048,0.52917 -0.4953,0.52917 -0.1651,0 -0.414866,-0.10583 -0.491066,-0.51223 -0.04657,-0.254 -0.04657,-0.64347 -0.04657,-0.89324 0,-0.27093 0,-0.55033 0.03387,-0.77893 0.08043,-0.50377 0.397933,-0.54187 0.503766,-0.54187 0.1397,0 0.4191,0.0762 0.499534,0.4953 0.04233,0.23707 0.04233,0.5588 0.04233,0.8255 z"
           style="stroke-width:0.07000434"
           id="path13275" />
        <path
           d="m 85.139594,242.15839 c 0,-0.32597 -0.262467,-0.58844 -0.5842,-0.58844 -0.325967,0 -0.588434,0.26247 -0.588434,0.58844 0,0.32173 0.262467,0.5842 0.588434,0.5842 0.321733,0 0.5842,-0.26247 0.5842,-0.5842 z m -0.169334,0 c 0,0.2286 -0.186266,0.41486 -0.414866,0.41486 -0.232834,0 -0.4191,-0.18626 -0.4191,-0.41486 0,-0.23284 0.186266,-0.4191 0.4191,-0.4191 0.2286,0 0.414866,0.18626 0.414866,0.4191 z"
           style="stroke-width:0.07000434"
           id="path13277" />
      </g>
    </g>
    <g
       aria-label="-"
       style="font-style:normal;font-variant:normal;font-weight:normal;font-stretch:normal;font-size:4.23333311px;line-height:1.25;font-family:'Latin Modern Math';-inkscape-font-specification:'Latin Modern Math';letter-spacing:0px;word-spacing:0px;fill:#000000;fill-opacity:1;stroke:none;stroke-width:0.26458332"
       id="text13288"
       transform="translate(126.5384,14.586707)">
      <path
         d="m -55.150051,194.53277 v -0.24553 h -1.121833 v 0.24553 z"
         style="stroke-width:0.26458332"
         id="path13290"
         inkscape:connector-curvature="0" />
    </g>
    <g
       transform="translate(138.29826,49.46538)"
       id="g13295"
       style="font-style:normal;font-variant:normal;font-weight:normal;font-stretch:normal;font-size:4.23333311px;line-height:1.25;font-family:'Latin Modern Math';-inkscape-font-specification:'Latin Modern Math';letter-spacing:0px;word-spacing:0px;fill:#000000;fill-opacity:1;stroke:none;stroke-width:0.26458332"
       aria-label="-">
      <path
         inkscape:connector-curvature="0"
         id="path13293"
         style="stroke-width:0.26458332"
         d="m -55.150051,194.53277 v -0.24553 h -1.121833 v 0.24553 z" />
    </g>
  </g>
</svg>
