<?xml version="1.0" encoding="UTF-8" standalone="no"?>
<!-- Created with Inkscape (http://www.inkscape.org/) -->

<svg
   xmlns:dc="http://purl.org/dc/elements/1.1/"
   xmlns:cc="http://creativecommons.org/ns#"
   xmlns:rdf="http://www.w3.org/1999/02/22-rdf-syntax-ns#"
   xmlns:svg="http://www.w3.org/2000/svg"
   xmlns="http://www.w3.org/2000/svg"
   xmlns:sodipodi="http://sodipodi.sourceforge.net/DTD/sodipodi-0.dtd"
   xmlns:inkscape="http://www.inkscape.org/namespaces/inkscape"
   width="40mm"
   height="42mm"
   viewBox="0 0 40 42"
   version="1.1"
   id="svg1285"
   inkscape:version="0.92.2 (5c3e80d, 2017-08-06)"
   sodipodi:docname="parallelRLphasor.svg">
  <defs
     id="defs1279">
    <marker
       inkscape:stockid="Arrow1Mend"
       orient="auto"
       refY="0"
       refX="0"
       id="marker3132"
       style="overflow:visible"
       inkscape:isstock="true">
      <path
         id="path3130"
         d="M 0,0 5,-5 -12.5,0 5,5 Z"
         style="fill:#000000;fill-opacity:1;fill-rule:evenodd;stroke:#000000;stroke-width:1.00000003pt;stroke-opacity:1"
         transform="matrix(-0.4,0,0,-0.4,-4,0)"
         inkscape:connector-curvature="0" />
    </marker>
    <marker
       inkscape:stockid="Arrow1Mend"
       orient="auto"
       refY="0"
       refX="0"
       id="marker2820"
       style="overflow:visible"
       inkscape:isstock="true">
      <path
         id="path2818"
         d="M 0,0 5,-5 -12.5,0 5,5 Z"
         style="fill:#000000;fill-opacity:1;fill-rule:evenodd;stroke:#000000;stroke-width:1.00000003pt;stroke-opacity:1"
         transform="matrix(-0.4,0,0,-0.4,-4,0)"
         inkscape:connector-curvature="0" />
    </marker>
    <marker
       inkscape:stockid="Arrow1Mend"
       orient="auto"
       refY="0"
       refX="0"
       id="marker2460"
       style="overflow:visible"
       inkscape:isstock="true">
      <path
         id="path2458"
         d="M 0,0 5,-5 -12.5,0 5,5 Z"
         style="fill:#000000;fill-opacity:1;fill-rule:evenodd;stroke:#000000;stroke-width:1.00000003pt;stroke-opacity:1"
         transform="matrix(-0.4,0,0,-0.4,-4,0)"
         inkscape:connector-curvature="0" />
    </marker>
    <marker
       inkscape:isstock="true"
       style="overflow:visible"
       id="marker2412"
       refX="0"
       refY="0"
       orient="auto"
       inkscape:stockid="Arrow1Mend"
       inkscape:collect="always">
      <path
         transform="matrix(-0.4,0,0,-0.4,-4,0)"
         style="fill:#000000;fill-opacity:1;fill-rule:evenodd;stroke:#000000;stroke-width:1.00000003pt;stroke-opacity:1"
         d="M 0,0 5,-5 -12.5,0 5,5 Z"
         id="path2410"
         inkscape:connector-curvature="0" />
    </marker>
    <marker
       inkscape:stockid="Arrow1Mend"
       orient="auto"
       refY="0"
       refX="0"
       id="Arrow1Mend"
       style="overflow:visible"
       inkscape:isstock="true"
       inkscape:collect="always">
      <path
         id="path1841"
         d="M 0,0 5,-5 -12.5,0 5,5 Z"
         style="fill:#000000;fill-opacity:1;fill-rule:evenodd;stroke:#000000;stroke-width:1.00000003pt;stroke-opacity:1"
         transform="matrix(-0.4,0,0,-0.4,-4,0)"
         inkscape:connector-curvature="0" />
    </marker>
  </defs>
  <sodipodi:namedview
     id="base"
     pagecolor="#ffffff"
     bordercolor="#666666"
     borderopacity="1.0"
     inkscape:pageopacity="0.0"
     inkscape:pageshadow="2"
     inkscape:zoom="2.8"
     inkscape:cx="39.376417"
     inkscape:cy="50.452381"
     inkscape:document-units="mm"
     inkscape:current-layer="layer1"
     showgrid="false"
     inkscape:snap-global="false"
     inkscape:window-width="1920"
     inkscape:window-height="1101"
     inkscape:window-x="0"
     inkscape:window-y="28"
     inkscape:window-maximized="1"
     showguides="false" />
  <metadata
     id="metadata1282">
    <rdf:RDF>
      <cc:Work
         rdf:about="">
        <dc:format>image/svg+xml</dc:format>
        <dc:type
           rdf:resource="http://purl.org/dc/dcmitype/StillImage" />
        <dc:title></dc:title>
      </cc:Work>
    </rdf:RDF>
  </metadata>
  <g
     inkscape:label="Layer 1"
     inkscape:groupmode="layer"
     id="layer1"
     transform="translate(0,-255)">
    <path
       style="fill:none;stroke:#000000;stroke-width:0.26499999;stroke-linecap:butt;stroke-linejoin:miter;stroke-miterlimit:4;stroke-dasharray:none;stroke-opacity:1;marker-end:url(#Arrow1Mend)"
       d="M 4.8060067,269.30459 H 34.365317"
       id="path1830"
       inkscape:connector-curvature="0" />
    <g
       id="text2212"
       style="font-style:normal;font-variant:normal;font-weight:normal;font-stretch:normal;font-size:4.23333311px;line-height:1.25;font-family:'Latin Modern Math';-inkscape-font-specification:'Latin Modern Math';letter-spacing:0px;word-spacing:0px;fill:#000000;fill-opacity:1;stroke:none;stroke-width:0.26458332"
       aria-label="Vac"
       transform="translate(-3.6351395,-26.050355)">
      <path
         inkscape:connector-curvature="0"
         id="path4723"
         style="stroke-width:0.26458332"
         d="m 39.98533,281.83472 v -0.13124 c -0.131234,0.008 -0.300567,0.0127 -0.410633,0.0127 l -0.4826,-0.0127 v 0.13124 c 0.220133,0.004 0.309033,0.1143 0.309033,0.21166 0,0.0339 -0.0127,0.0593 -0.02117,0.0847 l -0.7747,2.04047 -0.808566,-2.13784 c -0.0254,-0.0593 -0.0254,-0.0762 -0.0254,-0.0762 0,-0.12276 0.2413,-0.12276 0.347133,-0.12276 v -0.13124 c -0.1524,0.0127 -0.4445,0.0127 -0.605367,0.0127 l -0.537633,-0.0127 v 0.13124 c 0.275167,0 0.3556,0 0.414867,0.16086 l 0.982133,2.59927 c 0.02963,0.0804 0.0508,0.0931 0.105833,0.0931 0.07197,0 0.08043,-0.0212 0.1016,-0.0804 l 0.944034,-2.4892 c 0.05927,-0.15663 0.173566,-0.2794 0.461433,-0.28363 z" />
      <path
         inkscape:connector-curvature="0"
         id="path4725"
         style="font-size:64.99999762%;baseline-shift:sub"
         d="m 41.399051,285.19662 v -0.1541 h -0.06879 v 0.1541 c 0,0.15959 -0.06879,0.1761 -0.09906,0.1761 -0.09081,0 -0.101812,-0.12382 -0.101812,-0.13758 v -0.55033 c 0,-0.11557 0,-0.22289 -0.09906,-0.3247 -0.107315,-0.10731 -0.244898,-0.15134 -0.376978,-0.15134 -0.225637,0 -0.415502,0.12933 -0.415502,0.31094 0,0.0826 0.05503,0.12933 0.126577,0.12933 0.07705,0 0.126576,-0.055 0.126576,-0.12658 0,-0.033 -0.01376,-0.12383 -0.140335,-0.12658 0.0743,-0.0963 0.209127,-0.12657 0.29718,-0.12657 0.134832,0 0.291677,0.10731 0.291677,0.35221 v 0.10181 c -0.140335,0.008 -0.332952,0.0165 -0.506307,0.0991 -0.206375,0.0936 -0.275166,0.23664 -0.275166,0.35772 0,0.22288 0.266911,0.29167 0.440266,0.29167 0.18161,0 0.308187,-0.11006 0.360469,-0.23939 0.01101,0.11007 0.0853,0.22564 0.21463,0.22564 0.05779,0 0.225636,-0.0385 0.225636,-0.26141 z m -0.459528,-0.14034 c 0,0.26141 -0.19812,0.35497 -0.321945,0.35497 -0.134832,0 -0.24765,-0.0963 -0.24765,-0.23389 0,-0.15135 0.11557,-0.37973 0.569595,-0.39624 z" />
      <path
         inkscape:connector-curvature="0"
         id="path4727"
         style="font-size:64.99999762%;baseline-shift:sub"
         d="m 42.587771,285.11407 c 0,-0.0275 -0.02752,-0.0275 -0.03577,-0.0275 -0.02477,0 -0.03027,0.011 -0.03577,0.0275 -0.0798,0.2559 -0.258657,0.28892 -0.360469,0.28892 -0.145838,0 -0.387985,-0.11832 -0.387985,-0.56134 0,-0.44852 0.225637,-0.56409 0.371475,-0.56409 0.02477,0 0.19812,0.003 0.294429,0.10181 -0.112819,0.008 -0.129329,0.0908 -0.129329,0.12658 0,0.0715 0.04953,0.12658 0.126577,0.12658 0.07154,0 0.126577,-0.0468 0.126577,-0.12933 0,-0.18712 -0.209127,-0.29443 -0.421005,-0.29443 -0.343959,0 -0.597112,0.29718 -0.597112,0.63839 0,0.35221 0.272415,0.62462 0.591608,0.62462 0.368724,0 0.456777,-0.3302 0.456777,-0.35771 z" />
    </g>
    <path
       style="fill:none;stroke:#000000;stroke-width:0.36500001;stroke-linecap:butt;stroke-linejoin:miter;stroke-miterlimit:4;stroke-dasharray:none;stroke-opacity:1;marker-end:url(#marker2412)"
       d="m 4.9005009,269.45425 v 22.71789"
       id="path2402"
       inkscape:connector-curvature="0" />
    <path
       inkscape:connector-curvature="0"
       id="path2456"
       d="M 4.8060066,269.30459 H 27.523907"
       style="fill:none;stroke:#000000;stroke-width:0.36500001;stroke-linecap:butt;stroke-linejoin:miter;stroke-miterlimit:4;stroke-dasharray:none;stroke-opacity:1;marker-end:url(#marker2460)" />
    <g
       id="text2808"
       style="font-style:normal;font-variant:normal;font-weight:normal;font-stretch:normal;font-size:4.72808456px;line-height:1.25;font-family:'Latin Modern Math';-inkscape-font-specification:'Latin Modern Math';letter-spacing:0px;word-spacing:0px;fill:#000000;fill-opacity:1;stroke:none;stroke-width:0.26458332"
       transform="matrix(1.1168704,0,0,0.89535903,-9.334045,-21.252924)"
       aria-label="IR">
      <path
         inkscape:connector-curvature="0"
         id="path4735"
         style="stroke-width:0.26458332"
         d="m 21.88888,322.30756 v -0.14657 h -0.12293 c -0.373518,0 -0.387703,-0.052 -0.387703,-0.22222 v -2.49171 c 0,-0.17021 0.01418,-0.22221 0.387703,-0.22221 h 0.12293 v -0.14658 c -0.165482,0.0142 -0.539001,0.0142 -0.718668,0.0142 -0.184396,0 -0.557914,0 -0.723397,-0.0142 v 0.14658 h 0.12293 c 0.373519,0 0.387703,0.052 0.387703,0.22221 v 2.49171 c 0,0.17021 -0.01418,0.22222 -0.387703,0.22222 h -0.12293 v 0.14657 c 0.165483,-0.0142 0.539001,-0.0142 0.718669,-0.0142 0.184395,0 0.557914,0 0.723396,0.0142 z" />
      <path
         inkscape:connector-curvature="0"
         id="path4737"
         style="font-size:3.07325459px;baseline-shift:sub;stroke-width:0.26458332"
         d="m 24.272441,322.98273 c 0,-0.0184 0,-0.0523 -0.03995,-0.0523 -0.03381,0 -0.03381,0.0277 -0.03688,0.0492 -0.01844,0.2182 -0.126003,0.27352 -0.202835,0.27352 -0.150589,0 -0.175175,-0.15673 -0.218201,-0.44255 l -0.03995,-0.24586 c -0.05532,-0.19668 -0.205908,-0.2981 -0.374937,-0.35649 0.298106,-0.0738 0.53782,-0.26123 0.53782,-0.50094 0,-0.29504 -0.350352,-0.55319 -0.80212,-0.55319 h -0.965002 v 0.0953 h 0.07376 c 0.236641,0 0.242787,0.0338 0.242787,0.14444 v 1.61961 c 0,0.11064 -0.0061,0.14444 -0.242787,0.14444 h -0.07376 v 0.0953 c 0.110637,-0.009 0.328838,-0.009 0.448695,-0.009 0.119857,0 0.338058,0 0.448695,0.009 v -0.0953 h -0.07376 c -0.23664,0 -0.242787,-0.0338 -0.242787,-0.14444 v -0.77753 h 0.353425 c 0.04917,0 0.178248,0 0.285812,0.10449 0.116784,0.11063 0.116784,0.2059 0.116784,0.41181 0,0.19976 0,0.32269 0.126003,0.43948 0.126004,0.11064 0.295033,0.12907 0.38723,0.12907 0.239714,0 0.29196,-0.252 0.29196,-0.33805 z m -0.691483,-1.2754 c 0,0.21205 -0.07376,0.46098 -0.5286,0.46098 h -0.341131 v -0.79597 c 0,-0.0707 0,-0.10756 0.06761,-0.11678 0.03073,-0.006 0.119857,-0.006 0.181322,-0.006 0.276593,0 0.620797,0.0123 0.620797,0.45792 z" />
    </g>
    <path
       inkscape:connector-curvature="0"
       id="path2816"
       d="m 27.88368,269.02109 v 22.7179"
       style="fill:none;stroke:#000000;stroke-width:0.26458332;stroke-linecap:butt;stroke-linejoin:miter;stroke-miterlimit:4;stroke-dasharray:0.26458332, 0.26458332;stroke-dashoffset:0;stroke-opacity:1;marker-end:url(#marker2820)" />
    <path
       inkscape:connector-curvature="0"
       id="path3128"
       d="M 4.9974199,269.29872 27.350698,291.88298"
       style="fill:none;stroke:#000000;stroke-width:0.36500001;stroke-linecap:butt;stroke-linejoin:miter;stroke-miterlimit:4;stroke-dasharray:none;stroke-opacity:1;marker-end:url(#marker3132)"
       sodipodi:nodetypes="cc" />
    <path
       style="fill:none;stroke:#000000;stroke-width:0.26458332px;stroke-linecap:butt;stroke-linejoin:miter;stroke-opacity:1"
       d="m 11.738127,275.5994 c 0,0 2.456845,-2.03162 2.409598,-6.14211"
       id="path4163"
       inkscape:connector-curvature="0"
       sodipodi:nodetypes="cc" />
    <path
       style="fill:none;stroke:#000000;stroke-width:0.26458332px;stroke-linecap:butt;stroke-linejoin:miter;stroke-opacity:1"
       d="m 15.754125,270.6444 -1.457087,5.43792 h 3.205226"
       id="path4165"
       inkscape:connector-curvature="0" />
    <g
       id="text4579"
       style="font-style:normal;font-variant:normal;font-weight:normal;font-stretch:normal;font-size:4.23333311px;line-height:1.25;font-family:'Latin Modern Math';-inkscape-font-specification:'Latin Modern Math';letter-spacing:0px;word-spacing:0px;fill:#000000;fill-opacity:1;stroke:none;stroke-width:0.26458332"
       aria-label="Iac"
       transform="translate(1.7217584,35.443505)">
      <path
         inkscape:connector-curvature="0"
         id="path4740"
         style="stroke-width:0.26458332"
         d="m 25.170022,260.0264 v -0.13124 h -0.110066 c -0.334433,0 -0.347133,-0.0466 -0.347133,-0.19896 v -2.23097 c 0,-0.1524 0.0127,-0.19897 0.347133,-0.19897 h 0.110066 v -0.13123 c -0.148166,0.0127 -0.482599,0.0127 -0.643466,0.0127 -0.1651,0 -0.499533,0 -0.6477,-0.0127 v 0.13123 h 0.110067 c 0.334433,0 0.347133,0.0466 0.347133,0.19897 v 2.23097 c 0,0.1524 -0.0127,0.19896 -0.347133,0.19896 h -0.110067 v 0.13124 c 0.148167,-0.0127 0.4826,-0.0127 0.643467,-0.0127 0.1651,0 0.499533,0 0.647699,0.0127 z" />
      <path
         inkscape:connector-curvature="0"
         id="path4742"
         style="font-size:64.99999762%;baseline-shift:sub"
         d="m 26.619,260.62817 v -0.1541 h -0.06879 v 0.1541 c 0,0.15959 -0.06879,0.1761 -0.09906,0.1761 -0.0908,0 -0.101812,-0.12382 -0.101812,-0.13758 v -0.55033 c 0,-0.11557 0,-0.22289 -0.09906,-0.3247 -0.107315,-0.10732 -0.244898,-0.15134 -0.376978,-0.15134 -0.225636,0 -0.415501,0.12933 -0.415501,0.31094 0,0.0826 0.05503,0.12932 0.126576,0.12932 0.07705,0 0.126577,-0.055 0.126577,-0.12657 0,-0.033 -0.01376,-0.12383 -0.140335,-0.12658 0.07429,-0.0963 0.209126,-0.12658 0.29718,-0.12658 0.134831,0 0.291676,0.10732 0.291676,0.35222 v 0.10181 c -0.140335,0.008 -0.332951,0.0165 -0.506306,0.0991 -0.206375,0.0936 -0.275167,0.23664 -0.275167,0.35772 0,0.22288 0.266912,0.29167 0.440267,0.29167 0.18161,0 0.308186,-0.11006 0.360468,-0.23939 0.01101,0.11006 0.0853,0.22563 0.21463,0.22563 0.05778,0 0.225637,-0.0385 0.225637,-0.2614 z m -0.459529,-0.14034 c 0,0.26141 -0.19812,0.35497 -0.321945,0.35497 -0.134831,0 -0.247649,-0.0963 -0.247649,-0.2339 0,-0.15134 0.115569,-0.37973 0.569594,-0.39624 z" />
      <path
         inkscape:connector-curvature="0"
         id="path4744"
         style="font-size:64.99999762%;baseline-shift:sub"
         d="m 27.80772,260.54562 c 0,-0.0275 -0.02752,-0.0275 -0.03577,-0.0275 -0.02476,0 -0.03027,0.011 -0.03577,0.0275 -0.0798,0.2559 -0.258656,0.28892 -0.360468,0.28892 -0.145838,0 -0.387985,-0.11832 -0.387985,-0.56134 0,-0.44852 0.225637,-0.56409 0.371475,-0.56409 0.02477,0 0.19812,0.003 0.294428,0.10181 -0.112818,0.008 -0.129328,0.0908 -0.129328,0.12658 0,0.0715 0.04953,0.12657 0.126577,0.12657 0.07154,0 0.126576,-0.0468 0.126576,-0.12932 0,-0.18712 -0.209126,-0.29443 -0.421005,-0.29443 -0.343958,0 -0.597111,0.29718 -0.597111,0.63838 0,0.35222 0.272415,0.62463 0.591608,0.62463 0.368723,0 0.456777,-0.3302 0.456777,-0.35771 z" />
    </g>
    <g
       id="g5678"
       transform="rotate(90,9.6859608,280.45949)">
      <path
         inkscape:connector-curvature="0"
         id="path4146"
         d="m 10.070684,275.70718 2.456307,2.48808"
         style="fill:none;stroke:#000000;stroke-width:0.26458332px;stroke-linecap:butt;stroke-linejoin:miter;stroke-opacity:1" />
      <path
         style="fill:none;stroke:#000000;stroke-width:0.26458332px;stroke-linecap:butt;stroke-linejoin:miter;stroke-opacity:1"
         d="m 13.459851,272.36129 2.456307,2.48808"
         id="path4148"
         inkscape:connector-curvature="0" />
      <g
         aria-label="Iac"
         transform="rotate(-45,5.9807885,7.9040559)"
         style="font-style:normal;font-variant:normal;font-weight:normal;font-stretch:normal;font-size:4.23333311px;line-height:1.25;font-family:'Latin Modern Math';-inkscape-font-specification:'Latin Modern Math';letter-spacing:0px;word-spacing:0px;fill:#000000;fill-opacity:1;stroke:none;stroke-width:0.26458332"
         id="text4585">
        <path
           d="m -178.78337,203.43767 v -0.13124 h -0.11007 c -0.33443,0 -0.34713,-0.0466 -0.34713,-0.19896 v -2.23097 c 0,-0.1524 0.0127,-0.19897 0.34713,-0.19897 h 0.11007 v -0.13123 c -0.14817,0.0127 -0.4826,0.0127 -0.64347,0.0127 -0.1651,0 -0.49953,0 -0.6477,-0.0127 v 0.13123 h 0.11007 c 0.33443,0 0.34713,0.0466 0.34713,0.19897 v 2.23097 c 0,0.1524 -0.0127,0.19896 -0.34713,0.19896 h -0.11007 v 0.13124 c 0.14817,-0.0127 0.4826,-0.0127 0.64347,-0.0127 0.1651,0 0.49953,0 0.6477,0.0127 z"
           style="stroke-width:0.26458332"
           id="path4747"
           inkscape:connector-curvature="0" />
        <path
           d="m -177.33439,204.03944 v -0.1541 h -0.0688 v 0.1541 c 0,0.15959 -0.0688,0.1761 -0.0991,0.1761 -0.0908,0 -0.10182,-0.12382 -0.10182,-0.13758 v -0.55033 c 0,-0.11557 0,-0.22289 -0.0991,-0.3247 -0.10731,-0.10732 -0.24489,-0.15134 -0.37697,-0.15134 -0.22564,0 -0.41551,0.12933 -0.41551,0.31094 0,0.0825 0.055,0.12932 0.12658,0.12932 0.0771,0 0.12658,-0.055 0.12658,-0.12657 0,-0.033 -0.0138,-0.12383 -0.14034,-0.12658 0.0743,-0.0963 0.20913,-0.12658 0.29718,-0.12658 0.13483,0 0.29168,0.10732 0.29168,0.35222 v 0.10181 c -0.14034,0.008 -0.33295,0.0165 -0.50631,0.0991 -0.20637,0.0936 -0.27516,0.23664 -0.27516,0.35772 0,0.22288 0.26691,0.29167 0.44026,0.29167 0.18161,0 0.30819,-0.11006 0.36047,-0.23939 0.011,0.11006 0.0853,0.22563 0.21463,0.22563 0.0578,0 0.22564,-0.0385 0.22564,-0.2614 z m -0.45953,-0.14034 c 0,0.26141 -0.19812,0.35497 -0.32195,0.35497 -0.13483,0 -0.24765,-0.0963 -0.24765,-0.2339 0,-0.15134 0.11557,-0.37973 0.5696,-0.39624 z"
           style="font-size:64.99999762%;baseline-shift:sub"
           id="path4749"
           inkscape:connector-curvature="0" />
        <path
           d="m -176.14567,203.95689 c 0,-0.0275 -0.0275,-0.0275 -0.0358,-0.0275 -0.0248,0 -0.0303,0.011 -0.0358,0.0275 -0.0798,0.2559 -0.25865,0.28892 -0.36046,0.28892 -0.14584,0 -0.38799,-0.11832 -0.38799,-0.56134 0,-0.44852 0.22564,-0.56409 0.37148,-0.56409 0.0248,0 0.19812,0.003 0.29442,0.10181 -0.11281,0.008 -0.12932,0.0908 -0.12932,0.12658 0,0.0715 0.0495,0.12657 0.12657,0.12657 0.0715,0 0.12658,-0.0468 0.12658,-0.12932 0,-0.18712 -0.20913,-0.29443 -0.42101,-0.29443 -0.34395,0 -0.59711,0.29718 -0.59711,0.63838 0,0.35222 0.27242,0.62463 0.59161,0.62463 0.36872,0 0.45678,-0.3302 0.45678,-0.35771 z"
           style="font-size:64.99999762%;baseline-shift:sub"
           id="path4751"
           inkscape:connector-curvature="0" />
      </g>
    </g>
    <g
       id="text4596"
       style="font-style:normal;font-variant:normal;font-weight:normal;font-stretch:normal;font-size:4.23333311px;line-height:1.25;font-family:'Latin Modern Math';-inkscape-font-specification:'Latin Modern Math';letter-spacing:0px;word-spacing:0px;fill:#000000;fill-opacity:1;stroke:none;stroke-width:0.26458332"
       aria-label="Iac"
       transform="translate(-1.6800273,-5.472418)">
      <path
         inkscape:connector-curvature="0"
         id="path4754"
         style="stroke-width:0.26458332"
         d="m 19.500379,280.24814 v -0.13123 h -0.110067 c -0.334433,0 -0.347133,-0.0466 -0.347133,-0.19897 v -2.23097 c 0,-0.1524 0.0127,-0.19896 0.347133,-0.19896 h 0.110067 v -0.13124 c -0.148167,0.0127 -0.4826,0.0127 -0.643467,0.0127 -0.1651,0 -0.499533,0 -0.6477,-0.0127 v 0.13124 h 0.110067 c 0.334433,0 0.347133,0.0466 0.347133,0.19896 v 2.23097 c 0,0.1524 -0.0127,0.19897 -0.347133,0.19897 h -0.110067 v 0.13123 c 0.148167,-0.0127 0.4826,-0.0127 0.643467,-0.0127 0.1651,0 0.499533,0 0.6477,0.0127 z" />
      <path
         inkscape:connector-curvature="0"
         id="path4756"
         style="font-size:64.99999762%;baseline-shift:sub"
         d="m 20.949356,280.84991 v -0.1541 h -0.06879 v 0.1541 c 0,0.15959 -0.06879,0.1761 -0.09906,0.1761 -0.0908,0 -0.101812,-0.12382 -0.101812,-0.13758 v -0.55033 c 0,-0.11557 0,-0.22289 -0.09906,-0.3247 -0.107315,-0.10731 -0.244898,-0.15134 -0.376978,-0.15134 -0.225637,0 -0.415502,0.12933 -0.415502,0.31094 0,0.0826 0.05503,0.12933 0.126577,0.12933 0.07705,0 0.126576,-0.055 0.126576,-0.12658 0,-0.033 -0.01376,-0.12383 -0.140335,-0.12658 0.0743,-0.0963 0.209127,-0.12657 0.29718,-0.12657 0.134832,0 0.291677,0.10731 0.291677,0.35221 v 0.10181 c -0.140335,0.008 -0.332952,0.0165 -0.506307,0.0991 -0.206375,0.0936 -0.275166,0.23664 -0.275166,0.35772 0,0.22288 0.266911,0.29167 0.440266,0.29167 0.18161,0 0.308187,-0.11006 0.360469,-0.23939 0.01101,0.11007 0.0853,0.22564 0.21463,0.22564 0.05778,0 0.225636,-0.0385 0.225636,-0.26141 z m -0.459528,-0.14034 c 0,0.26141 -0.19812,0.35497 -0.321945,0.35497 -0.134832,0 -0.24765,-0.0963 -0.24765,-0.23389 0,-0.15135 0.11557,-0.37973 0.569595,-0.39624 z" />
      <path
         inkscape:connector-curvature="0"
         id="path4758"
         style="font-size:64.99999762%;baseline-shift:sub"
         d="m 22.138076,280.76736 c 0,-0.0275 -0.02752,-0.0275 -0.03577,-0.0275 -0.02477,0 -0.03027,0.011 -0.03577,0.0275 -0.0798,0.2559 -0.258657,0.28892 -0.360468,0.28892 -0.145839,0 -0.387985,-0.11832 -0.387985,-0.56134 0,-0.44852 0.225636,-0.56409 0.371475,-0.56409 0.02477,0 0.19812,0.003 0.294428,0.10181 -0.112818,0.008 -0.129328,0.0908 -0.129328,0.12658 0,0.0715 0.04953,0.12658 0.126576,0.12658 0.07154,0 0.126577,-0.0468 0.126577,-0.12933 0,-0.18712 -0.209127,-0.29443 -0.421005,-0.29443 -0.343958,0 -0.597112,0.29718 -0.597112,0.63839 0,0.35221 0.272415,0.62462 0.591609,0.62462 0.368723,0 0.456776,-0.3302 0.456776,-0.35771 z" />
    </g>
    <g
       aria-label="VL"
       style="font-style:normal;font-variant:normal;font-weight:normal;font-stretch:normal;font-size:4.23333311px;line-height:1.25;font-family:'Latin Modern Math';-inkscape-font-specification:'Latin Modern Math';letter-spacing:0px;word-spacing:0px;fill:#000000;fill-opacity:1;stroke:none;stroke-width:0.26458332"
       id="text5086">
      <path
         d="m 36.350187,260.1311 v -0.13123 c -0.131234,0.008 -0.300567,0.0127 -0.410634,0.0127 l -0.4826,-0.0127 v 0.13123 c 0.220134,0.004 0.309034,0.1143 0.309034,0.21167 0,0.0339 -0.0127,0.0593 -0.02117,0.0847 l -0.7747,2.04046 -0.808567,-2.13783 c -0.0254,-0.0593 -0.0254,-0.0762 -0.0254,-0.0762 0,-0.12277 0.2413,-0.12277 0.347134,-0.12277 v -0.13123 c -0.1524,0.0127 -0.4445,0.0127 -0.605367,0.0127 l -0.537633,-0.0127 v 0.13123 c 0.275166,0 0.3556,0 0.414866,0.16087 l 0.982134,2.59927 c 0.02963,0.0804 0.0508,0.0931 0.105833,0.0931 0.07197,0 0.08043,-0.0212 0.1016,-0.0804 l 0.944033,-2.4892 c 0.05927,-0.15664 0.173567,-0.2794 0.461434,-0.28364 z"
         style="stroke-width:0.26458332"
         id="path6266" />
      <path
         d="m 38.036323,263.02797 h -0.06879 c -0.03027,0.28067 -0.06879,0.62463 -0.553085,0.62463 H 37.18881 c -0.129329,0 -0.134832,-0.0193 -0.134832,-0.11007 v -1.46663 c 0,-0.0936 0,-0.13208 0.261408,-0.13208 h 0.09081 v -0.0853 c -0.09906,0.008 -0.349461,0.008 -0.46228,0.008 -0.107315,0 -0.321945,0 -0.418253,-0.008 v 0.0853 h 0.06604 c 0.211878,0 0.217382,0.0303 0.217382,0.12932 v 1.45013 c 0,0.0991 -0.0055,0.12933 -0.217382,0.12933 h -0.06604 v 0.0853 h 1.433618 z"
         style="font-size:64.99999762%;baseline-shift:sub"
         id="path6268" />
    </g>
    <g
       aria-label="VR"
       style="font-style:normal;font-variant:normal;font-weight:normal;font-stretch:normal;font-size:4.23333311px;line-height:1.25;font-family:'Latin Modern Math';-inkscape-font-specification:'Latin Modern Math';letter-spacing:0px;word-spacing:0px;fill:#000000;fill-opacity:1;stroke:none;stroke-width:0.26458332"
       id="text5094">
      <path
         d="m 36.350187,265.04477 v -0.13124 c -0.131234,0.008 -0.300567,0.0127 -0.410634,0.0127 l -0.4826,-0.0127 v 0.13124 c 0.220134,0.004 0.309034,0.1143 0.309034,0.21166 0,0.0339 -0.0127,0.0593 -0.02117,0.0847 l -0.7747,2.04047 -0.808567,-2.13784 c -0.0254,-0.0593 -0.0254,-0.0762 -0.0254,-0.0762 0,-0.12276 0.2413,-0.12276 0.347134,-0.12276 v -0.13124 c -0.1524,0.0127 -0.4445,0.0127 -0.605367,0.0127 l -0.537633,-0.0127 v 0.13124 c 0.275166,0 0.3556,0 0.414866,0.16086 l 0.982134,2.59927 c 0.02963,0.0804 0.0508,0.0931 0.105833,0.0931 0.07197,0 0.08043,-0.0212 0.1016,-0.0804 l 0.944033,-2.4892 c 0.05927,-0.15663 0.173567,-0.2794 0.461434,-0.28363 z"
         style="stroke-width:0.26458332"
         id="path6261" />
      <path
         d="m 38.449073,268.40942 c 0,-0.0165 0,-0.0468 -0.03577,-0.0468 -0.03027,0 -0.03027,0.0248 -0.03302,0.044 -0.01651,0.19537 -0.112818,0.2449 -0.18161,0.2449 -0.134831,0 -0.156845,-0.14034 -0.195368,-0.39624 l -0.03577,-0.22014 c -0.04953,-0.1761 -0.184361,-0.26691 -0.335703,-0.31919 0.266912,-0.066 0.481542,-0.23389 0.481542,-0.44852 0,-0.26416 -0.31369,-0.4953 -0.718185,-0.4953 h -0.864024 v 0.0853 h 0.06604 c 0.211879,0 0.217382,0.0303 0.217382,0.12933 v 1.45013 c 0,0.0991 -0.0055,0.12933 -0.217382,0.12933 h -0.06604 v 0.0853 c 0.09906,-0.008 0.294429,-0.008 0.401744,-0.008 0.107315,0 0.302683,0 0.401743,0.008 v -0.0853 h -0.06604 c -0.211878,0 -0.217382,-0.0303 -0.217382,-0.12933 v -0.69617 h 0.316442 c 0.04403,0 0.159597,0 0.255905,0.0935 0.104563,0.0991 0.104563,0.18436 0.104563,0.36873 0,0.17885 0,0.28892 0.112819,0.39348 0.112818,0.0991 0.26416,0.11557 0.34671,0.11557 0.214629,0 0.261408,-0.22563 0.261408,-0.30268 z m -0.619125,-1.14194 c 0,0.18986 -0.06604,0.41275 -0.473287,0.41275 h -0.305435 v -0.71268 c 0,-0.0633 0,-0.0963 0.06054,-0.10457 0.02752,-0.005 0.107315,-0.005 0.162348,-0.005 0.24765,0 0.555837,0.011 0.555837,0.41 z"
         style="font-size:64.99999762%;baseline-shift:sub"
         id="path6263" />
    </g>
    <g
       aria-label="IL"
       style="font-style:normal;font-variant:normal;font-weight:normal;font-stretch:normal;font-size:4.23333311px;line-height:1.25;font-family:'Latin Modern Math';-inkscape-font-specification:'Latin Modern Math';letter-spacing:0px;word-spacing:0px;fill:#000000;fill-opacity:1;stroke:none;stroke-width:0.26458332"
       id="text6176">
      <path
         d="m 2.3385321,281.979 v -0.13123 H 2.2284654 c -0.3344333,0 -0.3471333,-0.0466 -0.3471333,-0.19897 v -2.23096 c 0,-0.1524 0.0127,-0.19897 0.3471333,-0.19897 h 0.1100667 v -0.13123 c -0.1481667,0.0127 -0.4826,0.0127 -0.6434666,0.0127 -0.1651,0 -0.4995333,0 -0.6477,-0.0127 v 0.13123 h 0.1100667 c 0.3344333,0 0.3471333,0.0466 0.3471333,0.19897 v 2.23096 c 0,0.1524 -0.0127,0.19897 -0.3471333,0.19897 H 1.0473655 v 0.13123 c 0.1481667,-0.0127 0.4826,-0.0127 0.6434666,-0.0127 0.1651,0 0.4995333,0 0.6477,0.0127 z"
         style="stroke-width:0.26458332"
         id="path6256" />
      <path
         d="m 4.0599243,282.11574 h -0.068792 c -0.030268,0.28067 -0.068792,0.62463 -0.5530849,0.62463 H 3.2124111 c -0.1293284,0 -0.1348317,-0.0193 -0.1348317,-0.11007 v -1.46664 c 0,-0.0935 0,-0.13208 0.2614083,-0.13208 h 0.090805 v -0.0853 c -0.09906,0.008 -0.3494616,0.008 -0.4622799,0.008 -0.107315,0 -0.321945,0 -0.4182533,-0.008 v 0.0853 h 0.06604 c 0.2118783,0 0.2173816,0.0303 0.2173816,0.12933 v 1.45013 c 0,0.0991 -0.0055,0.12933 -0.2173816,0.12933 h -0.06604 v 0.0853 h 1.4336181 z"
         style="font-size:64.99999762%;baseline-shift:sub"
         id="path6258" />
    </g>
  </g>
</svg>
