<?xml version="1.0" encoding="UTF-8" standalone="no"?>
<!-- Created with Inkscape (http://www.inkscape.org/) -->

<svg
   xmlns:dc="http://purl.org/dc/elements/1.1/"
   xmlns:cc="http://creativecommons.org/ns#"
   xmlns:rdf="http://www.w3.org/1999/02/22-rdf-syntax-ns#"
   xmlns:svg="http://www.w3.org/2000/svg"
   xmlns="http://www.w3.org/2000/svg"
   xmlns:sodipodi="http://sodipodi.sourceforge.net/DTD/sodipodi-0.dtd"
   xmlns:inkscape="http://www.inkscape.org/namespaces/inkscape"
   width="44mm"
   height="28mm"
   viewBox="0 0 44 28"
   version="1.1"
   id="svg8"
   inkscape:version="0.92.2 (5c3e80d, 2017-08-06)"
   sodipodi:docname="RC.svg">
  <defs
     id="defs2">
    <marker
       inkscape:stockid="Arrow2Mend"
       orient="auto"
       refY="0"
       refX="0"
       id="marker6552"
       style="overflow:visible"
       inkscape:isstock="true">
      <path
         id="path6550"
         style="fill:#161616;fill-opacity:1;fill-rule:evenodd;stroke:#161616;stroke-width:0.625;stroke-linejoin:round;stroke-opacity:1"
         d="M 8.7185878,4.0337352 -2.2072895,0.01601326 8.7185884,-4.0017078 c -1.7454984,2.3720609 -1.7354408,5.6174519 -6e-7,8.035443 z"
         transform="scale(-0.6)"
         inkscape:connector-curvature="0" />
    </marker>
    <marker
       inkscape:stockid="Arrow2Mend"
       orient="auto"
       refY="0"
       refX="0"
       id="marker6482"
       style="overflow:visible"
       inkscape:isstock="true">
      <path
         id="path1179"
         style="fill:#ffffff;fill-opacity:1;fill-rule:evenodd;stroke:#161616;stroke-width:0.625;stroke-linejoin:round;stroke-opacity:1"
         d="M 8.7185878,4.0337352 -2.2072895,0.01601326 8.7185884,-4.0017078 c -1.7454984,2.3720609 -1.7354408,5.6174519 -6e-7,8.035443 z"
         transform="scale(-0.6)"
         inkscape:connector-curvature="0" />
    </marker>
    <marker
       inkscape:isstock="true"
       style="overflow:visible"
       id="marker6383"
       refX="0"
       refY="0"
       orient="auto"
       inkscape:stockid="Arrow2Mend">
      <path
         inkscape:connector-curvature="0"
         transform="scale(-0.6)"
         d="M 8.7185878,4.0337352 -2.2072895,0.01601326 8.7185884,-4.0017078 c -1.7454984,2.3720609 -1.7354408,5.6174519 -6e-7,8.035443 z"
         style="fill:#ffffff;fill-opacity:1;fill-rule:evenodd;stroke:#161616;stroke-width:0.625;stroke-linejoin:round;stroke-opacity:1"
         id="path6381" />
    </marker>
    <marker
       inkscape:stockid="Arrow1Mend"
       orient="auto"
       refY="0"
       refX="0"
       id="marker4509"
       style="overflow:visible"
       inkscape:isstock="true">
      <path
         id="path4507"
         d="M 0,0 5,-5 -12.5,0 5,5 Z"
         style="fill:#ffffff;fill-opacity:1;fill-rule:evenodd;stroke:#161616;stroke-width:1.00000003pt;stroke-opacity:1"
         transform="matrix(-0.4,0,0,-0.4,-4,0)"
         inkscape:connector-curvature="0" />
    </marker>
    <marker
       inkscape:stockid="Arrow2Mstart"
       orient="auto"
       refY="0"
       refX="0"
       id="Arrow2Mstart"
       style="overflow:visible"
       inkscape:isstock="true">
      <path
         id="path851"
         style="fill:#ffffff;fill-opacity:1;fill-rule:evenodd;stroke:#161616;stroke-width:0.625;stroke-linejoin:round;stroke-opacity:1"
         d="M 8.7185878,4.0337352 -2.2072895,0.01601326 8.7185884,-4.0017078 c -1.7454984,2.3720609 -1.7354408,5.6174519 -6e-7,8.035443 z"
         transform="scale(0.6)"
         inkscape:connector-curvature="0" />
    </marker>
    <marker
       inkscape:stockid="Arrow2Mend"
       orient="auto"
       refY="0"
       refX="0"
       id="Arrow2Mend"
       style="overflow:visible"
       inkscape:isstock="true">
      <path
         id="path854"
         style="fill:#ffffff;fill-opacity:1;fill-rule:evenodd;stroke:#161616;stroke-width:0.625;stroke-linejoin:round;stroke-opacity:1"
         d="M 8.7185878,4.0337352 -2.2072895,0.01601326 8.7185884,-4.0017078 c -1.7454984,2.3720609 -1.7354408,5.6174519 -6e-7,8.035443 z"
         transform="scale(-0.6)"
         inkscape:connector-curvature="0" />
    </marker>
    <marker
       inkscape:stockid="Arrow2Mstart"
       orient="auto"
       refY="0"
       refX="0"
       id="Arrow2Mstart-2"
       style="overflow:visible"
       inkscape:isstock="true">
      <path
         id="path851-6"
         style="fill:#000000;fill-opacity:1;fill-rule:evenodd;stroke:#000000;stroke-width:0.625;stroke-linejoin:round;stroke-opacity:1"
         d="M 8.7185878,4.0337352 -2.2072895,0.01601326 8.7185884,-4.0017078 c -1.7454984,2.3720609 -1.7354408,5.6174519 -6e-7,8.035443 z"
         transform="scale(0.6)"
         inkscape:connector-curvature="0" />
    </marker>
    <marker
       inkscape:stockid="Arrow2Mend"
       orient="auto"
       refY="0"
       refX="0"
       id="Arrow2Mend-0"
       style="overflow:visible"
       inkscape:isstock="true">
      <path
         id="path854-4"
         style="fill:#ffffff;fill-opacity:1;fill-rule:evenodd;stroke:#161616;stroke-width:0.625;stroke-linejoin:round;stroke-opacity:1"
         d="M 8.7185878,4.0337352 -2.2072895,0.01601326 8.7185884,-4.0017078 c -1.7454984,2.3720609 -1.7354408,5.6174519 -6e-7,8.035443 z"
         transform="scale(-0.6)"
         inkscape:connector-curvature="0" />
    </marker>
    <marker
       inkscape:stockid="Arrow2Mstart"
       orient="auto"
       refY="0"
       refX="0"
       id="Arrow2Mstart-23"
       style="overflow:visible"
       inkscape:isstock="true">
      <path
         id="path851-62"
         style="fill:#000000;fill-opacity:1;fill-rule:evenodd;stroke:#000000;stroke-width:0.625;stroke-linejoin:round;stroke-opacity:1"
         d="M 8.7185878,4.0337352 -2.2072895,0.01601326 8.7185884,-4.0017078 c -1.7454984,2.3720609 -1.7354408,5.6174519 -6e-7,8.035443 z"
         transform="scale(0.6)"
         inkscape:connector-curvature="0" />
    </marker>
  </defs>
  <sodipodi:namedview
     id="base"
     pagecolor="#ffffff"
     bordercolor="#666666"
     borderopacity="1.0"
     inkscape:pageopacity="0.0"
     inkscape:pageshadow="2"
     inkscape:zoom="4.6023575"
     inkscape:cx="36.80097"
     inkscape:cy="52.657811"
     inkscape:document-units="mm"
     inkscape:current-layer="g7064"
     showgrid="false"
     inkscape:window-width="1920"
     inkscape:window-height="1101"
     inkscape:window-x="0"
     inkscape:window-y="28"
     inkscape:window-maximized="1"
     inkscape:snap-global="false" />
  <metadata
     id="metadata5">
    <rdf:RDF>
      <cc:Work
         rdf:about="">
        <dc:format>image/svg+xml</dc:format>
        <dc:type
           rdf:resource="http://purl.org/dc/dcmitype/StillImage" />
        <dc:title></dc:title>
      </cc:Work>
    </rdf:RDF>
  </metadata>
  <g
     inkscape:label="Layer 1"
     inkscape:groupmode="layer"
     id="layer1"
     transform="translate(0,-269)">
    <g
       id="g7064"
       transform="matrix(2,0,0,2,-2.8777425,-294.12909)">
      <path
         inkscape:connector-curvature="0"
         id="path6270"
         d="M 5.3789705,290.65501 H 7.1323751"
         style="fill:none;stroke:#000000;stroke-width:0.15000001;stroke-linecap:butt;stroke-linejoin:miter;stroke-miterlimit:4;stroke-dasharray:none;stroke-opacity:1" />
      <path
         inkscape:connector-curvature="0"
         id="path6272"
         d="M 4.617247,289.86877 H 8.1240533"
         style="fill:none;stroke:#000000;stroke-width:0.15000001;stroke-linecap:butt;stroke-linejoin:miter;stroke-miterlimit:4;stroke-dasharray:none;stroke-opacity:1" />
      <path
         inkscape:connector-curvature="0"
         id="path6286"
         d="m 6.1948772,289.82604 v -4.09393 H 16.915561 v 4.03461"
         style="fill:none;stroke:#000000;stroke-width:0.12283601;stroke-linecap:butt;stroke-linejoin:miter;stroke-miterlimit:4;stroke-dasharray:none;stroke-opacity:1" />
      <g
         transform="translate(0.97730669,3.0025341)"
         id="g6294">
        <path
           inkscape:connector-curvature="0"
           id="path6288"
           d="m 14.2462,287.77921 h 3.5076"
           style="fill:none;stroke:#000000;stroke-width:0.15000001;stroke-linecap:butt;stroke-linejoin:miter;stroke-miterlimit:4;stroke-dasharray:none;stroke-opacity:1" />
        <path
           inkscape:connector-curvature="0"
           id="path6290"
           d="m 14.246596,286.69375 h 3.506808"
           style="fill:none;stroke:#000000;stroke-width:0.15000001;stroke-linecap:butt;stroke-linejoin:miter;stroke-miterlimit:4;stroke-dasharray:none;stroke-opacity:1" />
      </g>
      <path
         style="fill:none;stroke:#000000;stroke-width:0.12704027;stroke-linecap:butt;stroke-linejoin:miter;stroke-miterlimit:4;stroke-dasharray:none;stroke-opacity:1"
         d="m 6.1963587,290.67519 v 4.38018 H 16.91408 v -4.31672"
         id="path6296"
         inkscape:connector-curvature="0" />
      <rect
         y="284.80469"
         x="9.4765387"
         height="1.7428336"
         width="4.0423799"
         id="rect6298"
         style="opacity:1;fill:#ffffff;fill-opacity:1;stroke:#161616;stroke-width:0.131826;stroke-miterlimit:4;stroke-dasharray:none;stroke-dashoffset:0;stroke-opacity:1" />
      <g
         aria-label="VS"
         style="font-style:normal;font-variant:normal;font-weight:normal;font-stretch:normal;font-size:4.23333311px;line-height:1.25;font-family:'Latin Modern Math';-inkscape-font-specification:'Latin Modern Math';letter-spacing:0px;word-spacing:0px;fill:#000000;fill-opacity:1;stroke:none;stroke-width:0.26458332"
         id="text6282">
        <path
           d="m 3.5374653,289.57114 v -0.0875 c -0.087489,0.006 -0.2003778,0.008 -0.2737556,0.008 l -0.3217333,-0.008 v 0.0875 c 0.1467556,0.003 0.2060222,0.0762 0.2060222,0.14111 0,0.0226 -0.00847,0.0395 -0.014111,0.0564 L 2.6174208,291.129 2.0783764,289.70378 c -0.016933,-0.0395 -0.016933,-0.0508 -0.016933,-0.0508 0,-0.0818 0.1608666,-0.0818 0.2314222,-0.0818 v -0.0875 c -0.1016,0.008 -0.2963333,0.008 -0.4035778,0.008 l -0.3584222,-0.008 v 0.0875 c 0.1834444,0 0.2370667,0 0.2765778,0.10724 l 0.6547555,1.73284 c 0.019756,0.0536 0.033867,0.0621 0.070556,0.0621 0.047978,0 0.053622,-0.0141 0.067733,-0.0536 l 0.6293556,-1.65947 c 0.039511,-0.10442 0.1157111,-0.18626 0.3076222,-0.18908 z"
           style="font-size:2.82222223px;stroke-width:0.26458332"
           id="path7073" />
        <path
           d="m 4.5092976,291.63446 c 0,-0.18344 -0.1210733,-0.33387 -0.2751666,-0.37056 l -0.2348089,-0.0569 c -0.1137356,-0.0275 -0.1852789,-0.12658 -0.1852789,-0.23298 0,-0.12841 0.09906,-0.24031 0.2421466,-0.24031 0.3063523,0 0.34671,0.30085 0.3577167,0.3834 0.00183,0.011 0.00183,0.022 0.022013,0.022 0.023848,0 0.023848,-0.009 0.023848,-0.044 v -0.36873 c 0,-0.0312 0,-0.044 -0.020179,-0.044 -0.012841,0 -0.014676,0.002 -0.027517,0.0238 l -0.064206,0.10457 c -0.055033,-0.0532 -0.1302455,-0.12841 -0.2935111,-0.12841 -0.2036233,0 -0.3577167,0.16143 -0.3577167,0.35588 0,0.15226 0.097226,0.28617 0.2403123,0.3357 0.020179,0.007 0.1137355,0.0294 0.2421466,0.0605 0.04953,0.0128 0.1045634,0.0257 0.1559278,0.0935 0.038523,0.0477 0.056868,0.10824 0.056868,0.16877 0,0.13025 -0.091722,0.26233 -0.2458156,0.26233 -0.053199,0 -0.1926166,-0.009 -0.2898422,-0.0991 -0.1063978,-0.0991 -0.1119011,-0.21647 -0.1137355,-0.28251 -0.00183,-0.0183 -0.01651,-0.0183 -0.022013,-0.0183 -0.023848,0 -0.023848,0.0128 -0.023848,0.0459 v 0.36689 c 0,0.0312 0,0.044 0.020179,0.044 0.012841,0 0.014676,-0.004 0.027517,-0.0238 0,0 0.0055,-0.007 0.06604,-0.10456 0.056868,0.0624 0.1742722,0.12841 0.3375378,0.12841 0.21463,0 0.3613855,-0.17978 0.3613855,-0.38157 z"
           style="font-size:64.99999762%;baseline-shift:sub"
           id="path7075" />
      </g>
      <text
         id="text6302"
         y="287.75745"
         x="2.2073171"
         style="font-style:normal;font-variant:normal;font-weight:normal;font-stretch:normal;font-size:4.23333311px;line-height:1.25;font-family:'Latin Modern Math';-inkscape-font-specification:'Latin Modern Math';letter-spacing:0px;word-spacing:0px;fill:#000000;fill-opacity:1;stroke:none;stroke-width:0.26458332"
         xml:space="preserve"><tspan
           style="font-size:1.76388907px;stroke-width:0.26458332"
           y="287.75745"
           x="2.2073171"
           id="tspan6300"
           sodipodi:role="line">+</tspan></text>
      <text
         xml:space="preserve"
         style="font-style:normal;font-variant:normal;font-weight:normal;font-stretch:normal;font-size:4.23333311px;line-height:1.25;font-family:'Latin Modern Math';-inkscape-font-specification:'Latin Modern Math';letter-spacing:0px;word-spacing:0px;fill:#000000;fill-opacity:1;stroke:none;stroke-width:0.26458332"
         x="2.6394689"
         y="294.25366"
         id="text6306"><tspan
           sodipodi:role="line"
           id="tspan6304"
           x="2.6394689"
           y="294.25366"
           style="font-size:1.76388907px;stroke-width:0.26458332">-</tspan></text>
      <g
         aria-label="VC"
         style="font-style:normal;font-variant:normal;font-weight:normal;font-stretch:normal;font-size:4.23333311px;line-height:1.25;font-family:'Latin Modern Math';-inkscape-font-specification:'Latin Modern Math';letter-spacing:0px;word-spacing:0px;fill:#000000;fill-opacity:1;stroke:none;stroke-width:0.26458332"
         id="text6321">
        <path
           d="m 21.529138,289.5712 v -0.0875 c -0.08749,0.006 -0.200378,0.008 -0.273755,0.008 l -0.321734,-0.008 v 0.0875 c 0.146756,0.003 0.206023,0.0762 0.206023,0.14111 0,0.0226 -0.0085,0.0395 -0.01411,0.0564 l -0.516466,1.36031 -0.539045,-1.42522 c -0.01693,-0.0395 -0.01693,-0.0508 -0.01693,-0.0508 0,-0.0818 0.160867,-0.0818 0.231422,-0.0818 v -0.0875 c -0.1016,0.008 -0.296333,0.008 -0.403578,0.008 l -0.358422,-0.008 v 0.0875 c 0.183445,0 0.237067,0 0.276578,0.10724 l 0.654755,1.73285 c 0.01976,0.0536 0.03387,0.0621 0.07056,0.0621 0.04798,0 0.05362,-0.0141 0.06773,-0.0536 l 0.629356,-1.65946 c 0.03951,-0.10443 0.115711,-0.18627 0.307622,-0.18909 z"
           style="font-size:2.82222223px;stroke-width:0.26458332"
           id="path7083" />
        <path
           d="m 22.805488,291.5483 c 0,-0.0183 0,-0.0312 -0.02385,-0.0312 -0.02018,0 -0.02018,0.011 -0.02201,0.0294 -0.01467,0.26233 -0.210961,0.41275 -0.410915,0.41275 -0.111902,0 -0.471453,-0.0624 -0.471453,-0.60904 0,-0.54849 0.357717,-0.61087 0.469618,-0.61087 0.199955,0 0.36322,0.16694 0.399909,0.43477 0.0037,0.0257 0.0037,0.0312 0.02935,0.0312 0.02935,0 0.02935,-0.005 0.02935,-0.044 v -0.43477 c 0,-0.0312 0,-0.044 -0.02018,-0.044 -0.0073,0 -0.01468,0 -0.02935,0.022 l -0.09172,0.13575 c -0.06787,-0.066 -0.161431,-0.15776 -0.337538,-0.15776 -0.343041,0 -0.638386,0.29167 -0.638386,0.6659 0,0.37973 0.29718,0.66774 0.638386,0.66774 0.299015,0 0.47879,-0.25499 0.47879,-0.46779 z"
           style="font-size:64.99999762%;baseline-shift:sub"
           id="path7085" />
      </g>
      <text
         xml:space="preserve"
         style="font-style:normal;font-variant:normal;font-weight:normal;font-stretch:normal;font-size:4.23333311px;line-height:1.25;font-family:'Latin Modern Math';-inkscape-font-specification:'Latin Modern Math';letter-spacing:0px;word-spacing:0px;fill:#000000;fill-opacity:1;stroke:none;stroke-width:0.26458332"
         x="20.19899"
         y="287.75751"
         id="text6325"><tspan
           sodipodi:role="line"
           id="tspan6323"
           x="20.19899"
           y="287.75751"
           style="font-size:1.76388907px;stroke-width:0.26458332">+</tspan></text>
      <text
         id="text6329"
         y="294.25372"
         x="20.631142"
         style="font-style:normal;font-variant:normal;font-weight:normal;font-stretch:normal;font-size:4.23333311px;line-height:1.25;font-family:'Latin Modern Math';-inkscape-font-specification:'Latin Modern Math';letter-spacing:0px;word-spacing:0px;fill:#000000;fill-opacity:1;stroke:none;stroke-width:0.26458332"
         xml:space="preserve"><tspan
           style="font-size:1.76388907px;stroke-width:0.26458332"
           y="294.25372"
           x="20.631142"
           id="tspan6327"
           sodipodi:role="line">-</tspan></text>
      <g
         aria-label="VR"
         style="font-style:normal;font-variant:normal;font-weight:normal;font-stretch:normal;font-size:4.23333311px;line-height:1.25;font-family:'Latin Modern Math';-inkscape-font-specification:'Latin Modern Math';letter-spacing:0px;word-spacing:0px;fill:#000000;fill-opacity:1;stroke:none;stroke-width:0.26458332"
         id="text6337">
        <path
           d="m 11.813556,282.09769 v -0.0875 c -0.08749,0.006 -0.200378,0.008 -0.273755,0.008 l -0.321734,-0.008 v 0.0875 c 0.146756,0.003 0.206023,0.0762 0.206023,0.14111 0,0.0226 -0.0085,0.0395 -0.01411,0.0564 l -0.516466,1.36031 -0.539045,-1.42522 c -0.01693,-0.0395 -0.01693,-0.0508 -0.01693,-0.0508 0,-0.0818 0.160867,-0.0818 0.231422,-0.0818 v -0.0875 c -0.1016,0.008 -0.296333,0.008 -0.403578,0.008 l -0.3584217,-0.008 v 0.0875 c 0.1834444,0 0.2370667,0 0.2765777,0.10724 l 0.654756,1.73284 c 0.01975,0.0536 0.03387,0.0621 0.07056,0.0621 0.04798,0 0.05362,-0.0141 0.06773,-0.0536 l 0.629356,-1.65947 c 0.03951,-0.10442 0.115711,-0.18626 0.307622,-0.18908 z"
           style="font-size:2.82222223px;stroke-width:0.26458332"
           id="path7078" />
        <path
           d="m 13.212814,284.34079 c 0,-0.011 0,-0.0312 -0.02385,-0.0312 -0.02018,0 -0.02018,0.0165 -0.02201,0.0294 -0.01101,0.13025 -0.07521,0.16327 -0.121073,0.16327 -0.08989,0 -0.104564,-0.0936 -0.130246,-0.26416 l -0.02385,-0.14676 c -0.03302,-0.1174 -0.122907,-0.17794 -0.223802,-0.21279 0.177941,-0.044 0.321028,-0.15593 0.321028,-0.29902 0,-0.1761 -0.209127,-0.3302 -0.47879,-0.3302 h -0.576016 v 0.0569 h 0.04403 c 0.141252,0 0.144921,0.0202 0.144921,0.0862 v 0.96675 c 0,0.066 -0.0037,0.0862 -0.144921,0.0862 h -0.04403 v 0.0569 c 0.06604,-0.006 0.196286,-0.006 0.267829,-0.006 0.07154,0 0.201789,0 0.267829,0.006 v -0.0569 h -0.04403 c -0.141252,0 -0.144921,-0.0202 -0.144921,-0.0862 v -0.46411 h 0.210961 c 0.02935,0 0.106398,0 0.170604,0.0624 0.06971,0.066 0.06971,0.12291 0.06971,0.24581 0,0.11924 0,0.19262 0.07521,0.26233 0.07521,0.066 0.176107,0.077 0.23114,0.077 0.143087,0 0.174272,-0.15043 0.174272,-0.20179 z m -0.41275,-0.7613 c 0,0.12658 -0.04403,0.27517 -0.315524,0.27517 h -0.203624 v -0.47512 c 0,-0.0422 0,-0.0642 0.04036,-0.0697 0.01835,-0.004 0.07154,-0.004 0.108232,-0.004 0.1651,0 0.370558,0.007 0.370558,0.27333 z"
           style="font-size:64.99999762%;baseline-shift:sub"
           id="path7080" />
      </g>
      <text
         id="text6341"
         y="283.73331"
         x="8.2988396"
         style="font-style:normal;font-variant:normal;font-weight:normal;font-stretch:normal;font-size:4.23333311px;line-height:1.25;font-family:'Latin Modern Math';-inkscape-font-specification:'Latin Modern Math';letter-spacing:0px;word-spacing:0px;fill:#000000;fill-opacity:1;stroke:none;stroke-width:0.26458332"
         xml:space="preserve"><tspan
           style="font-size:1.76388907px;stroke-width:0.26458332"
           y="283.73331"
           x="8.2988396"
           id="tspan6339"
           sodipodi:role="line">+</tspan></text>
      <text
         xml:space="preserve"
         style="font-style:normal;font-variant:normal;font-weight:normal;font-stretch:normal;font-size:4.23333311px;line-height:1.25;font-family:'Latin Modern Math';-inkscape-font-specification:'Latin Modern Math';letter-spacing:0px;word-spacing:0px;fill:#000000;fill-opacity:1;stroke:none;stroke-width:0.26458332"
         x="13.50255"
         y="283.53207"
         id="text6345"><tspan
           sodipodi:role="line"
           id="tspan6343"
           x="13.50255"
           y="283.53207"
           style="font-size:1.76388907px;stroke-width:0.26458332">-</tspan></text>
      <path
         style="opacity:1;fill:none;fill-opacity:1;stroke:#161616;stroke-width:0.15000001;stroke-miterlimit:4;stroke-dasharray:none;stroke-dashoffset:0;stroke-opacity:1;marker-end:url(#marker6552)"
         id="path6349"
         sodipodi:type="arc"
         sodipodi:cx="11.84269"
         sodipodi:cy="290.0827"
         sodipodi:rx="2.5596743"
         sodipodi:ry="2.5408971"
         sodipodi:start="2.6906708"
         sodipodi:end="1.0227071"
         sodipodi:open="true"
         d="m 9.5388665,291.19001 a 2.5596743,2.5408971 0 0 1 1.1143085,-3.35717 2.5596743,2.5408971 0 0 1 3.416298,0.99683 2.5596743,2.5408971 0 0 1 -0.893046,3.42174" />
      <text
         xml:space="preserve"
         style="font-style:normal;font-variant:normal;font-weight:normal;font-stretch:normal;font-size:4.23333311px;line-height:1.25;font-family:'Latin Modern Math';-inkscape-font-specification:'Latin Modern Math';letter-spacing:0px;word-spacing:0px;fill:#000000;fill-opacity:1;stroke:none;stroke-width:0.26458332"
         x="11.42278"
         y="293.07843"
         id="text6762"><tspan
           sodipodi:role="line"
           id="tspan6760"
           x="11.42278"
           y="293.07843"
           style="font-size:2.82222223px;stroke-width:0.26458332">I<tspan
   style="font-size:64.99999762%;baseline-shift:sub"
   id="tspan6758" /></tspan></text>
    </g>
  </g>
</svg>
