<?xml version="1.0" encoding="UTF-8" standalone="no"?>
<!-- Created with Inkscape (http://www.inkscape.org/) -->

<svg
   xmlns:dc="http://purl.org/dc/elements/1.1/"
   xmlns:cc="http://creativecommons.org/ns#"
   xmlns:rdf="http://www.w3.org/1999/02/22-rdf-syntax-ns#"
   xmlns:svg="http://www.w3.org/2000/svg"
   xmlns="http://www.w3.org/2000/svg"
   xmlns:sodipodi="http://sodipodi.sourceforge.net/DTD/sodipodi-0.dtd"
   xmlns:inkscape="http://www.inkscape.org/namespaces/inkscape"
   width="38mm"
   height="32mm"
   viewBox="0 0 38 32"
   version="1.1"
   id="svg1285"
   inkscape:version="0.92.2 (5c3e80d, 2017-08-06)"
   sodipodi:docname="seriesRCphasor.svg">
  <defs
     id="defs1279">
    <marker
       inkscape:isstock="true"
       style="overflow:visible"
       id="marker13344"
       refX="0"
       refY="0"
       orient="auto"
       inkscape:stockid="Arrow1Mend">
      <path
         inkscape:connector-curvature="0"
         transform="matrix(-0.4,0,0,-0.4,-4,0)"
         style="fill:#000000;fill-opacity:1;fill-rule:evenodd;stroke:#000000;stroke-width:1.00000003pt;stroke-opacity:1"
         d="M 0,0 5,-5 -12.5,0 5,5 Z"
         id="path13342" />
    </marker>
    <marker
       inkscape:stockid="Arrow1Mend"
       orient="auto"
       refY="0"
       refX="0"
       id="marker3132"
       style="overflow:visible"
       inkscape:isstock="true"
       inkscape:collect="always">
      <path
         id="path3130"
         d="M 0,0 5,-5 -12.5,0 5,5 Z"
         style="fill:#000000;fill-opacity:1;fill-rule:evenodd;stroke:#000000;stroke-width:1.00000003pt;stroke-opacity:1"
         transform="matrix(-0.4,0,0,-0.4,-4,0)"
         inkscape:connector-curvature="0" />
    </marker>
    <marker
       inkscape:stockid="Arrow1Mend"
       orient="auto"
       refY="0"
       refX="0"
       id="marker2820"
       style="overflow:visible"
       inkscape:isstock="true">
      <path
         id="path2818"
         d="M 0,0 5,-5 -12.5,0 5,5 Z"
         style="fill:#000000;fill-opacity:1;fill-rule:evenodd;stroke:#000000;stroke-width:1.00000003pt;stroke-opacity:1"
         transform="matrix(-0.4,0,0,-0.4,-4,0)"
         inkscape:connector-curvature="0" />
    </marker>
    <marker
       inkscape:stockid="Arrow1Mend"
       orient="auto"
       refY="0"
       refX="0"
       id="marker2460"
       style="overflow:visible"
       inkscape:isstock="true">
      <path
         id="path2458"
         d="M 0,0 5,-5 -12.5,0 5,5 Z"
         style="fill:#000000;fill-opacity:1;fill-rule:evenodd;stroke:#000000;stroke-width:1.00000003pt;stroke-opacity:1"
         transform="matrix(-0.4,0,0,-0.4,-4,0)"
         inkscape:connector-curvature="0" />
    </marker>
    <marker
       inkscape:isstock="true"
       style="overflow:visible"
       id="marker2412"
       refX="0"
       refY="0"
       orient="auto"
       inkscape:stockid="Arrow1Mend"
       inkscape:collect="always">
      <path
         transform="matrix(-0.4,0,0,-0.4,-4,0)"
         style="fill:#000000;fill-opacity:1;fill-rule:evenodd;stroke:#000000;stroke-width:1.00000003pt;stroke-opacity:1"
         d="M 0,0 5,-5 -12.5,0 5,5 Z"
         id="path2410"
         inkscape:connector-curvature="0" />
    </marker>
    <marker
       inkscape:stockid="Arrow1Mend"
       orient="auto"
       refY="0"
       refX="0"
       id="Arrow1Mend"
       style="overflow:visible"
       inkscape:isstock="true"
       inkscape:collect="always">
      <path
         id="path1841"
         d="M 0,0 5,-5 -12.5,0 5,5 Z"
         style="fill:#000000;fill-opacity:1;fill-rule:evenodd;stroke:#000000;stroke-width:1.00000003pt;stroke-opacity:1"
         transform="matrix(-0.4,0,0,-0.4,-4,0)"
         inkscape:connector-curvature="0" />
    </marker>
  </defs>
  <sodipodi:namedview
     id="base"
     pagecolor="#ffffff"
     bordercolor="#666666"
     borderopacity="1.0"
     inkscape:pageopacity="0.0"
     inkscape:pageshadow="2"
     inkscape:zoom="3.959798"
     inkscape:cx="78.014971"
     inkscape:cy="63.144259"
     inkscape:document-units="mm"
     inkscape:current-layer="layer1"
     showgrid="false"
     inkscape:snap-global="false"
     inkscape:window-width="1920"
     inkscape:window-height="1101"
     inkscape:window-x="0"
     inkscape:window-y="28"
     inkscape:window-maximized="1" />
  <metadata
     id="metadata1282">
    <rdf:RDF>
      <cc:Work
         rdf:about="">
        <dc:format>image/svg+xml</dc:format>
        <dc:type
           rdf:resource="http://purl.org/dc/dcmitype/StillImage" />
        <dc:title></dc:title>
      </cc:Work>
    </rdf:RDF>
  </metadata>
  <g
     inkscape:label="Layer 1"
     inkscape:groupmode="layer"
     id="layer1"
     transform="translate(0,-265)">
    <path
       style="fill:none;stroke:#000000;stroke-width:0.26499999;stroke-linecap:butt;stroke-linejoin:miter;stroke-miterlimit:4;stroke-dasharray:none;stroke-opacity:1;marker-end:url(#Arrow1Mend)"
       d="m 7.011676,270.84468 h 29.55931"
       id="path1830"
       inkscape:connector-curvature="0" />
    <path
       style="fill:none;stroke:#000000;stroke-width:0.36500001;stroke-linecap:butt;stroke-linejoin:miter;stroke-miterlimit:4;stroke-dasharray:none;stroke-opacity:1;marker-end:url(#marker2412)"
       d="m 7.1453107,270.72675 v 22.7179"
       id="path2402"
       inkscape:connector-curvature="0" />
    <path
       inkscape:connector-curvature="0"
       id="path2456"
       d="M 7.0116759,270.84468 H 29.729576"
       style="fill:none;stroke:#000000;stroke-width:0.36500001;stroke-linecap:butt;stroke-linejoin:miter;stroke-miterlimit:4;stroke-dasharray:none;stroke-opacity:1;marker-end:url(#marker2460)" />
    <path
       inkscape:connector-curvature="0"
       id="path2816"
       d="m 29.888897,271.0797 v 22.7179"
       style="fill:none;stroke:#000000;stroke-width:0.26458332;stroke-linecap:butt;stroke-linejoin:miter;stroke-miterlimit:4;stroke-dasharray:0.26458332, 0.26458332;stroke-dashoffset:0;stroke-opacity:1;marker-end:url(#marker2820)" />
    <path
       inkscape:connector-curvature="0"
       id="path3128"
       d="M 7.2145532,271.06239 29.567831,293.64665"
       style="fill:none;stroke:#000000;stroke-width:0.36500001;stroke-linecap:butt;stroke-linejoin:miter;stroke-miterlimit:4;stroke-dasharray:none;stroke-opacity:1;marker-end:url(#marker3132)"
       sodipodi:nodetypes="cc" />
    <path
       style="fill:none;stroke:#000000;stroke-width:0.26458332px;stroke-linecap:butt;stroke-linejoin:miter;stroke-opacity:1"
       d="m 21.943498,279.54611 -2.48808,2.45631"
       id="path4146"
       inkscape:connector-curvature="0" />
    <path
       inkscape:connector-curvature="0"
       id="path4148"
       d="m 26.75937,284.47208 -2.48808,2.45631"
       style="fill:none;stroke:#000000;stroke-width:0.26458332px;stroke-linecap:butt;stroke-linejoin:miter;stroke-opacity:1" />
    <path
       style="fill:none;stroke:#000000;stroke-width:0.265;stroke-linecap:butt;stroke-linejoin:miter;stroke-opacity:1;stroke-miterlimit:4;stroke-dasharray:none;marker-end:url(#marker13344)"
       d="m 13.09335,277.10069 c 0,0 2.456845,-2.03162 2.409598,-6.14211"
       id="path4163"
       inkscape:connector-curvature="0"
       sodipodi:nodetypes="cc" />
    <path
       style="fill:none;stroke:#000000;stroke-width:0.26458332px;stroke-linecap:butt;stroke-linejoin:miter;stroke-opacity:1"
       d="m 17.363187,271.74397 -1.457087,5.43792 h 3.205226"
       id="path4165"
       inkscape:connector-curvature="0" />
    <g
       aria-label="Iac"
       style="font-style:normal;font-variant:normal;font-weight:normal;font-stretch:normal;font-size:4.23333311px;line-height:1.25;font-family:'Latin Modern Math';-inkscape-font-specification:'Latin Modern Math';letter-spacing:0px;word-spacing:0px;fill:#000000;fill-opacity:1;stroke:none;stroke-width:0.26458332"
       id="text7614"
       transform="translate(0.759531,3.047895)">
      <path
         inkscape:connector-curvature="0"
         d="m 33.482042,266.13037 v -0.13123 h -0.110067 c -0.334433,0 -0.347133,-0.0466 -0.347133,-0.19897 v -2.23097 c 0,-0.1524 0.0127,-0.19896 0.347133,-0.19896 h 0.110067 V 263.239 c -0.148167,0.0127 -0.4826,0.0127 -0.643467,0.0127 -0.1651,0 -0.499533,0 -0.6477,-0.0127 v 0.13124 h 0.110067 c 0.334433,0 0.347133,0.0466 0.347133,0.19896 v 2.23097 c 0,0.1524 -0.0127,0.19897 -0.347133,0.19897 h -0.110067 v 0.13123 c 0.148167,-0.0127 0.4826,-0.0127 0.643467,-0.0127 0.1651,0 0.499533,0 0.6477,0.0127 z"
         style="stroke-width:0.26458332"
         id="path8206" />
      <path
         inkscape:connector-curvature="0"
         d="m 34.931019,266.73214 v -0.15409 h -0.06879 v 0.15409 c 0,0.1596 -0.06879,0.17611 -0.09906,0.17611 -0.09081,0 -0.101811,-0.12383 -0.101811,-0.13759 v -0.55033 c 0,-0.11557 0,-0.22289 -0.09906,-0.3247 -0.107315,-0.10731 -0.244899,-0.15134 -0.376979,-0.15134 -0.225636,0 -0.415501,0.12933 -0.415501,0.31094 0,0.0826 0.05503,0.12933 0.126577,0.12933 0.07705,0 0.126576,-0.055 0.126576,-0.12658 0,-0.033 -0.01376,-0.12382 -0.140335,-0.12658 0.07429,-0.0963 0.209127,-0.12657 0.29718,-0.12657 0.134832,0 0.291677,0.10731 0.291677,0.35221 v 0.10181 c -0.140335,0.008 -0.332952,0.0165 -0.506307,0.0991 -0.206375,0.0936 -0.275166,0.23665 -0.275166,0.35772 0,0.22288 0.266911,0.29168 0.440266,0.29168 0.18161,0 0.308187,-0.11007 0.360468,-0.2394 0.01101,0.11007 0.0853,0.22564 0.21463,0.22564 0.05779,0 0.225637,-0.0385 0.225637,-0.26141 z m -0.459528,-0.14034 c 0,0.26141 -0.19812,0.35497 -0.321945,0.35497 -0.134832,0 -0.24765,-0.0963 -0.24765,-0.23389 0,-0.15134 0.11557,-0.37973 0.569595,-0.39624 z"
         style="font-size:64.99999762%;baseline-shift:sub"
         id="path8208" />
      <path
         inkscape:connector-curvature="0"
         d="m 36.119739,266.64959 c 0,-0.0275 -0.02752,-0.0275 -0.03577,-0.0275 -0.02477,0 -0.03027,0.011 -0.03577,0.0275 -0.0798,0.2559 -0.258657,0.28892 -0.360469,0.28892 -0.145838,0 -0.387985,-0.11832 -0.387985,-0.56134 0,-0.44852 0.225637,-0.56409 0.371475,-0.56409 0.02477,0 0.19812,0.003 0.294429,0.10181 -0.112819,0.008 -0.129329,0.0908 -0.129329,0.12658 0,0.0715 0.04953,0.12658 0.126577,0.12658 0.07154,0 0.126577,-0.0468 0.126577,-0.12933 0,-0.18711 -0.209127,-0.29443 -0.421005,-0.29443 -0.343959,0 -0.597112,0.29718 -0.597112,0.63839 0,0.35221 0.272415,0.62463 0.591608,0.62463 0.368724,0 0.456777,-0.3302 0.456777,-0.35772 z"
         style="font-size:64.99999762%;baseline-shift:sub"
         id="path8210" />
    </g>
    <g
       aria-label="VR"
       style="font-style:normal;font-variant:normal;font-weight:normal;font-stretch:normal;font-size:4.23333311px;line-height:1.25;font-family:'Latin Modern Math';-inkscape-font-specification:'Latin Modern Math';letter-spacing:0px;word-spacing:0px;fill:#000000;fill-opacity:1;stroke:none;stroke-width:0.26458332"
       id="text7620"
       transform="translate(0.759531,3.047895)">
      <path
         inkscape:connector-curvature="0"
         d="m 21.999654,263.43707 v -0.13123 c -0.131233,0.008 -0.300567,0.0127 -0.410633,0.0127 l -0.4826,-0.0127 v 0.13123 c 0.220133,0.004 0.309033,0.1143 0.309033,0.21167 0,0.0339 -0.0127,0.0593 -0.02117,0.0847 l -0.7747,2.04047 -0.808566,-2.13783 c -0.0254,-0.0593 -0.0254,-0.0762 -0.0254,-0.0762 0,-0.12277 0.2413,-0.12277 0.347133,-0.12277 v -0.13123 c -0.1524,0.0127 -0.4445,0.0127 -0.605367,0.0127 l -0.537633,-0.0127 v 0.13123 c 0.275167,0 0.3556,0 0.414867,0.16087 l 0.982133,2.59926 c 0.02963,0.0804 0.0508,0.0931 0.105833,0.0931 0.07197,0 0.08043,-0.0212 0.1016,-0.0804 l 0.944034,-2.4892 c 0.05927,-0.15663 0.173566,-0.2794 0.461433,-0.28363 z"
         style="stroke-width:0.26458332"
         id="path8213" />
      <path
         inkscape:connector-curvature="0"
         d="m 24.09854,266.80172 c 0,-0.0165 0,-0.0468 -0.03577,-0.0468 -0.03027,0 -0.03027,0.0248 -0.03302,0.044 -0.01651,0.19537 -0.112819,0.2449 -0.18161,0.2449 -0.134832,0 -0.156845,-0.14033 -0.195369,-0.39624 l -0.03577,-0.22013 c -0.04953,-0.17611 -0.184362,-0.26691 -0.335704,-0.3192 0.266912,-0.066 0.481542,-0.23389 0.481542,-0.44852 0,-0.26416 -0.31369,-0.4953 -0.718185,-0.4953 h -0.864023 v 0.0853 h 0.06604 c 0.211878,0 0.217381,0.0303 0.217381,0.12933 v 1.45013 c 0,0.0991 -0.0055,0.12933 -0.217381,0.12933 h -0.06604 v 0.0853 c 0.09906,-0.008 0.294428,-0.008 0.401743,-0.008 0.107315,0 0.302683,0 0.401743,0.008 v -0.0853 h -0.06604 c -0.211878,0 -0.217381,-0.0303 -0.217381,-0.12933 v -0.69617 h 0.316441 c 0.04403,0 0.159597,0 0.255905,0.0936 0.104564,0.0991 0.104564,0.18436 0.104564,0.36872 0,0.17886 0,0.28892 0.112818,0.39349 0.112818,0.0991 0.26416,0.11557 0.34671,0.11557 0.21463,0 0.261408,-0.22564 0.261408,-0.30269 z m -0.619125,-1.14194 c 0,0.18987 -0.06604,0.41275 -0.473286,0.41275 h -0.305435 v -0.71268 c 0,-0.0633 0,-0.0963 0.06054,-0.10456 0.02752,-0.006 0.107315,-0.006 0.162349,-0.006 0.24765,0 0.555836,0.011 0.555836,0.41 z"
         style="font-size:64.99999762%;baseline-shift:sub"
         id="path8215" />
    </g>
    <g
       aria-label="VC"
       style="font-style:normal;font-variant:normal;font-weight:normal;font-stretch:normal;font-size:4.23333311px;line-height:1.25;font-family:'Latin Modern Math';-inkscape-font-specification:'Latin Modern Math';letter-spacing:0px;word-spacing:0px;fill:#000000;fill-opacity:1;stroke:none;stroke-width:0.26458332"
       id="text7904"
       transform="translate(0.759531,3.047895)">
      <path
         inkscape:connector-curvature="0"
         d="m 3.1571526,278.80505 v -0.13123 c -0.1312333,0.008 -0.3005666,0.0127 -0.4106333,0.0127 l -0.4826,-0.0127 v 0.13123 c 0.2201334,0.004 0.3090334,0.1143 0.3090334,0.21167 0,0.0339 -0.0127,0.0593 -0.021167,0.0847 l -0.7747,2.04046 -0.8085666,-2.13783 c -0.0254,-0.0593 -0.0254,-0.0762 -0.0254,-0.0762 0,-0.12277 0.2413,-0.12277 0.3471333,-0.12277 v -0.13123 c -0.1524,0.0127 -0.44449997,0.0127 -0.60536662,0.0127 l -0.53763331,-0.0127 v 0.13123 c 0.27516665,0 0.35559998,0 0.41486665,0.16087 l 0.98213328,2.59927 c 0.029633,0.0804 0.0508,0.0931 0.1058333,0.0931 0.071967,0 0.080433,-0.0212 0.1016,-0.0804 l 0.9440333,-2.4892 c 0.059267,-0.15664 0.1735667,-0.2794 0.4614333,-0.28364 z"
         style="stroke-width:0.26458332"
         id="path8218" />
      <path
         inkscape:connector-curvature="0"
         d="m 5.0716773,281.77071 c 0,-0.0275 0,-0.0468 -0.035772,-0.0468 -0.030268,0 -0.030268,0.0165 -0.03302,0.044 -0.022013,0.39349 -0.3164416,0.61913 -0.6163733,0.61913 -0.1678516,0 -0.7071782,-0.0936 -0.7071782,-0.91356 0,-0.82274 0.5365749,-0.9163 0.7044266,-0.9163 0.2999316,0 0.5448299,0.2504 0.5998632,0.65214 0.0055,0.0385 0.0055,0.0468 0.044027,0.0468 0.044027,0 0.044027,-0.008 0.044027,-0.066 v -0.65214 c 0,-0.0468 0,-0.066 -0.030268,-0.066 -0.011007,0 -0.022013,0 -0.044027,0.033 l -0.1375833,0.20362 c -0.1018117,-0.0991 -0.2421467,-0.23664 -0.5063066,-0.23664 -0.5145616,0 -0.9575799,0.43751 -0.9575799,0.99885 0,0.5696 0.4457699,1.00161 0.9575799,1.00161 0.4485216,0 0.7181849,-0.38248 0.7181849,-0.70168 z"
         style="font-size:64.99999762%;baseline-shift:sub"
         id="path8220" />
    </g>
    <g
       aria-label="Vac"
       transform="rotate(45,-3.2993692,2.4407825)"
       style="font-style:normal;font-variant:normal;font-weight:normal;font-stretch:normal;font-size:4.23333311px;line-height:1.25;font-family:'Latin Modern Math';-inkscape-font-specification:'Latin Modern Math';letter-spacing:0px;word-spacing:0px;fill:#000000;fill-opacity:1;stroke:none;stroke-width:0.26458332"
       id="text8190">
      <path
         inkscape:connector-curvature="0"
         d="m 214.0686,180.83613 v -0.13123 c -0.13123,0.008 -0.30056,0.0127 -0.41063,0.0127 l -0.4826,-0.0127 v 0.13123 c 0.22013,0.004 0.30903,0.1143 0.30903,0.21167 0,0.0339 -0.0127,0.0593 -0.0212,0.0847 l -0.7747,2.04046 -0.80857,-2.13783 c -0.0254,-0.0593 -0.0254,-0.0762 -0.0254,-0.0762 0,-0.12277 0.2413,-0.12277 0.34713,-0.12277 v -0.13123 c -0.1524,0.0127 -0.4445,0.0127 -0.60536,0.0127 l -0.53764,-0.0127 v 0.13123 c 0.27517,0 0.3556,0 0.41487,0.16087 l 0.98213,2.59927 c 0.0296,0.0804 0.0508,0.0931 0.10584,0.0931 0.072,0 0.0804,-0.0212 0.1016,-0.0804 l 0.94403,-2.4892 c 0.0593,-0.15664 0.17357,-0.2794 0.46143,-0.28364 z"
         style="stroke-width:0.26458332"
         id="path8230" />
      <path
         inkscape:connector-curvature="0"
         d="m 215.48233,184.19804 v -0.1541 h -0.0688 v 0.1541 c 0,0.15959 -0.0688,0.1761 -0.0991,0.1761 -0.0908,0 -0.10181,-0.12382 -0.10181,-0.13758 v -0.55033 c 0,-0.11557 0,-0.22289 -0.0991,-0.3247 -0.10731,-0.10732 -0.2449,-0.15134 -0.37698,-0.15134 -0.22563,0 -0.4155,0.12933 -0.4155,0.31094 0,0.0825 0.055,0.12932 0.12658,0.12932 0.0771,0 0.12658,-0.055 0.12658,-0.12657 0,-0.033 -0.0138,-0.12383 -0.14034,-0.12658 0.0743,-0.0963 0.20913,-0.12658 0.29718,-0.12658 0.13483,0 0.29168,0.10732 0.29168,0.35222 v 0.10181 c -0.14034,0.008 -0.33295,0.0165 -0.50631,0.0991 -0.20637,0.0936 -0.27517,0.23664 -0.27517,0.35772 0,0.22288 0.26692,0.29167 0.44027,0.29167 0.18161,0 0.30819,-0.11006 0.36047,-0.23939 0.011,0.11006 0.0853,0.22563 0.21463,0.22563 0.0578,0 0.22564,-0.0385 0.22564,-0.2614 z m -0.45953,-0.14034 c 0,0.26141 -0.19812,0.35497 -0.32195,0.35497 -0.13483,0 -0.24765,-0.0963 -0.24765,-0.2339 0,-0.15134 0.11557,-0.37973 0.5696,-0.39624 z"
         style="font-size:64.99999762%;baseline-shift:sub"
         id="path8232" />
      <path
         inkscape:connector-curvature="0"
         d="m 216.67105,184.11549 c 0,-0.0275 -0.0275,-0.0275 -0.0358,-0.0275 -0.0248,0 -0.0303,0.011 -0.0358,0.0275 -0.0798,0.2559 -0.25865,0.28892 -0.36047,0.28892 -0.14583,0 -0.38798,-0.11832 -0.38798,-0.56134 0,-0.44852 0.22564,-0.56409 0.37147,-0.56409 0.0248,0 0.19812,0.003 0.29443,0.10181 -0.11282,0.008 -0.12933,0.0908 -0.12933,0.12658 0,0.0715 0.0495,0.12657 0.12658,0.12657 0.0715,0 0.12658,-0.0468 0.12658,-0.12932 0,-0.18712 -0.20913,-0.29443 -0.42101,-0.29443 -0.34396,0 -0.59711,0.29718 -0.59711,0.63838 0,0.35222 0.27242,0.62463 0.59161,0.62463 0.36872,0 0.45678,-0.3302 0.45678,-0.35771 z"
         style="font-size:64.99999762%;baseline-shift:sub"
         id="path8234" />
    </g>
    <g
       aria-label="Vac"
       style="font-style:normal;font-variant:normal;font-weight:normal;font-stretch:normal;font-size:4.23333311px;line-height:1.25;font-family:'Latin Modern Math';-inkscape-font-specification:'Latin Modern Math';letter-spacing:0px;word-spacing:0px;fill:#000000;fill-opacity:1;stroke:none;stroke-width:0.26458332"
       id="text8198"
       transform="translate(0.759531,3.047895)">
      <path
         inkscape:connector-curvature="0"
         d="m 25.941877,289.02811 v -0.13124 c -0.131234,0.008 -0.300567,0.0127 -0.410634,0.0127 l -0.4826,-0.0127 v 0.13124 c 0.220134,0.004 0.309034,0.1143 0.309034,0.21166 0,0.0339 -0.0127,0.0593 -0.02117,0.0847 l -0.7747,2.04047 -0.808567,-2.13784 c -0.0254,-0.0593 -0.0254,-0.0762 -0.0254,-0.0762 0,-0.12276 0.2413,-0.12276 0.347134,-0.12276 v -0.13124 c -0.1524,0.0127 -0.4445,0.0127 -0.605367,0.0127 l -0.537633,-0.0127 v 0.13124 c 0.275166,0 0.3556,0 0.414866,0.16086 l 0.982134,2.59927 c 0.02963,0.0804 0.0508,0.0931 0.105833,0.0931 0.07197,0 0.08043,-0.0212 0.1016,-0.0804 l 0.944033,-2.4892 c 0.05927,-0.15663 0.173567,-0.2794 0.461434,-0.28363 z"
         style="stroke-width:0.26458332"
         id="path8237" />
      <path
         inkscape:connector-curvature="0"
         d="m 27.355598,292.39001 v -0.1541 h -0.06879 v 0.1541 c 0,0.15959 -0.06879,0.1761 -0.09906,0.1761 -0.0908,0 -0.101811,-0.12382 -0.101811,-0.13758 v -0.55033 c 0,-0.11557 0,-0.22289 -0.09906,-0.3247 -0.107315,-0.10731 -0.244899,-0.15134 -0.376979,-0.15134 -0.225636,0 -0.415501,0.12933 -0.415501,0.31094 0,0.0826 0.05503,0.12933 0.126576,0.12933 0.07705,0 0.126577,-0.055 0.126577,-0.12658 0,-0.033 -0.01376,-0.12383 -0.140335,-0.12658 0.07429,-0.0963 0.209127,-0.12657 0.29718,-0.12657 0.134832,0 0.291677,0.10731 0.291677,0.35221 v 0.10181 c -0.140335,0.008 -0.332952,0.0165 -0.506307,0.0991 -0.206375,0.0936 -0.275167,0.23664 -0.275167,0.35772 0,0.22288 0.266912,0.29167 0.440267,0.29167 0.18161,0 0.308187,-0.11006 0.360468,-0.23939 0.01101,0.11007 0.0853,0.22564 0.21463,0.22564 0.05778,0 0.225637,-0.0385 0.225637,-0.26141 z m -0.459528,-0.14034 c 0,0.26141 -0.19812,0.35497 -0.321945,0.35497 -0.134832,0 -0.24765,-0.0963 -0.24765,-0.23389 0,-0.15135 0.11557,-0.37973 0.569595,-0.39624 z"
         style="font-size:64.99999762%;baseline-shift:sub"
         id="path8239" />
      <path
         inkscape:connector-curvature="0"
         d="m 28.544318,292.30746 c 0,-0.0275 -0.02752,-0.0275 -0.03577,-0.0275 -0.02476,0 -0.03027,0.011 -0.03577,0.0275 -0.0798,0.2559 -0.258656,0.28892 -0.360468,0.28892 -0.145838,0 -0.387985,-0.11832 -0.387985,-0.56134 0,-0.44852 0.225637,-0.56409 0.371475,-0.56409 0.02476,0 0.19812,0.003 0.294428,0.10181 -0.112818,0.008 -0.129328,0.0908 -0.129328,0.12658 0,0.0715 0.04953,0.12658 0.126577,0.12658 0.07154,0 0.126576,-0.0468 0.126576,-0.12933 0,-0.18712 -0.209126,-0.29443 -0.421005,-0.29443 -0.343958,0 -0.597111,0.29718 -0.597111,0.63839 0,0.35221 0.272415,0.62462 0.591608,0.62462 0.368723,0 0.456777,-0.3302 0.456777,-0.35771 z"
         style="font-size:64.99999762%;baseline-shift:sub"
         id="path8241" />
    </g>
    <g
       transform="translate(-14.474832,9.5959984)"
       id="g13334"
       style="font-style:normal;font-variant:normal;font-weight:normal;font-stretch:normal;font-size:4.23333311px;line-height:1.25;font-family:'Latin Modern Math';-inkscape-font-specification:'Latin Modern Math';letter-spacing:0px;word-spacing:0px;fill:#000000;fill-opacity:1;stroke:none;stroke-width:0.26458332"
       aria-label="Iac">
      <path
         id="path13328"
         style="stroke-width:0.26458332"
         d="m 33.482042,266.13037 v -0.13123 h -0.110067 c -0.334433,0 -0.347133,-0.0466 -0.347133,-0.19897 v -2.23097 c 0,-0.1524 0.0127,-0.19896 0.347133,-0.19896 h 0.110067 V 263.239 c -0.148167,0.0127 -0.4826,0.0127 -0.643467,0.0127 -0.1651,0 -0.499533,0 -0.6477,-0.0127 v 0.13124 h 0.110067 c 0.334433,0 0.347133,0.0466 0.347133,0.19896 v 2.23097 c 0,0.1524 -0.0127,0.19897 -0.347133,0.19897 h -0.110067 v 0.13123 c 0.148167,-0.0127 0.4826,-0.0127 0.643467,-0.0127 0.1651,0 0.499533,0 0.6477,0.0127 z"
         inkscape:connector-curvature="0" />
      <path
         id="path13330"
         style="font-size:64.99999762%;baseline-shift:sub"
         d="m 34.931019,266.73214 v -0.15409 h -0.06879 v 0.15409 c 0,0.1596 -0.06879,0.17611 -0.09906,0.17611 -0.09081,0 -0.101811,-0.12383 -0.101811,-0.13759 v -0.55033 c 0,-0.11557 0,-0.22289 -0.09906,-0.3247 -0.107315,-0.10731 -0.244899,-0.15134 -0.376979,-0.15134 -0.225636,0 -0.415501,0.12933 -0.415501,0.31094 0,0.0826 0.05503,0.12933 0.126577,0.12933 0.07705,0 0.126576,-0.055 0.126576,-0.12658 0,-0.033 -0.01376,-0.12382 -0.140335,-0.12658 0.07429,-0.0963 0.209127,-0.12657 0.29718,-0.12657 0.134832,0 0.291677,0.10731 0.291677,0.35221 v 0.10181 c -0.140335,0.008 -0.332952,0.0165 -0.506307,0.0991 -0.206375,0.0936 -0.275166,0.23665 -0.275166,0.35772 0,0.22288 0.266911,0.29168 0.440266,0.29168 0.18161,0 0.308187,-0.11007 0.360468,-0.2394 0.01101,0.11007 0.0853,0.22564 0.21463,0.22564 0.05779,0 0.225637,-0.0385 0.225637,-0.26141 z m -0.459528,-0.14034 c 0,0.26141 -0.19812,0.35497 -0.321945,0.35497 -0.134832,0 -0.24765,-0.0963 -0.24765,-0.23389 0,-0.15134 0.11557,-0.37973 0.569595,-0.39624 z"
         inkscape:connector-curvature="0" />
      <path
         id="path13332"
         style="font-size:64.99999762%;baseline-shift:sub"
         d="m 36.119739,266.64959 c 0,-0.0275 -0.02752,-0.0275 -0.03577,-0.0275 -0.02477,0 -0.03027,0.011 -0.03577,0.0275 -0.0798,0.2559 -0.258657,0.28892 -0.360469,0.28892 -0.145838,0 -0.387985,-0.11832 -0.387985,-0.56134 0,-0.44852 0.225637,-0.56409 0.371475,-0.56409 0.02477,0 0.19812,0.003 0.294429,0.10181 -0.112819,0.008 -0.129329,0.0908 -0.129329,0.12658 0,0.0715 0.04953,0.12658 0.126577,0.12658 0.07154,0 0.126577,-0.0468 0.126577,-0.12933 0,-0.18711 -0.209127,-0.29443 -0.421005,-0.29443 -0.343959,0 -0.597112,0.29718 -0.597112,0.63839 0,0.35221 0.272415,0.62463 0.591608,0.62463 0.368724,0 0.456777,-0.3302 0.456777,-0.35772 z"
         inkscape:connector-curvature="0" />
    </g>
  </g>
</svg>
